SplineFontDB: 3.0
FontName: Bravura
FullName: Bravura
FamilyName: Bravura
Weight: Regular
Copyright: Copyright \\251 2014 Steinberg Media Technologies GmbH. This font is licensed under the SIL Open Font License \\(http://scripts.sil.org/OFL\\).
Version: 001.001
ItalicAngle: 0
UnderlinePosition: -50
UnderlineWidth: 50
Ascent: 800
Descent: 200
sfntRevision: 0x0001051f
LayerCount: 2
Layer: 0 0 "Back"  1
Layer: 1 0 "Zeichenebene"  0
XUID: [1021 950 32697 29919]
FSType: 0
OS2Version: 3
OS2_WeightWidthSlopeOnly: 0
OS2_UseTypoMetrics: 1
CreationTime: -809096831
ModificationTime: 1403515491
PfmFamily: 81
TTFWeight: 400
TTFWidth: 5
LineGap: 0
VLineGap: 0
Panose: 5 6 0 0 0 0 0 0 0 0
OS2TypoAscent: 2012
OS2TypoAOffset: 0
OS2TypoDescent: -2012
OS2TypoDOffset: 0
OS2TypoLinegap: 0
OS2WinAscent: 2012
OS2WinAOffset: 0
OS2WinDescent: 2012
OS2WinDOffset: 0
HheadAscent: 2012
HheadAOffset: 0
HheadDescent: -2012
HheadDOffset: 0
OS2SubXSize: 650
OS2SubYSize: 600
OS2SubXOff: 0
OS2SubYOff: 75
OS2SupXSize: 650
OS2SupYSize: 600
OS2SupXOff: 0
OS2SupYOff: 350
OS2StrikeYSize: 50
OS2StrikeYPos: 165
OS2Vendor: 'SMTG'
OS2CodePages: 00000001.00000000
OS2UnicodeRanges: 00000000.12004000.01000000.00000000
Lookup: 3 0 0 "'ss01' Stilgruppe 1 lookup 0"  {"'ss01' Stilgruppe 1 lookup 0 subtable"  } ['ss01' ('DFLT' <'dflt' > ) ]
Lookup: 3 0 0 "'ss02' Stilgruppe 2 lookup 1"  {"'ss02' Stilgruppe 2 lookup 1 subtable"  } ['ss02' ('DFLT' <'dflt' > ) ]
Lookup: 3 0 0 "'ss03' Stilgruppe 3 lookup 2"  {"'ss03' Stilgruppe 3 lookup 2 subtable"  } ['ss03' ('DFLT' <'dflt' > ) ]
Lookup: 3 0 0 "'ss04' Stilgruppe 4 lookup 3"  {"'ss04' Stilgruppe 4 lookup 3 subtable"  } ['ss04' ('DFLT' <'dflt' > ) ]
Lookup: 3 0 0 "'salt' Stilistische Alternativformen lookup 4"  {"'salt' Stilistische Alternativformen lookup 4 subtable"  } ['salt' ('DFLT' <'dflt' > ) ]
Lookup: 4 0 1 "'liga' Standard Ligatures lookup 5"  {"'liga' Standard Ligatures lookup 5 subtable"  } ['liga' ('DFLT' <'dflt' > ) ]

StartChar: u02669
Encoding: 9833 9833 2
Width: 332
Flags: MW
HStem: -141 1063<78.5 332>
VStem: 302 30<115 922>
LayerCount: 2
Fore
SplineSet
302 115 m 1
 302 922 l 1
 332 922 l 1
 332 47 l 2
 332 -48 209 -141 109 -141 c 0
 48 -141 0 -106 0 -47 c 0
 0 50 99 141 222 141 c 0
 255 141 283 132 302 115 c 1
EndSplineSet
EndChar

StartChar: u0266A
Encoding: 9834 9834 3
Width: 553
Flags: MW
HStem: -138 1104<78.5 319>
VStem: 302 30<118 715> 512 41<413 434 434 441 406.5 457>
LayerCount: 2
Fore
SplineSet
340 948 m 0
 357 868 396 798 444 731 c 0
 504 647 549 547 553 441 c 1
 553 434 l 2
 553 379 533 304 529 295 c 0
 523 282 516 277 509 277 c 0
 507 277 504 278 502 279 c 0
 496 282 487 290 487 303 c 0
 487 307 488 311 490 316 c 0
 506 354 512 394 512 432 c 0
 512 482 501 529 490 559 c 0
 447 678 375 706 332 715 c 1
 332 50 l 2
 332 -45 209 -138 109 -138 c 0
 48 -138 0 -103 0 -44 c 0
 0 53 99 144 222 144 c 0
 255 144 283 135 302 118 c 1
 302 956 l 2
 302 966 306 966 312 966 c 2
 319 966 l 2
 327 966 336 964 340 948 c 0
EndSplineSet
EndChar

StartChar: u0266B
Encoding: 9835 9835 4
Width: 962
Flags: MW
HStem: 637 125<317 332 332 659 317 317>
VStem: 302 30<132 762 63 762> 620 39<637 761 761 761> 932 30<131 636 636 636>
LayerCount: 2
Fore
SplineSet
302 132 m 1
 302 762 l 1
 332 762 l 1
 332 63 l 1
 331 -31 209 -124 109 -124 c 0
 48 -124 0 -89 0 -30 c 0
 0 67 99 158 222 158 c 0
 255 158 283 148 302 132 c 1
659 762 m 1
 659 637 l 1
 317 637 l 1
 317 762 l 1
 659 762 l 1
620 761 m 1
 962 761 l 1
 962 62 l 1
 961 -32 839 -125 739 -125 c 0
 678 -125 630 -90 630 -31 c 0
 630 66 729 157 852 157 c 0
 885 157 912 147 932 131 c 1
 932 636 l 1
 620 636 l 1
 620 761 l 1
EndSplineSet
EndChar

StartChar: u0266C
Encoding: 9836 9836 5
Width: 963
Flags: MW
HStem: 450 125<310 652 310 652 621 652 652 933 621 621> 637 125<310 332 332 652 310 310 621 652 652 933 621 621>
VStem: 302 30<132 762 63 762> 621 31<450 575 450 575 637 762> 933 30<132 450 450 450 575 637 637 637>
LayerCount: 2
Fore
SplineSet
302 132 m 1
 302 762 l 1
 332 762 l 1
 332 63 l 1
 331 -31 209 -124 109 -124 c 0
 48 -124 0 -89 0 -30 c 0
 0 67 99 158 222 158 c 0
 255 158 283 148 302 132 c 1
621 762 m 1
 963 762 l 1
 963 63 l 1
 962 -31 840 -124 740 -124 c 0
 679 -124 631 -89 631 -30 c 0
 631 67 730 158 853 158 c 0
 886 158 913 148 933 132 c 1
 933 450 l 1
 621 450 l 1
 621 575 l 1
 933 575 l 1
 933 637 l 1
 621 637 l 1
 621 762 l 1
652 575 m 1
 652 450 l 1
 310 450 l 1
 310 575 l 1
 652 575 l 1
652 762 m 1
 652 637 l 1
 310 637 l 1
 310 762 l 1
 652 762 l 1
EndSplineSet
EndChar

StartChar: u0266D
Encoding: 9837 9837 6
Width: 226
Flags: MW
HStem: 100 53<112 136>
VStem: 0 50<411 427.5> 157 69<34 51.5>
LayerCount: 2
Fore
SplineSet
12 -170 m 0
 4 -160 0 411 0 411 c 1
 1 429 17 439 31 439 c 0
 41 439 50 433 50 422 c 0
 50 402 44 162 43 140 c 0
 43 133 47 126 54 123 c 0
 56 122 57 122 59 122 c 0
 68 122 75 131 81 136 c 0
 92 143 104 147 115 150 c 0
 122 152 129 153 136 153 c 0
 182 150 226 114 226 57 c 0
 226 11 195 -50 106 -112 c 0
 81 -129 57 -156 27 -173 c 1
 27 -173 24 -175 21 -175 c 0
 18 -175 15 -174 12 -170 c 0
47 -81 m 2
 47 -86 49 -96 58 -96 c 0
 61 -96 64 -95 68 -93 c 0
 98 -74 127 -42 140 -18 c 0
 152 3 157 24 157 42 c 0
 157 61 151 78 141 89 c 0
 135 96 126 100 116 100 c 0
 108 100 99 98 90 93 c 0
 76 85 50 63 46 51 c 0
 45 47 44 35 44 19 c 0
 44 -21 47 -81 47 -81 c 2
EndSplineSet
EndChar

StartChar: u0266E
Encoding: 9838 9838 7
Width: 169
Flags: MW
HStem: -163 93<45.5 119> 329 12
VStem: 0 37<-66 -64 -64 39 160 170.5 170.5 329> 131 37<-323 -174 -184.5 -170 -29 74 74 76>
LayerCount: 2
Fore
SplineSet
156 186 m 2
 157 187 159 187 160 187 c 0
 164 187 168 184 168 179 c 2
 168 -323 l 2
 168 -330 162 -335 156 -335 c 2
 143 -335 l 2
 136 -335 131 -330 131 -323 c 2
 131 -323 131 -195 131 -174 c 0
 131 -166 124 -163 114 -163 c 0
 85 -163 29 -187 15 -193 c 0
 14 -194 12 -194 12 -194 c 2
 11 -194 9 -195 8 -195 c 0
 3 -195 0 -192 0 -186 c 2
 0 329 l 2
 0 336 5 341 12 341 c 2
 25 341 l 2
 31 341 37 336 37 329 c 2
 37 329 37 179 37 162 c 0
 37 158 41 157 47 157 c 0
 73 157 137 180 137 180 c 2
 138 180 139 181 141 181 c 2
 156 186 l 2
37 39 m 2
 37 -64 l 2
 37 -68 42 -70 49 -70 c 0
 74 -70 131 -47 131 -29 c 2
 131 74 l 2
 131 78 128 79 122 79 c 0
 98 79 37 53 37 39 c 2
EndSplineSet
EndChar

StartChar: u0266F
Encoding: 9839 9839 8
Width: 249
Flags: MW
HStem: 295 11<61 80> 339 11<179 198>
VStem: 50 30<-337 -214 -217 -211.5 171 180 180 201 201 295> 168 30<-293 -168 -171.5 -165 213 222 222 339> 237 12
LayerCount: 2
Fore
SplineSet
237 118 m 2
 237 118 219 111 211 108 c 0
 203 105 198 86 198 79 c 2
 198 -14 l 2
 198 -26 205 -32 211 -32 c 1
 216 -30 237 -22 237 -22 c 2
 239 -21 240 -21 242 -21 c 0
 246 -21 249 -24 249 -29 c 2
 249 -100 l 2
 249 -106 244 -114 237 -117 c 2
 237 -117 216 -125 209 -128 c 0
 202 -131 198 -143 198 -151 c 0
 198 -158 198 -293 198 -293 c 2
 198 -299 192 -304 181 -304 c 0
 174 -304 168 -299 168 -293 c 2
 168 -293 168 -175 168 -168 c 0
 168 -162 163 -150 155 -150 c 0
 154 -150 152 -151 151 -151 c 2
 90 -176 l 2
 85 -178 80 -185 80 -198 c 0
 80 -210 80 -337 80 -337 c 2
 80 -343 73 -348 63 -348 c 0
 56 -348 50 -343 50 -337 c 2
 50 -337 50 -220 50 -214 c 0
 50 -209 45 -198 38 -198 c 0
 37 -198 36 -198 35 -199 c 0
 26 -202 12 -208 12 -208 c 2
 11 -208 9 -209 8 -209 c 0
 3 -209 0 -206 0 -200 c 2
 0 -129 l 2
 0 -123 5 -115 12 -113 c 2
 12 -113 33 -104 39 -102 c 0
 45 -99 50 -90 50 -79 c 2
 50 20 l 2
 50 28 44 38 37 38 c 0
 36 38 35 37 34 37 c 0
 27 33 12 27 12 27 c 2
 11 27 9 26 8 26 c 0
 3 26 0 29 0 35 c 2
 0 106 l 2
 0 112 5 120 12 122 c 2
 12 122 32 130 38 133 c 0
 44 136 50 146 50 160 c 2
 50 201 l 2
 50 241 50 295 50 295 c 2
 50 301 56 306 66 306 c 0
 73 306 80 301 80 295 c 2
 80 295 80 185 80 175 c 0
 80 167 83 155 92 155 c 1
 109 159 143 173 155 180 c 0
 164 186 167 199 168 209 c 0
 168 219 168 339 168 339 c 2
 168 345 174 350 184 350 c 0
 192 350 198 345 198 339 c 2
 198 339 198 227 198 217 c 0
 198 209 205 204 212 204 c 1
 217 205 237 213 237 213 c 2
 239 214 240 214 242 214 c 0
 246 214 249 211 249 206 c 2
 249 135 l 2
 249 129 244 121 237 118 c 2
168 -45 m 0
 170 -36 172 -8 172 19 c 0
 172 46 170 71 168 76 c 0
 166 80 160 82 153 82 c 0
 128 82 82 61 80 44 c 1
 78 36 77 1 77 -30 c 0
 77 -54 78 -76 80 -80 c 0
 81 -83 86 -85 92 -85 c 0
 115 -85 162 -65 168 -45 c 0
EndSplineSet
EndChar

StartChar: uniE000
Encoding: 57344 57344 9
Width: 84
Flags: MW
HStem: 0 21G<70 72>
VStem: 14 30<142 154.5 101.5 228.5 842 855> 49 33<362 379.5 347 429.5 616.5 634.5>
LayerCount: 2
Fore
SplineSet
20 498 m 1
 49 480 82 409 82 350 c 0
 82 344 82 339 81 334 c 0
 74 275 44 181 44 128 c 0
 44 75 67 25 72 17 c 0
 76 12 77 9 77 6 c 0
 77 4 76 3 75 2 c 0
 74 1 73 0 71 0 c 0xc0
 69 0 67 1 63 6 c 0
 41 34 14 92 14 192 c 0
 14 265 49 327 49 397 c 0
 49 462 20 478 2 498 c 1xa0
 30 530 49 556 49 603 c 0
 49 666 14 706 14 805 c 0
 14 905 41 963 63 990 c 0
 67 995 69 997 71 997 c 0
 73 997 74 995 75 994 c 0
 76 994 77 992 77 990 c 0
 77 987 76 984 72 980 c 1
 67 971 44 921 44 869 c 0xc0
 44 815 74 722 81 662 c 0
 82 657 82 651 82 646 c 0
 82 587 49 516 20 498 c 1
EndSplineSet
AlternateSubs2: "'salt' Stilistische Alternativformen lookup 4 subtable" uniE000.salt01 uniE000.salt02 uniE000.salt03 uniE000.salt04
EndChar

StartChar: uniE001
Encoding: 57345 57345 10
Width: 95
Flags: MW
HStem: 0 21G<18 20>
VStem: 8 33<362.5 379.5 616.5 633> 46 30<142 154.5 842 855>
LayerCount: 2
Fore
SplineSet
70 498 m 1
 41 516 8 587 8 646 c 0
 8 651 8 657 9 662 c 0
 16 722 46 815 46 869 c 0
 46 921 23 971 18 980 c 1
 14 984 13 987 13 990 c 0
 13 992 14 994 15 994 c 0
 16 995 17 997 19 997 c 0xa0
 21 997 23 995 27 990 c 0
 49 963 76 905 76 805 c 0
 76 706 41 666 41 600 c 0
 41 534 70 519 88 498 c 1xc0
 70 478 41 462 41 394 c 0
 41 331 76 291 76 192 c 0
 76 92 49 34 27 6 c 0
 23 1 21 0 19 0 c 0
 17 0 16 1 15 2 c 0
 14 3 13 4 13 6 c 0
 13 9 14 12 18 17 c 0
 23 25 46 75 46 128 c 0xa0
 46 181 16 275 9 334 c 0
 8 339 8 344 8 350 c 0
 8 409 41 480 70 498 c 1
EndSplineSet
EndChar

StartChar: uniE002
Encoding: 57346 57346 11
Width: 558
Flags: MW
HStem: -318 1639<455.5 458>
VStem: 0 125<-23 1026 -23 1143 -23 1146>
LayerCount: 2
Fore
SplineSet
0 -140 m 2
 0 1143 l 2
 0 1149 2 1150 7 1150 c 2
 109 1150 l 1
 300 1164 426 1296 435 1307 c 0
 441 1314 450 1321 461 1321 c 1
 466 1319 469 1315 469 1307 c 0
 469 1304 469 1301 468 1297 c 0
 428 1130 285 1056 125 1026 c 1
 125 -23 l 1
 285 -53 428 -127 467 -294 c 0
 468 -298 469 -302 469 -305 c 0
 469 -312 466 -316 458 -318 c 1
 450 -318 441 -311 435 -304 c 0
 426 -293 300 -161 109 -147 c 1
 7 -147 l 2
 2 -147 0 -146 0 -140 c 2
EndSplineSet
EndChar

StartChar: uniE003
Encoding: 57347 57347 12
Width: 469
Flags: MW
HStem: 0 124<0 109 8 109 8 125>
VStem: 0 469<0 285 117 285>
LayerCount: 2
Fore
SplineSet
0 0 m 1
 0 117 l 2
 0 123 2 124 8 124 c 2
 109 124 l 1
 300 138 426 270 436 281 c 1
 441 288 452 295 461 295 c 1
 466 293 469 289 469 281 c 0
 469 278 469 275 468 271 c 0
 428 104 285 30 125 0 c 1
 0 0 l 1
EndSplineSet
EndChar

StartChar: uniE004
Encoding: 57348 57348 13
Width: 469
Flags: MW
HStem: -124 124<5 8 8 109>
VStem: 0 469<-285 0 -285 0>
LayerCount: 2
Fore
SplineSet
0 -117 m 2
 0 0 l 1
 125 0 l 1
 285 -30 428 -104 468 -271 c 0
 469 -275 469 -278 469 -281 c 0
 469 -289 466 -293 461 -295 c 1
 452 -295 441 -288 436 -281 c 1
 426 -270 300 -138 109 -124 c 1
 8 -124 l 2
 2 -124 0 -123 0 -117 c 2
EndSplineSet
EndChar

StartChar: uniE005
Encoding: 57349 57349 14
Width: 469
Flags: MW
HStem: 0 124<360 461 461 464 360 469 344 461>
VStem: 0 469<0 285>
LayerCount: 2
Fore
SplineSet
469 117 m 2
 469 0 l 1
 344 0 l 1
 184 30 41 104 1 271 c 0
 0 275 0 278 0 281 c 0
 0 289 3 293 8 295 c 1
 17 295 28 288 33 281 c 1
 43 270 169 138 360 124 c 1
 461 124 l 2
 467 124 469 123 469 117 c 2
EndSplineSet
EndChar

StartChar: uniE006
Encoding: 57350 57350 15
Width: 469
Flags: MW
HStem: -124 124<360 461 360 360>
VStem: 0 469<-285 -117>
LayerCount: 2
Fore
SplineSet
469 0 m 1
 469 -117 l 2
 469 -123 467 -124 461 -124 c 2
 360 -124 l 1
 169 -138 43 -270 33 -281 c 1
 28 -288 17 -295 8 -295 c 1
 3 -293 0 -289 0 -281 c 0
 0 -278 0 -275 1 -271 c 0
 41 -104 184 -30 344 0 c 1
 469 0 l 1
EndSplineSet
EndChar

StartChar: uniE007
Encoding: 57351 57351 16
Width: 1058
Flags: MW
HStem: -68 1128<8.5 1050.5>
VStem: 0 1058<-52 448 160 448 444 448 448 536 536 540>
LayerCount: 2
Fore
SplineSet
1058 448 m 2
 1058 440 1050 437 1043 433 c 2
 15 -67 l 2
 14 -67 13 -68 12 -68 c 0
 5 -68 0 -59 0 -52 c 2
 0 160 l 2
 0 168 4 177 15 183 c 2
 1043 683 l 2
 1044 684 1046 684 1047 684 c 0
 1054 684 1058 675 1058 668 c 2
 1058 448 l 2
1058 1044 m 2
 1058 824 l 2
 1058 816 1051 812 1043 809 c 2
 15 309 l 2
 14 308 12 308 11 308 c 0
 5 308 0 316 0 324 c 2
 0 536 l 2
 0 544 4 553 15 559 c 2
 1043 1059 l 2
 1044 1060 1046 1060 1047 1060 c 0
 1054 1060 1058 1051 1058 1044 c 2
EndSplineSet
EndChar

StartChar: uniE008
Encoding: 57352 57352 17
Width: 1561
Flags: MW
HStem: -60 1110
VStem: 0 1563<449.5 456 456 533 533 540>
LayerCount: 2
Fore
SplineSet
1563 456 m 2
 1563 443 1554 435 1544 431 c 2
 34 -59 l 2
 31 -60 29 -60 26 -60 c 0
 13 -60 1 -51 1 -36 c 2
 1 138 l 2
 1 151 10 160 20 163 c 2
 1530 653 l 2
 1533 654 1535 654 1538 654 c 0
 1551 654 1563 645 1563 630 c 2
 1563 456 l 2
1563 1026 m 2
 1563 850 l 2
 1563 838 1555 829 1544 826 c 2
 33 336 l 2
 30 335 28 335 25 335 c 0
 12 335 0 344 0 359 c 2
 0 533 l 2
 0 547 12 556 20 559 c 2
 1530 1049 l 2
 1533 1050 1535 1050 1538 1050 c 0
 1551 1050 1563 1041 1563 1026 c 2
EndSplineSet
EndChar

StartChar: uniE009
Encoding: 57353 57353 18
Width: 2319
Flags: MW
HStem: -70 1131
VStem: 0 2319<439 446 446 544 544 551.5>
LayerCount: 2
Fore
SplineSet
2 -44 m 2
 1 139 l 2
 1 148 7 172 24 176 c 2
 2288 665 l 2
 2291 666 2293 666 2295 666 c 0
 2310 666 2319 654 2319 630 c 2
 2319 446 l 2
 2319 432 2308 423 2296 420 c 2
 32 -69 l 2
 30 -69 28 -70 26 -70 c 0
 12 -70 2 -58 2 -44 c 2
2319 1041 m 1
 2318 850 l 2
 2318 833 2314 819 2296 815 c 2
 27 325 l 1
 14 325 0 342 0 360 c 2
 0 544 l 2
 0 559 13 568 23 571 c 2
 2288 1061 l 1
 2293 1061 l 2
 2306 1061 2314 1050 2319 1041 c 1
EndSplineSet
EndChar

StartChar: uniE00A
Encoding: 57354 57354 19
Width: 300
Flags: MW
HStem: 127 374<-151 149>
VStem: -151 300<190 252 252 252 314 315 190 376 376 439 439 439>
LayerCount: 2
Fore
SplineSet
149 376 m 1
 -151 314 l 1
 -151 439 l 1
 149 501 l 1
 149 376 l 1
149 315 m 1
 149 190 l 1
 -151 127 l 1
 -151 252 l 1
 149 315 l 1
EndSplineSet
EndChar

StartChar: uniE00B
Encoding: 57355 57355 20
Width: 526
Flags: MW
HStem: 0 21G<526 526>
VStem: 0 526<0 510.5>
LayerCount: 2
Fore
SplineSet
461 243 m 1
 526 0 l 1
 283 65 l 1
 359 141 l 1
 5 495 l 2
 1 499 0 503 0 508 c 0
 0 513 1 518 5 521 c 0
 9 524 13 526 18 526 c 0
 22 526 27 524 31 521 c 2
 385 167 l 1
 461 243 l 1
EndSplineSet
EndChar

StartChar: uniE00C
Encoding: 57356 57356 21
Width: 526
Flags: MW
HStem: 474 526<15.5 526>
VStem: 0 526<489.5 1000>
LayerCount: 2
Fore
SplineSet
526 1000 m 1
 461 757 l 1
 385 833 l 1
 31 479 l 2
 27 476 22 474 18 474 c 0
 13 474 9 476 5 479 c 0
 1 482 0 487 0 492 c 0
 0 497 1 501 5 505 c 2
 359 859 l 1
 283 935 l 1
 526 1000 l 1
EndSplineSet
EndChar

StartChar: uniE00D
Encoding: 57357 57357 22
Width: 526
Flags: MW
HStem: 0 21G<526 526>
VStem: 0 526<0 511.5>
LayerCount: 2
Fore
SplineSet
385 167 m 1
 461 243 l 1
 526 0 l 1
 283 65 l 1
 359 141 l 1
 5 495 l 2
 1 499 0 504 0 509 c 0
 0 514 1 519 5 523 c 2
 359 877 l 1
 283 953 l 1
 526 1018 l 1
 461 775 l 1
 385 851 l 1
 42 509 l 1
 385 167 l 1
EndSplineSet
EndChar

StartChar: uniE010
Encoding: 57360 57360 23
Width: 500
Flags: MW
HStem: 484 32<0 500 0 500>
VStem: 0 500<484 516 484 516>
LayerCount: 2
Fore
SplineSet
500 484 m 1
 0 484 l 1
 0 516 l 1
 500 516 l 1
 500 484 l 1
EndSplineSet
EndChar

StartChar: uniE011
Encoding: 57361 57361 24
Width: 500
Flags: MW
HStem: 359 32<0 500 0 500> 609 32<0 500 0 500>
VStem: 0 500<359 391 359 391 609 641 359 641>
LayerCount: 2
Fore
SplineSet
500 391 m 1
 500 359 l 1
 0 359 l 1
 0 391 l 1
 500 391 l 1
500 641 m 1
 500 609 l 1
 0 609 l 1
 0 641 l 1
 500 641 l 1
EndSplineSet
EndChar

StartChar: uniE012
Encoding: 57362 57362 25
Width: 500
Flags: MW
HStem: 234 32<0 500 0 500> 484 32<0 500 0 500> 734 32<0 500 0 500>
VStem: 0 500<234 266 234 266 484 516 234 516 734 766>
CounterMasks: 1 e0
LayerCount: 2
Fore
SplineSet
500 516 m 1
 500 484 l 1
 0 484 l 1
 0 516 l 1
 500 516 l 1
500 766 m 1
 500 734 l 1
 0 734 l 1
 0 766 l 1
 500 766 l 1
500 266 m 1
 500 234 l 1
 0 234 l 1
 0 266 l 1
 500 266 l 1
EndSplineSet
EndChar

StartChar: uniE013
Encoding: 57363 57363 26
Width: 500
Flags: MW
HStem: 109 32<0 500 0 500> 359 32<0 500 0 500> 609 32<0 500 0 500> 859 32<0 500 0 500>
VStem: 0 500<109 141 109 141 359 391 109 391 609 641 859 891>
LayerCount: 2
Fore
SplineSet
500 391 m 1
 500 359 l 1
 0 359 l 1
 0 391 l 1
 500 391 l 1
500 641 m 1
 500 609 l 1
 0 609 l 1
 0 641 l 1
 500 641 l 1
500 141 m 1
 500 109 l 1
 0 109 l 1
 0 141 l 1
 500 141 l 1
500 891 m 1
 500 859 l 1
 0 859 l 1
 0 891 l 1
 500 891 l 1
EndSplineSet
EndChar

StartChar: uniE014
Encoding: 57364 57364 27
Width: 500
Flags: MW
HStem: -16 32<0 500 0 500> 234 32<0 500 0 500> 484 32<0 500 0 500> 734 32<0 500 0 500> 984 32<0 500 0 500>
VStem: 0 500<-16 16 -16 16 234 266 -16 266 484 516 734 766 984 1016>
LayerCount: 2
Fore
SplineSet
500 516 m 1
 500 484 l 1
 0 484 l 1
 0 516 l 1
 500 516 l 1
500 766 m 1
 500 734 l 1
 0 734 l 1
 0 766 l 1
 500 766 l 1
500 266 m 1
 500 234 l 1
 0 234 l 1
 0 266 l 1
 500 266 l 1
500 1016 m 1
 500 984 l 1
 0 984 l 1
 0 1016 l 1
 500 1016 l 1
500 16 m 1
 500 -16 l 1
 0 -16 l 1
 0 16 l 1
 500 16 l 1
EndSplineSet
EndChar

StartChar: uniE015
Encoding: 57365 57365 28
Width: 500
Flags: MW
HStem: -141 32<0 500 0 500> 109 32<0 500 0 500> 359 32<0 500 0 500> 609 32<0 500 0 500> 859 32<0 500 0 500> 1109 32<0 500 0 500>
VStem: 0 500<-141 -109 -141 -109 109 141 -141 141 359 391 609 641 859 891 1109 1141>
LayerCount: 2
Fore
SplineSet
500 641 m 1
 500 609 l 1
 0 609 l 1
 0 641 l 1
 500 641 l 1
500 891 m 1
 500 859 l 1
 0 859 l 1
 0 891 l 1
 500 891 l 1
500 391 m 1
 500 359 l 1
 0 359 l 1
 0 391 l 1
 500 391 l 1
500 1141 m 1
 500 1109 l 1
 0 1109 l 1
 0 1141 l 1
 500 1141 l 1
500 141 m 1
 500 109 l 1
 0 109 l 1
 0 141 l 1
 500 141 l 1
500 -109 m 1
 500 -141 l 1
 0 -141 l 1
 0 -109 l 1
 500 -109 l 1
EndSplineSet
EndChar

StartChar: uniE016
Encoding: 57366 57366 29
Width: 750
Flags: MW
HStem: 484 32<0 750 0 750>
VStem: 0 750<484 516 484 516>
LayerCount: 2
Fore
SplineSet
750 484 m 1
 0 484 l 1
 0 516 l 1
 750 516 l 1
 750 484 l 1
EndSplineSet
EndChar

StartChar: uniE017
Encoding: 57367 57367 30
Width: 750
Flags: MW
HStem: 359 32<0 750 0 750> 609 32<0 750 0 750>
VStem: 0 750<359 391 359 391 609 641 359 641>
LayerCount: 2
Fore
SplineSet
750 391 m 1
 750 359 l 1
 0 359 l 1
 0 391 l 1
 750 391 l 1
750 641 m 1
 750 609 l 1
 0 609 l 1
 0 641 l 1
 750 641 l 1
EndSplineSet
EndChar

StartChar: uniE018
Encoding: 57368 57368 31
Width: 750
Flags: MW
HStem: 234 32<0 750 0 750> 484 32<0 750 0 750> 734 32<0 750 0 750>
VStem: 0 750<234 266 234 266 484 516 234 516 734 766 234 766>
CounterMasks: 1 e0
LayerCount: 2
Fore
SplineSet
750 516 m 1
 750 484 l 1
 0 484 l 1
 0 516 l 1
 750 516 l 1
750 766 m 1
 750 734 l 1
 0 734 l 1
 0 766 l 1
 750 766 l 1
750 266 m 1
 750 234 l 1
 0 234 l 1
 0 266 l 1
 750 266 l 1
EndSplineSet
EndChar

StartChar: uniE019
Encoding: 57369 57369 32
Width: 750
Flags: MW
HStem: 109 32<0 750 0 750> 359 32<0 750 0 750> 609 32<0 750 0 750> 859 32<0 750 0 750>
VStem: 0 750<109 141 109 141 359 391 109 391 609 641 109 641 859 891>
LayerCount: 2
Fore
SplineSet
750 391 m 1
 750 359 l 1
 0 359 l 1
 0 391 l 1
 750 391 l 1
750 641 m 1
 750 609 l 1
 0 609 l 1
 0 641 l 1
 750 641 l 1
750 141 m 1
 750 109 l 1
 0 109 l 1
 0 141 l 1
 750 141 l 1
750 891 m 1
 750 859 l 1
 0 859 l 1
 0 891 l 1
 750 891 l 1
EndSplineSet
EndChar

StartChar: uniE01A
Encoding: 57370 57370 33
Width: 750
Flags: MW
HStem: -16 32<0 750 0 750> 234 32<0 750 0 750> 484 32<0 750 0 750> 734 32<0 750 0 750> 984 32<0 750 0 750>
VStem: 0 750<-16 16 -16 16 234 266 -16 266 484 516 -16 516 734 766 984 1016>
LayerCount: 2
Fore
SplineSet
750 516 m 1
 750 484 l 1
 0 484 l 1
 0 516 l 1
 750 516 l 1
750 766 m 1
 750 734 l 1
 0 734 l 1
 0 766 l 1
 750 766 l 1
750 266 m 1
 750 234 l 1
 0 234 l 1
 0 266 l 1
 750 266 l 1
750 1016 m 1
 750 984 l 1
 0 984 l 1
 0 1016 l 1
 750 1016 l 1
750 16 m 1
 750 -16 l 1
 0 -16 l 1
 0 16 l 1
 750 16 l 1
EndSplineSet
EndChar

StartChar: uniE01B
Encoding: 57371 57371 34
Width: 750
Flags: MW
HStem: -141 32<0 750 0 750> 109 32<0 750 0 750> 359 32<0 750 0 750> 609 32<0 750 0 750> 859 32<0 750 0 750> 1109 32<0 750 0 750>
VStem: 0 750<-141 -109 -141 -109 109 141 -141 141 359 391 -141 391 609 641 859 891 1109 1141>
LayerCount: 2
Fore
SplineSet
750 641 m 1
 750 609 l 1
 0 609 l 1
 0 641 l 1
 750 641 l 1
750 891 m 1
 750 859 l 1
 0 859 l 1
 0 891 l 1
 750 891 l 1
750 391 m 1
 750 359 l 1
 0 359 l 1
 0 391 l 1
 750 391 l 1
750 1141 m 1
 750 1109 l 1
 0 1109 l 1
 0 1141 l 1
 750 1141 l 1
750 141 m 1
 750 109 l 1
 0 109 l 1
 0 141 l 1
 750 141 l 1
750 -109 m 1
 750 -141 l 1
 0 -141 l 1
 0 -109 l 1
 750 -109 l 1
EndSplineSet
EndChar

StartChar: uniE01C
Encoding: 57372 57372 35
Width: 250
Flags: MW
HStem: 484 32<0 250 0 250>
VStem: 0 250<484 516 484 516>
LayerCount: 2
Fore
SplineSet
250 484 m 1
 0 484 l 1
 0 516 l 1
 250 516 l 1
 250 484 l 1
EndSplineSet
EndChar

StartChar: uniE01D
Encoding: 57373 57373 36
Width: 250
Flags: MW
HStem: 359 32<0 250 0 250> 609 32<0 250 0 250>
VStem: 0 250<359 391 359 391 609 641>
LayerCount: 2
Fore
SplineSet
250 391 m 1
 250 359 l 1
 0 359 l 1
 0 391 l 1
 250 391 l 1
250 641 m 1
 250 609 l 1
 0 609 l 1
 0 641 l 1
 250 641 l 1
EndSplineSet
EndChar

StartChar: uniE01E
Encoding: 57374 57374 37
Width: 250
Flags: MW
HStem: 234 32<0 250 0 250> 484 32<0 250 0 250> 734 32<0 250 0 250>
VStem: 0 250<234 266 234 266 484 516 734 766>
CounterMasks: 1 e0
LayerCount: 2
Fore
SplineSet
250 516 m 1
 250 484 l 1
 0 484 l 1
 0 516 l 1
 250 516 l 1
250 766 m 1
 250 734 l 1
 0 734 l 1
 0 766 l 1
 250 766 l 1
250 266 m 1
 250 234 l 1
 0 234 l 1
 0 266 l 1
 250 266 l 1
EndSplineSet
EndChar

StartChar: uniE01F
Encoding: 57375 57375 38
Width: 250
Flags: MW
HStem: 109 32<0 250 0 250> 359 32<0 250 0 250> 609 32<0 250 0 250> 859 32<0 250 0 250>
VStem: 0 250<109 141 109 141 359 391 609 641 859 891>
LayerCount: 2
Fore
SplineSet
250 391 m 1
 250 359 l 1
 0 359 l 1
 0 391 l 1
 250 391 l 1
250 641 m 1
 250 609 l 1
 0 609 l 1
 0 641 l 1
 250 641 l 1
250 141 m 1
 250 109 l 1
 0 109 l 1
 0 141 l 1
 250 141 l 1
250 891 m 1
 250 859 l 1
 0 859 l 1
 0 891 l 1
 250 891 l 1
EndSplineSet
EndChar

StartChar: uniE020
Encoding: 57376 57376 39
Width: 250
Flags: MW
HStem: -16 32<0 250 0 250> 234 32<0 250 0 250> 484 32<0 250 0 250> 734 32<0 250 0 250> 984 32<0 250 0 250>
VStem: 0 250<-16 16 -16 16 234 266 484 516 734 766 984 1016>
LayerCount: 2
Fore
SplineSet
250 516 m 1
 250 484 l 1
 0 484 l 1
 0 516 l 1
 250 516 l 1
250 766 m 1
 250 734 l 1
 0 734 l 1
 0 766 l 1
 250 766 l 1
250 266 m 1
 250 234 l 1
 0 234 l 1
 0 266 l 1
 250 266 l 1
250 1016 m 1
 250 984 l 1
 0 984 l 1
 0 1016 l 1
 250 1016 l 1
250 16 m 1
 250 -16 l 1
 0 -16 l 1
 0 16 l 1
 250 16 l 1
EndSplineSet
EndChar

StartChar: uniE021
Encoding: 57377 57377 40
Width: 250
Flags: MW
HStem: -141 32<0 250 0 250> 109 32<0 250 0 250> 359 32<0 250 0 250> 609 32<0 250 0 250> 859 32<0 250 0 250> 1109 32<0 250 0 250>
VStem: 0 250<-141 -109 -141 -109 109 141 359 391 609 641 859 891 1109 1141>
LayerCount: 2
Fore
SplineSet
250 641 m 1
 250 609 l 1
 0 609 l 1
 0 641 l 1
 250 641 l 1
250 891 m 1
 250 859 l 1
 0 859 l 1
 0 891 l 1
 250 891 l 1
250 391 m 1
 250 359 l 1
 0 359 l 1
 0 391 l 1
 250 391 l 1
250 1141 m 1
 250 1109 l 1
 0 1109 l 1
 0 1141 l 1
 250 1141 l 1
250 141 m 1
 250 109 l 1
 0 109 l 1
 0 141 l 1
 250 141 l 1
250 -109 m 1
 250 -141 l 1
 0 -141 l 1
 0 -109 l 1
 250 -109 l 1
EndSplineSet
EndChar

StartChar: uniE022
Encoding: 57378 57378 41
Width: 332
Flags: MW
HStem: -20 40<-80 412 -80 412>
VStem: -80 492<-20 20 -20 20>
LayerCount: 2
Fore
SplineSet
412 -20 m 1
 -80 -20 l 1
 -80 20 l 1
 412 20 l 1
 412 -20 l 1
EndSplineSet
EndChar

StartChar: uniE023
Encoding: 57379 57379 42
Width: 532
Flags: MW
HStem: -20 40<-80 612 -80 612>
VStem: -80 692<-20 20 -20 20>
LayerCount: 2
Fore
SplineSet
612 -20 m 1
 -80 -20 l 1
 -80 20 l 1
 612 20 l 1
 612 -20 l 1
EndSplineSet
EndChar

StartChar: uniE024
Encoding: 57380 57380 43
Width: 132
Flags: MW
HStem: -20 40<-80 212 -80 212>
VStem: -80 292<-20 20 -20 20>
LayerCount: 2
Fore
SplineSet
212 -20 m 1
 -80 -20 l 1
 -80 20 l 1
 212 20 l 1
 212 -20 l 1
EndSplineSet
EndChar

StartChar: uniE030
Encoding: 57392 57392 44
Width: 36
Flags: MW
HStem: 0 21G<0 36 0 0>
VStem: 0 36<0 1000>
LayerCount: 2
Fore
SplineSet
36 0 m 1
 0 0 l 1
 0 1000 l 1
 36 1000 l 1
 36 0 l 1
EndSplineSet
EndChar

StartChar: uniE031
Encoding: 57393 57393 45
Width: 144
Flags: MW
HStem: 0 21G<0 36 0 0 108 108 108 144>
VStem: 0 36<0 1000> 108 36<0 1000 0 1000>
LayerCount: 2
Fore
SplineSet
36 0 m 1
 0 0 l 1
 0 1000 l 1
 36 1000 l 1
 36 0 l 1
144 1000 m 1
 144 0 l 1
 108 0 l 1
 108 1000 l 1
 144 1000 l 1
EndSplineSet
EndChar

StartChar: uniE032
Encoding: 57394 57394 46
Width: 229
Flags: MW
HStem: 0 21G<0 36 0 0 103 103 103 228>
VStem: 0 36<0 1000> 103 125<0 1000 0 1000>
LayerCount: 2
Fore
SplineSet
36 0 m 1
 0 0 l 1
 0 1000 l 1
 36 1000 l 1
 36 0 l 1
228 1000 m 1
 228 0 l 1
 103 0 l 1
 103 1000 l 1
 228 1000 l 1
EndSplineSet
EndChar

StartChar: uniE033
Encoding: 57395 57395 47
Width: 228
Flags: MW
HStem: 0 21G<0 0 0 125 192 192 192 228>
VStem: 0 125<0 1000 0 1000> 192 36<0 1000 0 1000>
LayerCount: 2
Fore
SplineSet
192 0 m 1
 192 1000 l 1
 228 1000 l 1
 228 0 l 1
 192 0 l 1
0 0 m 1
 0 1000 l 1
 125 1000 l 1
 125 0 l 1
 0 0 l 1
EndSplineSet
EndChar

StartChar: uniE034
Encoding: 57396 57396 48
Width: 125
Flags: MW
HStem: 0 21G<0 125 0 0>
VStem: 0 125<0 1000 0 1000>
LayerCount: 2
Fore
SplineSet
125 1000 m 1
 125 0 l 1
 0 0 l 1
 0 1000 l 1
 125 1000 l 1
EndSplineSet
EndChar

StartChar: uniE035
Encoding: 57397 57397 49
Width: 343
Flags: MW
HStem: 0 21G<0 125 0 0 218 218 218 343>
VStem: 0 125<0 1000 0 1000> 218 125<0 1000 0 1000>
LayerCount: 2
Fore
SplineSet
125 1000 m 1
 125 0 l 1
 0 0 l 1
 0 1000 l 1
 125 1000 l 1
343 1000 m 1
 343 0 l 1
 218 0 l 1
 218 1000 l 1
 343 1000 l 1
EndSplineSet
EndChar

StartChar: uniE036
Encoding: 57398 57398 50
Width: 36
Flags: MW
HStem: 0 125<0 36 0 36> 875 125<0 36 0 36>
VStem: 0 36<0 125 0 125 182 471 528 817 875 1000>
LayerCount: 2
Fore
SplineSet
36 875 m 1
 0 875 l 1
 0 1000 l 1
 36 1000 l 1
 36 875 l 1
36 471 m 1
 36 182 l 1
 0 182 l 1
 0 471 l 1
 36 471 l 1
36 817 m 1
 36 528 l 1
 0 528 l 1
 0 817 l 1
 36 817 l 1
36 125 m 1
 36 0 l 1
 0 0 l 1
 0 125 l 1
 36 125 l 1
EndSplineSet
EndChar

StartChar: uniE037
Encoding: 57399 57399 51
Width: 49
Flags: MW
HStem: 0 49<18 31.5> 86 49<18 31.5> 172 50<18 31.5> 259 49<18 31.5> 345 49<18 31.5> 431 49<18 31.5> 517 49<18 31.5> 603 50<18 31.5> 690 49<18 31.5> 776 49<18 31.5> 862 49<18 31.5> 948 49<18 31.5>
VStem: 0 49<18 31.5 104 117.5 190.5 204 276.5 290 362.5 376 449 462.5 535 548.5 621 635 707.5 721 793.5 807 880 893.5 966 979.5>
LayerCount: 2
Fore
SplineSet
25 49 m 0
 38 49 49 38 49 25 c 0
 49 11 38 0 25 0 c 0
 11 0 0 11 0 25 c 0
 0 38 11 49 25 49 c 0
25 135 m 0
 38 135 49 124 49 111 c 0
 49 97 38 86 25 86 c 0
 11 86 0 97 0 111 c 0
 0 124 11 135 25 135 c 0
25 222 m 0
 38 222 49 211 49 197 c 0
 49 184 38 172 25 172 c 0
 11 172 0 184 0 197 c 0
 0 211 11 222 25 222 c 0
25 308 m 0
 38 308 49 297 49 283 c 0
 49 270 38 259 25 259 c 0
 11 259 0 270 0 283 c 0
 0 297 11 308 25 308 c 0
25 394 m 0
 38 394 49 383 49 369 c 0
 49 356 38 345 25 345 c 0
 11 345 0 356 0 369 c 0
 0 383 11 394 25 394 c 0
25 480 m 0
 38 480 49 469 49 456 c 0
 49 442 38 431 25 431 c 0
 11 431 0 442 0 456 c 0
 0 469 11 480 25 480 c 0
25 566 m 0
 38 566 49 555 49 542 c 0
 49 528 38 517 25 517 c 0
 11 517 0 528 0 542 c 0
 0 555 11 566 25 566 c 0
25 653 m 0
 38 653 49 642 49 628 c 0
 49 614 38 603 25 603 c 0
 11 603 0 614 0 628 c 0
 0 642 11 653 25 653 c 0
25 739 m 0
 38 739 49 728 49 714 c 0
 49 701 38 690 25 690 c 0
 11 690 0 701 0 714 c 0
 0 728 11 739 25 739 c 0
25 825 m 0
 38 825 49 814 49 800 c 0
 49 787 38 776 25 776 c 0
 11 776 0 787 0 800 c 0
 0 814 11 825 25 825 c 0
25 997 m 0
 38 997 49 986 49 973 c 0
 49 959 38 948 25 948 c 0
 11 948 0 959 0 973 c 0
 0 986 11 997 25 997 c 0
49 887 m 0
 49 873 38 862 25 862 c 0
 11 862 0 873 0 887 c 0
 0 900 11 911 25 911 c 0
 38 911 49 900 49 887 c 0
EndSplineSet
EndChar

StartChar: uniE038
Encoding: 57400 57400 52
Width: 37
Flags: MW
HStem: 500 500<1 37 1 37>
VStem: 1 36<500 1000>
LayerCount: 2
Fore
SplineSet
37 500 m 1
 1 500 l 1
 1 1000 l 1
 37 1000 l 1
 37 500 l 1
EndSplineSet
EndChar

StartChar: uniE039
Encoding: 57401 57401 53
Width: 36
Flags: MW
HStem: 868 252<0 36 0 36>
VStem: 0 36<868 1120>
LayerCount: 2
Fore
SplineSet
36 868 m 1
 0 868 l 1
 0 1120 l 1
 36 1120 l 1
 36 868 l 1
EndSplineSet
EndChar

StartChar: uniE040
Encoding: 57408 57408 54
Width: 368
Flags: MW
HStem: 0 21G<0 0 0 125 192 192 192 228> 320 100<302.5 330> 572 100<302.5 330>
VStem: 0 125<0 1000 0 1000> 192 36<0 1000 0 1000> 266 100<356 383.5 608 636>
LayerCount: 2
Fore
SplineSet
192 0 m 1
 192 1000 l 1
 228 1000 l 1
 228 0 l 1
 192 0 l 1
0 0 m 1
 0 1000 l 1
 125 1000 l 1
 125 0 l 1
 0 0 l 1
316 320 m 0
 289 320 266 342 266 370 c 0
 266 397 289 420 316 420 c 0
 344 420 366 397 366 370 c 0
 366 342 344 320 316 320 c 0
316 572 m 0
 289 572 266 594 266 622 c 0
 266 650 289 672 316 672 c 0
 344 672 366 650 366 622 c 0
 366 594 344 572 316 572 c 0
EndSplineSet
EndChar

StartChar: uniE041
Encoding: 57409 57409 55
Width: 367
Flags: MW
HStem: 0 21G<139 175 139 139 242 242 242 367> 328 100<37 64.5> 580 100<37 64.5>
VStem: 1 100<364 392 616.5 644> 139 36<0 1000> 242 125<0 1000 0 1000>
LayerCount: 2
Fore
SplineSet
175 0 m 1
 139 0 l 1
 139 1000 l 1
 175 1000 l 1
 175 0 l 1
367 1000 m 1
 367 0 l 1
 242 0 l 1
 242 1000 l 1
 367 1000 l 1
51 680 m 0
 78 680 101 658 101 630 c 0
 101 603 78 580 51 580 c 0
 23 580 1 603 1 630 c 0
 1 658 23 680 51 680 c 0
51 428 m 0
 78 428 101 406 101 378 c 0
 101 350 78 328 51 328 c 0
 23 328 1 350 1 378 c 0
 1 406 23 428 51 428 c 0
EndSplineSet
EndChar

StartChar: uniE042
Encoding: 57410 57410 56
Width: 608
Flags: MW
HStem: 0 21G<139 175 139 139 242 367 242 242 434 434 434 470> 320 100<544.5 572> 328 100<37 64.5> 572 100<544.5 572> 580 100<37 64.5>
VStem: 1 100<364 392 616.5 644> 139 36<0 1000> 242 125<0 1000 0 1000> 434 36<0 1000 0 1000> 508 100<356 383.5 608 636>
LayerCount: 2
Fore
SplineSet
558 572 m 0xab80
 531 572 508 594 508 622 c 0
 508 650 531 672 558 672 c 0
 586 672 608 650 608 622 c 0
 608 594 586 572 558 572 c 0xab80
558 320 m 0
 531 320 508 342 508 370 c 0
 508 397 531 420 558 420 c 0
 586 420 608 397 608 370 c 0
 608 342 586 320 558 320 c 0
434 0 m 1
 434 1000 l 1
 470 1000 l 1
 470 0 l 1
 434 0 l 1
51 428 m 0
 78 428 101 406 101 378 c 0
 101 350 78 328 51 328 c 0
 23 328 1 350 1 378 c 0
 1 406 23 428 51 428 c 0
51 680 m 0
 78 680 101 658 101 630 c 0
 101 603 78 580 51 580 c 0
 23 580 1 603 1 630 c 0
 1 658 23 680 51 680 c 0
367 1000 m 1
 367 0 l 1
 242 0 l 1
 242 1000 l 1
 367 1000 l 1
175 0 m 1
 139 0 l 1
 139 1000 l 1
 175 1000 l 1
 175 0 l 1
EndSplineSet
AlternateSubs2: "'salt' Stilistische Alternativformen lookup 4 subtable" uniE042.salt01
EndChar

StartChar: uniE043
Encoding: 57411 57411 57
Width: 100
Flags: MW
HStem: 318 100<36 63.5> 570 100<36 63.5>
VStem: 0 100<354 382 606.5 634>
LayerCount: 2
Fore
SplineSet
50 670 m 0
 77 670 100 648 100 620 c 0
 100 593 77 570 50 570 c 0
 22 570 0 593 0 620 c 0
 0 648 22 670 50 670 c 0
50 418 m 0
 77 418 100 396 100 368 c 0
 100 340 77 318 50 318 c 0
 22 318 0 340 0 368 c 0
 0 396 22 418 50 418 c 0
EndSplineSet
EndChar

StartChar: uniE044
Encoding: 57412 57412 58
Width: 100
Flags: MW
HStem: 75 100<36 63.5>
VStem: 0 100<111 139>
LayerCount: 2
Fore
SplineSet
50 175 m 0
 77 175 100 153 100 125 c 0
 100 97 77 75 50 75 c 0
 22 75 0 97 0 125 c 0
 0 153 22 175 50 175 c 0
EndSplineSet
EndChar

StartChar: uniE045
Encoding: 57413 57413 59
Width: 1082
Flags: MW
HStem: -9 31<766 816 756 837> -9 113<499.5 531 1009.5 1041> 0 32<11 20 20 36 218 230 230 232 11 20> 401 32<11 20 11 225 203.5 218 218 225 225 233> 411 31<726.5 776 709 781>
VStem: 74 108<86 347 347 365> 356 120<180 261.5 180 283> 459 113<32 63> 599 31<-4 166> 600 69<335.5 348> 877 72<92 102.5> 898 27 969 113<32 63>
LayerCount: 2
Fore
SplineSet
476 221 m 0x36a0
 476 139 446 74 393 37 c 0
 356 11 308 0 232 0 c 2
 11 0 l 1
 11 32 l 1
 20 32 l 2
 52 32 64 35 70 41 c 0
 74 46 74 49 74 86 c 2
 74 347 l 2
 74 385 74 387 70 392 c 0
 64 398 52 401 20 401 c 2
 11 401 l 1
 11 433 l 1
 225 433 l 2
 310 433 354 425 390 401 c 0
 446 364 476 302 476 221 c 0x36a0
356 223 m 0
 356 343 316 401 233 401 c 2
 218 401 l 2
 189 401 182 394 182 365 c 2
 182 71 l 2
 182 40 188 32 218 32 c 2
 230 32 l 2
 320 32 356 91 356 223 c 0
572 47 m 0x55a8
 572 16 547 -9 515 -9 c 0
 484 -9 459 17 459 47 c 0
 459 79 484 104 515 104 c 0
 547 104 572 79 572 47 c 0x55a8
1082 47 m 0
 1082 16 1057 -9 1025 -9 c 0
 994 -9 969 17 969 47 c 0
 969 79 994 104 1025 104 c 0
 1057 104 1082 79 1082 47 c 0
949 134 m 0x8e60
 949 50 884 -9 790 -9 c 0
 742 -9 704 4 667 31 c 1
 630 -4 l 1
 599 -4 l 1
 599 166 l 1
 630 166 l 1
 663 76 722 22 790 22 c 0
 842 22 877 50 877 92 c 0
 877 113 867 131 850 140 c 0
 839 145 829 148 808 153 c 0
 806 153 804 153 802 154 c 0
 800 155 797 155 794 156 c 0
 791 157 788 157 785 158 c 2x96a0
 748 166 l 1
 654 183 600 235 600 308 c 0
 600 388 663 442 755 442 c 0
 797 442 830 433 863 410 c 1
 895 437 l 1
 922 437 l 1
 929 282 l 1
 898 282 l 1x2e50
 862 367 812 411 750 411 c 0
 703 411 669 385 669 348 c 0
 669 323 683 306 710 296 c 0
 725 291 725 293 771 282 c 2
 800 275 l 1
 904 253 949 210 949 134 c 0x8e60
EndSplineSet
EndChar

StartChar: uniE046
Encoding: 57414 57414 60
Width: 1083
Flags: MW
HStem: -9 37<762.5 837> -9 113<499.5 531 1009.5 1041> 0 32<11 20 20 36 218 230 230 232 11 20> 401 32<11 20 11 225 203.5 218 218 225 225 233> 411 31<759 812 725 829>
VStem: 74 108<86 347 347 365> 356 120<180 261.5 180 283> 459 113<32 63> 564 119<180 278.5> 901 61 969 113<32 63>
LayerCount: 2
Fore
SplineSet
476 221 m 0x36c0
 476 139 446 74 393 37 c 0
 356 11 308 0 232 0 c 2
 11 0 l 1
 11 32 l 1
 20 32 l 2
 52 32 64 35 70 41 c 0
 74 46 74 49 74 86 c 2
 74 347 l 2
 74 385 74 387 70 392 c 0
 64 398 52 401 20 401 c 2
 11 401 l 1
 11 433 l 1
 225 433 l 2
 310 433 354 425 390 401 c 0
 446 364 476 302 476 221 c 0x36c0
356 223 m 0
 356 343 316 401 233 401 c 2
 218 401 l 2
 189 401 182 394 182 365 c 2
 182 71 l 2
 182 40 188 32 218 32 c 2
 230 32 l 2
 320 32 356 91 356 223 c 0
974 150 m 1x8ec0
 951 43 890 -9 784 -9 c 0
 713 -9 662 11 621 57 c 0
 583 100 564 149 564 211 c 0
 564 346 659 442 791 442 c 0
 833 442 861 434 901 410 c 1
 933 440 l 1
 959 440 l 1
 965 268 l 1
 933 265 l 1
 906 365 862 411 796 411 c 0
 722 411 683 346 683 222 c 0
 683 90 722 28 803 28 c 0
 872 28 920 76 937 159 c 1
 974 150 l 1x8ec0
572 47 m 0x5520
 572 16 547 -9 515 -9 c 0
 484 -9 459 17 459 47 c 0
 459 79 484 104 515 104 c 0
 547 104 572 79 572 47 c 0x5520
1082 47 m 0
 1082 16 1057 -9 1025 -9 c 0
 994 -9 969 17 969 47 c 0
 969 79 994 104 1025 104 c 0
 1057 104 1082 79 1082 47 c 0
EndSplineSet
EndChar

StartChar: uniE047
Encoding: 57415 57415 61
Width: 557
Flags: MW
HStem: -8 59<341 427> 207 114<67.5 99> 409 114<456.5 488> 665 71<129 135 129 129> 745 14
VStem: 4 71<592.5 600.5> 26 114<248 279.5> 254 136<104 107 80.5 126> 415 114<450.5 482> 489 61<132.5 169.5>
LayerCount: 2
Fore
SplineSet
415 466 m 0xf380
 415 498 441 523 472 523 c 0
 504 523 529 498 529 466 c 0
 529 435 504 409 472 409 c 0
 441 409 415 435 415 466 c 0xf380
140 264 m 0
 140 232 115 207 83 207 c 0
 52 207 26 232 26 264 c 0
 26 295 52 321 83 321 c 0
 115 321 140 295 140 264 c 0
135 665 m 2
 129 665 l 1
 87 658 75 630 75 603 c 0xf540
 75 582 83 561 89 550 c 0
 115 505 266 447 275 444 c 0
 279 442 282 441 285 441 c 0
 289 441 291 444 294 449 c 0
 300 458 459 745 459 745 c 2
 464 754 474 759 484 759 c 0
 488 759 493 758 497 756 c 0
 506 751 512 741 512 731 c 0
 512 726 511 722 508 717 c 2xfd40
 508 717 353 438 348 430 c 0
 347 428 346 426 346 424 c 0
 346 419 351 415 363 408 c 0
 375 402 533 313 548 203 c 0
 549 193 550 183 550 174 c 0
 550 91 497 26 417 -1 c 0
 402 -6 388 -8 375 -8 c 0
 307 -8 262 50 255 93 c 0
 254 98 254 102 254 106 c 0
 254 146 288 162 325 171 c 0
 329 172 333 173 337 173 c 0
 365 173 390 145 390 107 c 2
 390 96 l 2
 390 65 407 51 426 51 c 0
 428 51 431 52 433 52 c 0
 465 57 489 83 489 122 c 0
 489 217 289 276 274 279 c 0
 270 279 262 273 262 274 c 1
 259 268 104 -12 104 -12 c 2
 99 -21 89 -27 79 -27 c 0
 74 -27 70 -26 65 -23 c 0
 56 -18 51 -8 51 2 c 0
 51 6 52 11 54 15 c 2
 54 15 198 274 205 288 c 0
 209 295 211 300 211 304 c 0
 211 308 209 310 205 312 c 0
 197 315 52 404 20 477 c 0
 9 502 4 527 4 551 c 0xf540
 4 650 83 736 153 736 c 0
 204 736 271 719 287 673 c 0
 292 657 295 641 295 626 c 0
 295 598 284 574 255 564 c 0
 244 560 235 559 226 559 c 0
 175 559 160 618 153 645 c 2
 151 652 l 2
 148 663 141 665 135 665 c 2
EndSplineSet
AlternateSubs2: "'salt' Stilistische Alternativformen lookup 4 subtable" uniE047.salt01
EndChar

StartChar: uniE048
Encoding: 57416 57416 62
Width: 954
Flags: MW
HStem: 0 21G<458 458 506 506> 352 48<7 146 14 146 316 458 506 653 818 937>
VStem: 146 170<352 352 352 400> 458 48<-140 0 48 352 400 696 752 881> 653 165<352 352 352 481>
LayerCount: 2
Fore
SplineSet
937 400 m 2
 951 400 955 389 955 376 c 0
 955 363 951 352 937 352 c 2
 818 352 l 1
 808 165 668 13 506 0 c 1
 506 -140 l 2
 506 -154 495 -158 482 -158 c 0
 469 -158 458 -154 458 -140 c 2
 458 0 l 1
 296 13 157 165 146 352 c 1
 14 352 l 2
 0 352 -4 363 -4 376 c 0
 -4 389 0 400 14 400 c 2
 146 400 l 1
 157 589 296 739 458 752 c 1
 458 881 l 2
 458 894 469 898 482 898 c 0
 495 898 506 894 506 881 c 2
 506 752 l 1
 668 739 808 588 818 400 c 1
 937 400 l 2
653 400 m 1
 653 562 646 684 506 696 c 1
 506 400 l 1
 653 400 l 1
458 696 m 1
 316 684 316 562 316 400 c 1
 458 400 l 1
 458 696 l 1
316 352 m 1
 317 198 329 63 458 48 c 1
 458 352 l 1
 316 352 l 1
506 48 m 1
 631 63 650 199 653 352 c 1
 506 352 l 1
 506 48 l 1
EndSplineSet
AlternateSubs2: "'salt' Stilistische Alternativformen lookup 4 subtable" uniE048.salt01
EndChar

StartChar: uniE049
Encoding: 57417 57417 63
Width: 819
Flags: MW
HStem: -7 50<282 387 282 387 435 542 542 545.5 282 435> 350 50<11.5 139 16 139 270 387 435 552 683 807> 688 50<276.5 279 279 387 435 541 153 435>
VStem: 139 131<53 58 58 350 400 679> 387 48<-133 -7 43 350 400 688 738 882> 552 131<58 350 400 675 675 679>
CounterMasks: 1 1c
LayerCount: 2
Fore
SplineSet
807 400 m 2
 815 400 822 391 822 379 c 2
 822 371 l 2
 822 358 815 350 807 350 c 2
 683 350 l 1
 683 10 l 2
 683 0 676 -7 669 -7 c 2
 435 -7 l 1
 435 -133 l 2
 435 -144 427 -154 414 -154 c 2
 408 -154 l 2
 396 -154 387 -144 387 -133 c 2
 387 -7 l 1
 153 -7 l 2
 145 -7 139 0 139 10 c 2
 139 350 l 1
 16 350 l 2
 7 350 0 358 0 371 c 2
 0 379 l 2
 0 391 7 400 16 400 c 2
 139 400 l 1
 139 723 l 2
 139 731 145 738 153 738 c 2
 387 738 l 1
 387 882 l 2
 387 894 396 903 408 903 c 2
 414 903 l 2
 427 903 435 894 435 882 c 2
 435 738 l 1
 669 738 l 2
 676 738 683 731 683 723 c 2
 683 400 l 1
 807 400 l 2
541 688 m 2
 435 688 l 1
 435 400 l 1
 552 400 l 1
 552 675 l 2
 552 683 549 688 541 688 c 2
270 679 m 2
 270 400 l 1
 387 400 l 1
 387 688 l 1
 279 688 l 2
 274 688 270 686 270 679 c 2
282 43 m 2
 387 43 l 1
 387 350 l 1
 270 350 l 1
 270 58 l 2
 270 48 275 43 282 43 c 2
552 58 m 2
 552 350 l 1
 435 350 l 1
 435 43 l 1
 542 43 l 2
 549 43 552 48 552 58 c 2
EndSplineSet
EndChar

StartChar: uniE04A
Encoding: 57418 57418 64
Width: 402
Flags: MW
HStem: -33 36<210 264 210 273.5> 980 51<153.5 207>
VStem: 2 51<419.5 425.5> 6 67<655 659.5> 19 69<897.5 917.5> 313 71<76 127> 332 64<328 397.5> 340 63<572 665>
LayerCount: 2
Fore
SplineSet
202 1031 m 2xcc
 207 1031 l 1xcc
 252 1030 370 1003 370 935 c 0
 370 882 340 873 314 873 c 0
 287 873 265 881 246 926 c 0
 231 963 179 980 164 980 c 0
 143 980 88 971 88 921 c 0
 88 874 189 818 238 791 c 2
 262 778 l 2
 308 752 403 699 403 631 c 0
 403 556 370 530 354 511 c 0
 348 503 346 498 346 494 c 0xc9
 346 488 350 484 354 480 c 2
 357 476 l 2
 365 465 396 424 396 371 c 0
 396 315 349 274 338 261 c 0
 333 255 332 250 332 245 c 0xca
 332 239 335 234 339 229 c 2
 341 226 l 1
 352 215 384 181 384 127 c 2
 384 118 l 1
 380 56 340 -33 207 -33 c 0
 76 -33 35 48 35 79 c 0
 35 111 53 133 84 133 c 0
 114 133 130 116 145 94 c 0
 159 72 183 3 237 3 c 0
 291 3 312 43 313 76 c 0
 313 108 244 167 202 194 c 0
 156 223 2 286 2 403 c 0
 2 448 39 501 45 511 c 0
 48 516 51 520 51 524 c 0xe4
 51 528 48 533 42 540 c 0
 31 553 6 590 6 636 c 0
 6 683 44 729 60 740 c 0
 66 744 69 749 69 755 c 0xd4
 69 759 67 764 63 769 c 2
 60 772 l 1
 48 786 19 820 19 883 c 0
 19 952 81 1031 202 1031 c 2xcc
285 535 m 0
 292 533 298 532 303 532 c 0
 318 532 326 540 335 556 c 0
 339 562 340 569 340 575 c 0
 340 591 330 605 321 611 c 1
 308 622 143 703 134 708 c 0
 131 710 127 711 121 711 c 0
 109 711 92 705 78 684 c 0
 75 678 73 673 73 668 c 0
 73 642 109 623 126 611 c 1xd1
 126 611 259 541 285 535 c 0
276 288 m 0
 282 287 288 286 293 286 c 0
 309 286 319 294 327 312 c 0
 331 319 332 325 332 331 c 0
 332 348 321 364 312 371 c 0
 298 382 125 471 118 475 c 0
 115 477 109 479 102 479 c 0
 89 479 72 472 58 449 c 0
 55 444 53 438 53 433 c 0
 53 406 91 384 109 371 c 1xe2
 109 371 248 295 276 288 c 0
EndSplineSet
EndChar

StartChar: uniE04B
Encoding: 57419 57419 65
Width: 402
Flags: MW
HStem: -33 36<208 262.5 208 272.5> 980 51<152.5 206>
VStem: 1 52<421 426> 4 68<658.5 659> 17 70<908 917.5> 160 28<355 356 339 441 629.5 646.5> 226 29<145 146 141.5 169 141.5 171 322 391 568 634 809 850> 312 70<75 126> 331 64<328.5 399.5> 340 62<572 664.5>
LayerCount: 2
Fore
SplineSet
395 371 m 0xc680
 395 316 347 275 337 261 c 0
 333 255 331 250 331 245 c 0x8080
 331 239 334 234 338 229 c 0
 344 220 382 185 382 126 c 2
 382 119 l 1
 379 56 339 -33 206 -33 c 0
 74 -33 34 49 34 80 c 0
 34 112 51 134 83 134 c 0
 114 134 129 116 143 95 c 0
 158 72 181 3 235 3 c 0
 290 3 311 43 312 75 c 1
 312 75 288 149 260 149 c 0
 257 149 255 147 255 145 c 0
 255 138 249 131 240 131 c 0
 233 131 226 138 226 145 c 2
 226 169 l 2
 226 173 220 180 217 183 c 2
 201 194 l 2
 200 194 197 196 197 196 c 1
 194 196 189 192 189 188 c 2
 189 145 l 2
 189 138 181 131 174 131 c 0
 166 131 160 138 160 145 c 2
 160 206 l 2
 160 212 148 223 143 227 c 0
 80 263 1 318 1 404 c 0
 1 448 39 501 45 512 c 0
 48 517 50 521 50 525 c 0xa7
 50 529 48 534 42 541 c 0
 30 554 4 590 4 636 c 0
 4 682 44 730 60 740 c 0
 65 743 68 748 68 754 c 0x50
 68 758 66 763 60 771 c 1
 48 784 17 817 17 883 c 0
 17 952 79 1031 201 1031 c 2
 206 1031 l 1
 251 1030 368 1003 368 936 c 0
 368 882 339 873 313 873 c 0
 285 873 264 880 244 927 c 0
 229 963 178 980 163 980 c 0
 142 980 87 971 87 921 c 0
 87 895 116 868 150 843 c 0
 151 842 153 841 155 841 c 0
 157 841 159 842 160 844 c 1
 160 850 l 2
 160 858 166 865 174 865 c 0
 181 865 189 858 189 850 c 2
 189 826 l 2
 189 820 192 816 194 815 c 0
 200 811 214 799 222 799 c 0
 225 799 226 805 226 809 c 2
 226 850 l 2
 226 858 233 865 240 865 c 0
 249 865 255 858 255 850 c 2
 255 792 l 2
 255 784 259 778 263 776 c 0
 310 749 402 698 402 631 c 0
 402 557 368 531 353 512 c 0
 347 504 345 499 345 494 c 0x4e40
 345 489 349 482 353 478 c 0
 359 471 395 428 395 371 c 0xc680
226 568 m 2x9640
 226 650 l 2
 226 660 222 663 220 664 c 0
 211 668 195 677 194 677 c 0
 192 677 189 675 189 672 c 1
 188 670 188 655 188 638 c 0
 188 621 188 601 189 589 c 0
 189 583 193 577 195 576 c 0
 201 572 212 563 222 563 c 0
 224 563 226 564 226 568 c 2x9640
76 685 m 0
 73 680 72 675 72 670 c 0
 72 647 100 628 119 616 c 2
 125 612 l 1
 125 612 134 607 148 600 c 1
 152 600 l 2
 156 600 160 601 160 606 c 2
 160 687 l 2
 160 692 154 697 152 698 c 2
 133 707 l 2
 130 709 125 710 118 710 c 0
 106 710 89 705 76 685 c 0
105 374 m 1
 108 372 l 1xa680
 108 372 123 364 145 352 c 0
 147 351 150 350 153 350 c 0
 157 350 160 352 160 355 c 2
 160 441 l 2
 160 450 152 456 149 458 c 0
 131 468 118 474 116 475 c 0
 113 477 108 479 101 479 c 0
 88 479 71 473 58 450 c 0
 55 444 53 438 53 433 c 0
 53 409 85 381 105 374 c 1
188 343 m 0
 188 335 189 330 194 326 c 1
 216 315 l 2
 217 314 218 314 219 314 c 0
 222 314 226 317 226 322 c 2
 226 405 l 2
 226 417 220 422 217 424 c 0
 212 426 201 434 196 434 c 0
 193 434 189 431 189 425 c 1
 188 421 188 369 188 343 c 0
326 312 m 0
 329 319 331 325 331 332 c 0
 331 349 321 365 311 372 c 0
 307 376 290 384 268 396 c 0
 267 397 265 398 263 398 c 0
 259 398 255 396 255 391 c 2
 255 311 l 2
 255 302 257 296 262 294 c 0
 267 291 271 290 273 289 c 0
 280 287 286 286 291 286 c 0
 307 286 316 295 326 312 c 0
284 535 m 1
 291 534 297 533 302 533 c 0
 318 533 327 540 335 557 c 0
 338 563 340 569 340 575 c 0
 340 590 330 605 321 612 c 0
 321 613 282 643 262 643 c 0
 259 643 255 640 255 634 c 2
 255 558 l 2
 255 552 258 545 263 543 c 0
 272 539 280 537 284 535 c 1
EndSplineSet
EndChar

StartChar: uniE04C
Encoding: 57420 57420 66
Width: 371
Flags: MW
HStem: 320 100<302.5 330> 572 100<302.5 330>
VStem: 0 125<125 870 125 870> 192 36<125 870 125 870> 266 100<356 383.5 608 636>
LayerCount: 2
Fore
SplineSet
192 125 m 1
 192 870 l 1
 228 870 l 1
 228 125 l 1
 192 125 l 1
0 125 m 1
 0 870 l 1
 125 870 l 1
 125 125 l 1
 0 125 l 1
316 320 m 0
 289 320 266 342 266 370 c 0
 266 397 289 420 316 420 c 0
 344 420 366 397 366 370 c 0
 366 342 344 320 316 320 c 0
316 572 m 0
 289 572 266 594 266 622 c 0
 266 650 289 672 316 672 c 0
 344 672 366 650 366 622 c 0
 366 594 344 572 316 572 c 0
EndSplineSet
EndChar

StartChar: uniE04D
Encoding: 57421 57421 67
Width: 371
Flags: MW
HStem: 320 100<36 63.5> 572 100<36 63.5>
VStem: 0 100<356 383.5 608 636> 138 36<125 870 125 870> 241 125<125 870 125 870>
LayerCount: 2
Fore
SplineSet
174 870 m 1
 174 125 l 1
 138 125 l 1
 138 870 l 1
 174 870 l 1
366 870 m 1
 366 125 l 1
 241 125 l 1
 241 870 l 1
 366 870 l 1
50 320 m 0
 22 320 0 342 0 370 c 0
 0 397 22 420 50 420 c 0
 77 420 100 397 100 370 c 0
 100 342 77 320 50 320 c 0
50 572 m 0
 22 572 0 594 0 622 c 0
 0 650 22 672 50 672 c 0
 77 672 100 650 100 622 c 0
 100 594 77 572 50 572 c 0
EndSplineSet
EndChar

StartChar: uniE050
Encoding: 57424 57424 68
Width: 674
Flags: MW
HStem: -658 37<328 329.5> -252 36<324.5 390.5> 116 139<431 433 433 435 431 431>
VStem: 7 79 136 204<-504.5 -489.5> 208 65<-12 89> 299 42<711.5 728.5 670.5 818.5> 481 45<-530.5 -446> 534 45<747 890> 595 82<-45 -35 -35 -35>
LayerCount: 2
Fore
SplineSet
677 25 m 1xf340
 677 11 l 2
 677 -101 607 -192 495 -234 c 1
 508 -324 520 -383 520 -383 c 2
 524 -408 526 -431 526 -452 c 0
 526 -609 420 -653 349 -657 c 0
 341 -657 333 -658 326 -658 c 0
 161 -658 136 -555 136 -500 c 0
 136 -479 139 -464 140 -464 c 0
 146 -419 185 -383 231 -380 c 1
 238 -380 l 2
 292 -380 335 -423 340 -475 c 1
 340 -482 l 2
 340 -527 311 -563 270 -576 c 1
 261 -580 254 -580 245 -582 c 0
 240 -584 236 -586 236 -590 c 0
 236 -593 239 -597 245 -601 c 0
 266 -616 294 -621 328 -621 c 2
 347 -621 l 2
 359 -621 481 -619 481 -456 c 0
 481 -436 479 -413 475 -388 c 2
 452 -248 l 1
 450 -248 447 -248 447 -248 c 1xf940
 425 -251 402 -252 379 -252 c 0
 215 -252 26 -175 7 67 c 0
 6 77 6 87 6 97 c 0
 6 290 171 437 318 563 c 1
 306 626 l 1
 301 661 299 695 299 728 c 0
 299 909 365 1060 461 1102 c 1
 461 1102 497 1096 536 1007 c 0
 564 942 579 878 579 815 c 0xf3c0
 579 679 511 548 377 424 c 1
 387 370 398 318 409 253 c 1
 413 255 418 255 422 255 c 2
 433 255 l 2
 561 255 669 154 677 25 c 1xf340
468 943 m 1xf3c0
 389 939 341 780 341 677 c 0
 341 664 341 652 343 641 c 1
 343 635 347 616 351 592 c 1
 458 673 520 758 532 841 c 0
 533 849 534 856 534 863 c 0
 534 917 501 943 468 943 c 1xf3c0
86 16 m 2
 86 8 l 1
 92 -167 270 -216 379 -216 c 0
 407 -216 430 -213 445 -208 c 1
 391 112 l 1
 325 101 273 68 273 -2 c 2
 273 -12 l 1
 275 -53 320 -102 340 -111 c 0
 348 -115 355 -123 355 -129 c 0
 355 -133 351 -137 343 -137 c 0
 338 -137 331 -136 322 -133 c 0
 275 -118 230 -68 214 0 c 0
 210 14 208 29 208 44 c 0xf740
 208 134 279 219 369 246 c 1
 344 402 l 1
 213 305 86 183 86 16 c 2
488 -197 m 1
 558 -167 595 -116 595 -46 c 2
 595 -35 l 1
 591 49 519 116 435 116 c 2
 431 116 l 1
 452 3 472 -106 488 -197 c 1
EndSplineSet
AlternateSubs2: "'ss01' Stilgruppe 1 lookup 0 subtable" uniE050.ss01
EndChar

StartChar: uniE051
Encoding: 57425 57425 69
Width: 671
Flags: MW
HStem: -876 11<304 308> -865 15<115.5 119.5 117 121.5 215 219> -736 22<333 363> -650 17<444 445> -643 35<304 313 289 323.5> -243 36<319.5 384> 121 137<426 430 426 426>
VStem: 5 80<14 196> 134 202<-489.5 -476.5> 206 62<-6 94> 249 33<-855 -815> 295 41<708.5 726> 373 43<-786 -754> 474 45<-500.5 -433> 527 45<745.5 884> 587 81<-37 -28 -28 -28>
LayerCount: 2
Fore
SplineSet
668 31 m 1x6f1d
 668 15 l 2
 668 -95 598 -183 488 -225 c 1
 501 -314 513 -373 513 -373 c 2
 517 -398 519 -421 519 -442 c 0
 519 -559 457 -614 397 -633 c 1
 449 -633 l 1
 450 -634 450 -635 450 -636 c 0
 450 -641 446 -650 444 -650 c 1
 442 -654 438 -656 435 -658 c 1
 431 -663 426 -665 421 -667 c 2
 397 -674 l 1
 368 -680 l 2
 357 -682 349 -682 338 -685 c 0
 333 -687 326 -687 324 -689 c 0
 317 -693 317 -700 317 -706 c 1
 316 -707 315 -710 315 -713 c 0
 315 -715 315 -717 317 -718 c 0
 319 -718 324 -716 326 -716 c 2
 333 -716 l 1
 340 -714 344 -714 351 -714 c 0
 375 -714 381 -720 395 -729 c 0
 406 -736 411 -747 415 -761 c 0
 416 -766 416 -774 416 -782 c 0
 416 -790 416 -799 415 -804 c 0
 408 -829 391 -847 368 -860 c 0
 352 -869 331 -876 310 -876 c 0
 294 -876 278 -872 266 -863 c 0
 256 -856 249 -838 249 -821 c 0
 249 -809 253 -797 264 -791 c 0
 266 -791 268 -791 272 -789 c 1
 287 -789 298 -802 298 -816 c 0
 298 -821 296 -826 293 -831 c 0
 289 -837 282 -839 282 -849 c 0
 282 -861 300 -865 308 -865 c 0
 324 -863 349 -854 366 -798 c 1xb73d
 371 -785 373 -775 373 -767 c 0
 373 -741 353 -736 342 -736 c 0
 324 -736 304 -756 295 -761 c 0
 292 -762 290 -763 288 -763 c 0
 284 -763 280 -761 280 -761 c 2
 278 -760 278 -757 278 -754 c 0
 278 -750 279 -745 280 -743 c 0
 284 -723 291 -704 298 -687 c 0
 302 -676 304 -665 308 -654 c 1
 311 -652 311 -648 313 -643 c 1
 289 -643 l 1
 280 -663 206 -829 206 -837 c 0
 206 -841 211 -850 219 -850 c 0
 222 -850 230 -851 230 -856 c 0
 230 -863 226 -865 219 -865 c 2
 219 -865 122 -865 117 -865 c 0
 114 -865 108 -863 108 -859 c 0
 108 -858 108 -857 109 -856 c 1
 109 -852 111 -850 117 -850 c 0
 126 -850 138 -845 138 -845 c 1
 138 -845 144 -845 153 -829 c 1
 160 -813 189 -736 189 -736 c 1
 189 -736 191 -733 191 -729 c 0
 191 -726 190 -723 185 -723 c 0
 180 -723 176 -725 174 -729 c 1
 169 -733 163 -741 153 -741 c 0
 146 -741 141 -736 141 -731 c 0
 141 -730 141 -728 142 -727 c 0
 149 -720 219 -638 224 -633 c 0
 226 -631 228 -631 228 -629 c 1
 148 -599 134 -530 134 -487 c 0
 134 -466 137 -452 138 -452 c 0
 144 -407 182 -373 228 -369 c 1
 235 -369 l 2
 288 -369 330 -412 336 -463 c 1
 336 -467 l 2
 336 -512 307 -550 266 -563 c 1
 257 -567 251 -567 242 -569 c 0
 237 -571 233 -574 233 -577 c 0
 233 -580 236 -583 242 -587 c 0
 262 -602 288 -608 320 -608 c 0
 327 -608 335 -608 342 -607 c 1
 354 -607 474 -606 474 -443 c 0
 474 -423 472 -402 468 -377 c 2
 446 -238 l 1
 444 -238 442 -238 442 -238 c 1x6f8d
 420 -241 396 -243 372 -243 c 0
 210 -243 25 -166 6 72 c 0
 5 81 5 91 5 100 c 0
 5 292 170 437 313 563 c 1
 302 624 l 1
 298 658 295 692 295 725 c 0
 295 904 359 1053 455 1094 c 1
 455 1094 490 1087 528 1002 c 0
 557 938 572 875 572 813 c 0x6f1f
 572 678 505 547 373 424 c 1
 381 371 393 320 404 256 c 1
 408 258 413 258 417 258 c 2
 430 258 l 2
 556 258 661 159 668 31 c 1x6f1d
464 937 m 2x6f1f
 459 937 l 1
 384 933 336 777 336 675 c 0
 336 662 336 651 338 640 c 1
 338 632 342 615 346 591 c 1
 453 671 513 755 526 838 c 0
 527 845 527 852 527 858 c 0
 527 910 496 937 464 937 c 2x6f1f
85 24 m 2
 85 14 l 1
 90 -159 265 -207 374 -207 c 0
 401 -207 425 -204 440 -199 c 1
 386 116 l 1
 319 105 268 72 268 2 c 2
 268 -6 l 1
 270 -46 315 -95 336 -103 c 0
 344 -107 350 -114 350 -120 c 0
 350 -124 347 -128 338 -128 c 0
 333 -128 326 -127 317 -124 c 0
 270 -110 226 -62 211 8 c 0
 207 22 206 36 206 50 c 0x6f5d
 206 138 274 222 364 250 c 1
 340 402 l 1
 211 308 85 187 85 24 c 2
481 -188 m 1
 552 -159 587 -108 587 -37 c 2
 587 -28 l 1
 583 55 512 121 430 121 c 2
 426 121 l 1
 446 10 466 -99 481 -188 c 1
EndSplineSet
EndChar

StartChar: uniE052
Encoding: 57426 57426 70
Width: 664
Flags: MW
HStem: -865 11<301.5 318> -645 36<338 340 340 345> -244 37<318.5 387 318.5 389.5> 122 139<426 429 429 430 426 426>
VStem: 4 79<15 199.5> 132 202<-491.5 -476> 204 64<-4 94.5> 224 36<-799 -792.5 -799 -786.5> 261 46<-694.5 -669> 295 39<715.5 727> 346 49<-828 -791.5> 386 34<-690 -683 -683 -678.5> 475 44<-507.5 -433 -507.5 -433> 527 45<748.5 890> 587 82<-37 -26 -26 -26>
LayerCount: 2
Fore
SplineSet
669 33 m 1xf95a
 669 17 l 2
 669 -93 599 -183 489 -226 c 1
 503 -315 512 -372 512 -372 c 2
 517 -398 519 -422 519 -444 c 0
 519 -571 446 -623 381 -640 c 1
 402 -647 420 -663 420 -688 c 0
 420 -720 399 -726 390 -736 c 1
 384 -740 382 -744 382 -749 c 0x401a
 382 -753 384 -758 386 -764 c 1
 392 -775 395 -786 395 -797 c 0
 395 -824 379 -849 352 -859 c 0
 338 -865 325 -865 311 -865 c 0
 279 -865 234 -845 225 -809 c 0
 224 -806 224 -803 224 -800 c 0x8120
 224 -773 249 -743 273 -736 c 0
 277 -735 279 -733 279 -731 c 0
 279 -729 278 -727 277 -726 c 0
 266 -714 261 -701 261 -688 c 0x4080
 261 -672 269 -656 283 -645 c 1
 152 -628 132 -536 132 -486 c 0
 132 -466 135 -453 136 -453 c 0
 143 -407 180 -372 228 -370 c 1
 235 -370 l 2
 287 -370 330 -413 334 -464 c 1
 334 -469 l 2
 334 -514 306 -550 265 -564 c 1
 257 -569 250 -569 241 -571 c 0
 236 -572 233 -575 233 -578 c 0
 233 -581 235 -584 241 -589 c 0
 262 -604 291 -609 324 -609 c 2
 340 -609 l 2
 352 -609 475 -607 475 -443 c 0
 475 -423 473 -401 469 -376 c 2
 447 -240 l 1
 445 -240 441 -240 441 -240 c 1
 421 -242 400 -244 379 -244 c 0x6c08
 215 -244 25 -169 5 73 c 0
 4 83 4 93 4 103 c 0
 4 296 167 441 311 566 c 1
 302 629 l 2
 297 664 295 699 295 732 c 0
 295 911 358 1059 455 1101 c 1
 455 1101 492 1094 529 1008 c 0
 557 943 572 879 572 816 c 0x2844
 572 681 505 552 373 428 c 1
 381 374 393 323 404 259 c 1
 408 261 412 261 418 261 c 2
 429 261 l 2
 555 261 662 161 669 33 c 1xf95a
311 -854 m 0x8120
 330 -854 346 -836 346 -820 c 0
 346 -816 346 -811 344 -807 c 0
 338 -793 330 -782 319 -773 c 0
 314 -768 307 -764 304 -760 c 1
 300 -758 295 -752 290 -752 c 0
 283 -752 279 -758 275 -760 c 0
 273 -762 271 -764 271 -768 c 1
 264 -775 260 -787 260 -798 c 0
 260 -800 261 -803 261 -805 c 0
 267 -836 292 -854 311 -854 c 0x8120
386 -690 m 1x4090
 386 -683 l 2
 386 -674 382 -664 377 -661 c 1
 367 -651 352 -645 338 -645 c 1
 323 -647 309 -653 307 -669 c 1
 307 -683 316 -693 325 -702 c 0
 332 -709 340 -718 350 -724 c 0
 355 -727 359 -729 363 -729 c 0
 379 -729 384 -704 386 -690 c 1x4090
463 944 m 1x1844
 384 939 334 778 334 676 c 0
 334 664 335 654 336 644 c 0
 336 638 340 619 346 595 c 1
 453 676 512 759 526 842 c 0
 527 849 527 856 527 863 c 0
 527 917 496 944 463 944 c 1x1844
83 25 m 2
 83 15 l 1
 88 -159 264 -207 373 -207 c 0
 401 -207 424 -204 439 -199 c 1
 386 118 l 1
 319 107 268 74 268 6 c 2
 268 -4 l 1
 271 -44 314 -94 334 -102 c 0
 343 -106 349 -114 349 -120 c 0
 349 -125 345 -128 336 -128 c 0
 331 -128 324 -127 316 -125 c 0
 271 -109 225 -59 209 8 c 0
 206 22 204 36 204 50 c 0x3a02
 204 139 273 225 363 251 c 1
 338 406 l 1
 209 312 83 190 83 25 c 2
482 -187 m 1
 550 -158 587 -107 587 -37 c 2
 587 -26 l 1
 583 57 512 122 430 122 c 2
 426 122 l 1
 447 10 466 -98 482 -187 c 1
EndSplineSet
EndChar

StartChar: uniE053
Encoding: 57427 57427 71
Width: 676
Flags: MW
HStem: -651 36<240 344> -246 36<322 388.5> 122 139<429 429 429 433> 1096 11<479 480 461 484> 1316 18<491 499 499 502.5 489 504>
VStem: 5 79 133 286 206 64<-6 94> 297 41<718 733.5 675.5 820> 420 103 477 103 505 50<1133 1169.5> 531 45<754 894.5> 592 82<-40 -29 -29 -29>
LayerCount: 2
Fore
SplineSet
674 32 m 1x2004
 674 16 l 2x0a04
 674 -96 603 -186 493 -229 c 1
 505 -319 517 -376 517 -376 c 2x2020
 521 -402 523 -426 523 -447 c 0x8040
 523 -603 417 -646 346 -650 c 0
 338 -650 330 -651 322 -651 c 0
 158 -651 133 -551 133 -495 c 0
 133 -473 137 -458 138 -458 c 0
 144 -412 182 -376 229 -374 c 1
 236 -374 l 2
 289 -374 332 -416 337 -469 c 1
 337 -475 l 2
 337 -519 308 -558 267 -569 c 1x82
 259 -574 252 -574 243 -577 c 0
 238 -578 234 -581 234 -584 c 0
 234 -587 237 -590 243 -594 c 0
 264 -610 292 -615 327 -615 c 2
 344 -615 l 2
 356 -615 477 -613 477 -449 c 0
 477 -429 475 -406 471 -381 c 2
 449 -242 l 1
 447 -242 445 -242 445 -242 c 1
 423 -245 400 -246 377 -246 c 0
 213 -246 24 -170 5 72 c 0
 4 82 4 92 4 102 c 0
 4 296 169 442 315 568 c 1
 304 631 l 1
 299 666 297 701 297 735 c 0xc4a0
 297 905 355 1048 443 1100 c 1
 416 1107 389 1125 384 1152 c 0
 383 1156 383 1159 383 1163 c 0x12
 383 1189 406 1218 431 1226 c 0
 436 1228 437 1230 437 1232 c 0
 437 1233 437 1234 436 1235 c 0
 425 1247 420 1260 420 1274 c 0
 420 1296 434 1318 459 1328 c 0x0840
 469 1332 483 1334 495 1334 c 0
 510 1334 580 1324 580 1276 c 0
 580 1242 560 1235 550 1226 c 0
 544 1221 541 1216 541 1211 c 0x0820
 541 1207 543 1202 546 1197 c 0
 552 1186 555 1175 555 1164 c 0
 555 1137 538 1111 510 1100 c 1
 501 1098 489 1096 479 1096 c 1x1010
 493 1082 513 1060 533 1013 c 0
 562 948 576 885 576 822 c 0x1008
 576 686 509 554 376 429 c 1
 384 375 396 324 407 259 c 1
 411 261 416 261 420 261 c 2
 433 261 l 2
 560 261 667 160 674 32 c 1x2004
467 1294 m 1
 467 1278 478 1268 485 1260 c 0
 493 1251 501 1242 510 1237 c 0
 515 1234 519 1232 523 1232 c 0
 539 1232 544 1260 546 1276 c 0
 546 1284 541 1296 537 1302 c 0x0a20
 529 1311 516 1316 504 1316 c 2
 499 1316 l 2
 483 1316 469 1310 467 1294 c 1
420 1157 m 0x1210
 427 1125 451 1107 471 1107 c 0
 489 1107 505 1125 505 1141 c 0
 505 1145 505 1150 503 1154 c 0
 499 1167 489 1179 479 1188 c 1
 475 1193 467 1197 463 1201 c 1
 459 1203 454 1209 449 1209 c 0
 443 1209 438 1203 434 1201 c 0
 431 1199 429 1195 427 1193 c 0
 423 1185 419 1175 419 1164 c 0
 419 1162 420 1159 420 1157 c 0x1210
466 947 m 1x2488
 387 943 338 785 338 682 c 0
 338 669 338 657 340 647 c 1
 340 640 344 622 348 598 c 1
 456 679 517 764 530 846 c 0
 531 853 531 861 531 867 c 0
 531 922 499 947 466 947 c 1x2488
84 24 m 2
 84 14 l 1
 89 -162 267 -210 377 -210 c 0
 405 -210 428 -207 443 -202 c 1
 389 117 l 1
 322 106 270 73 270 4 c 2
 270 -6 l 1
 272 -47 317 -96 337 -105 c 0
 346 -109 352 -117 352 -123 c 0
 352 -127 348 -131 340 -131 c 0
 335 -131 328 -130 319 -127 c 0
 272 -112 227 -63 211 7 c 0
 208 21 206 35 206 49 c 0x6504
 206 139 275 225 366 252 c 1
 342 407 l 1
 211 312 84 190 84 24 c 2
429 122 m 1
 485 -190 l 1
 556 -160 592 -110 592 -40 c 2
 592 -29 l 1
 588 55 517 122 433 122 c 2
 429 122 l 1
EndSplineSet
EndChar

StartChar: uniE054
Encoding: 57428 57428 72
Width: 670
Flags: MW
HStem: -643 37<322 323> -241 36<317 383.5> 122 138<425 429 429 430 425 425> 1064 11<518 522> 1075 16<329 331 331 335.5 328 416> 1204 22<547 561.5> 1262 45<582 635.5>
VStem: 4 79<16 199.5> 132 201<-490.5 -476.5> 204 63<-4 95> 293 41<711.5 728 670.5 805> 404 113 462 50<1121.5 1125> 473 58 485 11 511 153 526 44<747.5 886> 586 81<-35 -26 -26 -26> 587 43<1155 1187>
LayerCount: 2
Fore
SplineSet
667 34 m 1xef2440
 667 20 l 2xef2440
 667 -92 597 -182 487 -224 c 1xef21
 500 -313 511 -371 511 -371 c 2
 515 -397 517 -420 517 -441 c 0xef3040
 517 -595 412 -638 342 -642 c 0
 334 -642 327 -643 319 -643 c 0
 156 -643 132 -542 132 -487 c 0
 132 -466 135 -451 136 -451 c 0
 142 -406 180 -371 227 -368 c 1
 234 -368 l 2
 286 -368 329 -410 333 -462 c 1
 333 -469 l 2
 333 -512 305 -549 265 -562 c 1
 256 -566 249 -566 240 -568 c 0
 235 -570 232 -573 232 -576 c 0
 232 -579 234 -582 240 -586 c 0
 261 -601 289 -606 322 -606 c 2
 340 -606 l 2
 352 -606 473 -605 473 -442 c 0
 473 -422 471 -400 467 -375 c 2
 445 -237 l 1
 442 -237 440 -237 440 -237 c 1xef8440
 418 -240 395 -241 372 -241 c 0
 210 -241 24 -165 5 74 c 0
 4 84 4 94 4 104 c 0
 4 295 167 439 311 564 c 1
 300 627 l 2
 295 661 293 695 293 728 c 0
 293 882 341 1015 416 1075 c 1
 331 1075 l 2
 327 1075 322 1077 322 1084 c 0
 322 1089 325 1091 331 1091 c 0
 340 1091 351 1095 351 1095 c 1
 351 1095 358 1095 367 1111 c 1
 373 1126 402 1204 402 1204 c 1
 402 1204 404 1208 404 1212 c 0
 404 1215 403 1217 398 1217 c 0
 393 1217 389 1215 387 1211 c 1
 382 1206 376 1200 367 1200 c 0
 360 1200 354 1203 354 1208 c 0
 354 1209 355 1211 356 1213 c 0
 362 1220 433 1302 438 1306 c 0
 445 1313 449 1315 453 1315 c 0
 458 1315 465 1311 469 1308 c 0
 476 1304 480 1304 485 1304 c 0xef3040
 491 1304 496 1308 498 1308 c 0
 501 1308 503 1307 503 1304 c 0
 503 1303 503 1302 502 1300 c 1
 502 1295 420 1111 420 1106 c 0
 420 1100 425 1091 433 1091 c 2
 433 1091 436 1091 438 1091 c 2
 453 1097 l 1xef2440
 453 1097 460 1097 471 1086 c 1
 466 1096 462 1108 462 1119 c 0xef2240
 462 1131 466 1143 478 1149 c 0
 480 1149 482 1151 487 1151 c 0
 501 1151 512 1138 512 1124 c 0xef2840
 512 1119 510 1113 507 1109 c 0xef2240
 502 1104 496 1102 496 1090 c 0
 496 1079 514 1075 522 1075 c 0
 538 1077 562 1086 580 1142 c 0
 585 1155 587 1166 587 1174 c 0
 587 1200 567 1204 556 1204 c 0
 538 1204 518 1184 509 1180 c 0
 506 1178 503 1178 501 1178 c 0
 496 1178 493 1180 493 1180 c 2
 491 1181 491 1183 491 1186 c 0
 491 1190 492 1195 493 1197 c 0
 498 1217 505 1235 511 1253 c 1
 516 1264 518 1275 522 1286 c 0
 525 1293 529 1306 538 1306 c 0
 548 1306 594 1307 627 1307 c 0xf72220
 644 1307 657 1307 662 1306 c 0
 663 1305 664 1305 664 1303 c 0
 664 1298 659 1291 658 1291 c 0
 656 1286 651 1284 649 1282 c 0
 644 1277 640 1275 636 1273 c 2
 611 1266 l 2
 602 1264 593 1262 582 1262 c 1xef21
 571 1257 562 1257 551 1255 c 1
 547 1253 540 1253 538 1251 c 0
 531 1246 531 1240 531 1233 c 1
 530 1232 529 1229 529 1227 c 0
 529 1225 529 1224 531 1224 c 1
 532 1223 533 1223 534 1223 c 0
 536 1223 539 1224 540 1224 c 0
 542 1224 545 1224 547 1226 c 1
 564 1226 l 2
 587 1226 595 1221 609 1211 c 0xef2420
 620 1204 624 1193 629 1180 c 1
 630 1174 630 1167 630 1159 c 0
 630 1151 630 1142 629 1135 c 1
 622 1111 604 1093 582 1080 c 0
 566 1071 543 1064 521 1064 c 0
 508 1064 495 1066 485 1073 c 1xf72220
 498 1060 511 1038 527 1004 c 0
 556 940 570 877 570 815 c 0xf720c0
 570 680 503 550 371 427 c 1
 380 373 391 322 402 258 c 1
 407 260 411 260 416 260 c 2
 429 260 l 2
 555 260 660 161 667 34 c 1xef2440
461 940 m 1xef20c0
 382 936 334 779 334 677 c 0
 334 664 334 653 336 642 c 1
 336 635 340 618 345 593 c 1
 451 673 511 758 525 840 c 0
 526 847 526 853 526 859 c 0
 526 913 494 940 461 940 c 1xef20c0
83 25 m 2
 83 16 l 1
 88 -157 263 -205 371 -205 c 0
 399 -205 423 -202 438 -197 c 1
 385 118 l 1
 319 107 267 74 267 5 c 2
 267 -4 l 1
 269 -44 314 -93 333 -102 c 0
 342 -106 348 -114 348 -120 c 0
 348 -124 344 -128 336 -128 c 0
 331 -128 325 -127 316 -124 c 0
 269 -109 225 -60 208 9 c 0
 205 23 204 37 204 51 c 0xef6440
 204 139 272 224 362 251 c 1
 338 404 l 1
 209 311 83 189 83 25 c 2
480 -186 m 1
 550 -156 586 -106 586 -35 c 2
 586 -26 l 1
 582 56 512 122 430 122 c 2
 425 122 l 1
 445 11 465 -97 480 -186 c 1
EndSplineSet
EndChar

StartChar: uniE055
Encoding: 57429 57429 73
Width: 1044
Flags: MW
HStem: -650 36<328 330> -247 36<323.5 392 323.5 392.5 723 761> 119 138<800 804 800 800> 941 158<460 484>
VStem: 9 79 137 203<-495 -482.5> 210 63<-9 91> 299 41<709.5 727.5> 460 146 481 42<-531.5 -413> 533 44<748 887> 594 81<-35 13 -29 13> 668 40<712.5 726.5> 848 44<-525 -439> 901 45<746.5 887> 962 81<-40 -31 -31 -31>
LayerCount: 2
Fore
SplineSet
1043 30 m 1xe92d
 1043 14 l 2
 1043 -98 973 -187 862 -230 c 1
 876 -319 886 -377 886 -377 c 2
 890 -403 892 -427 892 -448 c 0
 892 -602 788 -645 717 -649 c 0
 708 -650 699 -650 691 -650 c 0
 565 -650 524 -588 511 -536 c 1
 481 -621 404 -647 349 -649 c 0
 341 -649 334 -650 326 -650 c 0
 161 -650 137 -548 137 -493 c 0
 137 -472 140 -457 141 -457 c 0
 148 -413 185 -377 232 -374 c 1
 239 -374 l 2
 293 -374 335 -417 340 -469 c 1
 340 -473 l 2
 340 -517 311 -556 270 -569 c 1
 261 -573 255 -573 245 -576 c 0
 240 -577 237 -579 237 -583 c 0
 237 -586 239 -590 245 -594 c 0
 266 -609 293 -614 328 -614 c 2
 347 -614 l 2
 358 -614 481 -612 481 -451 c 0
 481 -430 479 -407 474 -381 c 2
 451 -243 l 1
 449 -243 447 -243 447 -243 c 1xc445
 426 -246 404 -247 381 -247 c 0
 217 -247 28 -171 9 70 c 0
 8 80 8 90 8 100 c 0
 8 293 172 437 317 564 c 1
 306 626 l 1
 302 660 299 693 299 726 c 0
 299 907 364 1058 460 1099 c 1x5980
 460 1099 495 1093 534 1006 c 0
 563 942 577 879 577 816 c 0
 577 680 510 549 377 425 c 1
 386 371 398 320 409 255 c 1
 411 255 411 257 414 257 c 1
 472 375 583 474 686 564 c 1
 675 626 l 1
 670 661 668 696 668 729 c 0
 668 908 733 1058 828 1099 c 1
 828 1099 865 1093 903 1006 c 0
 931 941 946 877 946 814 c 0x102a
 946 679 879 548 746 425 c 1
 754 371 766 320 777 255 c 1
 782 257 786 257 791 257 c 2
 804 257 l 2
 930 257 1036 158 1043 30 c 1xe92d
759 114 m 1x8080
 721 109 690 97 668 74 c 1
 673 58 675 45 675 30 c 2
 675 13 l 2
 675 -14 671 -38 663 -62 c 1
 677 -85 696 -100 708 -106 c 0
 717 -110 723 -118 723 -124 c 0xc054
 723 -129 719 -133 710 -133 c 0
 705 -133 699 -132 690 -129 c 1
 675 -122 659 -113 645 -102 c 1
 629 -131 610 -156 585 -176 c 1
 639 -202 699 -211 747 -211 c 0
 775 -211 798 -208 813 -203 c 1
 759 114 l 1x8080
456 12 m 0
 458 -67 495 -120 545 -154 c 1
 582 -124 594 -82 594 -35 c 2
 594 -29 l 1
 590 -20 585 -6 583 5 c 0
 581 14 578 21 578 30 c 1
 556 72 518 105 472 114 c 1
 460 83 456 47 456 12 c 0
836 941 m 1
 758 937 708 778 708 675 c 0
 708 663 708 651 710 641 c 1
 710 634 715 617 719 592 c 1
 826 673 886 758 900 840 c 0
 901 847 901 854 901 860 c 0
 901 914 869 941 836 941 c 1
712 403 m 1
 645 356 581 299 534 234 c 1
 567 220 599 197 621 167 c 1
 650 206 690 234 737 248 c 1
 712 403 l 1
468 941 m 1
 389 937 340 779 340 676 c 0
 340 663 340 652 342 641 c 1
 342 634 347 617 351 592 c 1
 458 673 518 758 532 840 c 0
 533 847 533 854 533 860 c 0
 533 914 500 941 468 941 c 1
88 21 m 2x192a
 88 12 l 1x6a01
 92 -162 269 -211 378 -211 c 0
 406 -211 429 -208 444 -203 c 1
 424 -89 l 1
 400 -46 382 5 377 70 c 0
 376 76 375 84 375 91 c 0
 375 98 376 105 377 112 c 1
 315 100 273 65 273 2 c 2
 273 -9 l 1
 275 -48 319 -98 340 -106 c 0
 348 -110 354 -119 354 -125 c 0
 354 -130 351 -133 342 -133 c 0
 337 -133 331 -132 322 -129 c 0
 275 -113 230 -64 215 5 c 0
 211 19 210 33 210 47 c 0
 210 135 278 221 368 248 c 1
 344 403 l 1
 215 308 88 185 88 21 c 2x192a
481 -156 m 1
 487 -192 l 1
 493 -187 502 -182 509 -180 c 1
 500 -171 489 -165 481 -156 c 1
696 -614 m 2
 715 -614 l 2
 727 -614 848 -613 848 -449 c 0
 848 -429 846 -406 842 -381 c 2
 820 -243 l 1
 818 -243 816 -243 816 -243 c 1
 795 -246 773 -247 750 -247 c 0
 683 -247 611 -234 550 -203 c 1
 532 -214 514 -223 493 -230 c 1
 507 -319 518 -377 518 -377 c 2
 520 -393 523 -406 523 -420 c 1
 541 -393 569 -377 601 -374 c 1
 608 -374 l 2
 661 -374 703 -417 708 -469 c 1
 708 -474 l 2
 708 -518 681 -556 639 -569 c 0
 629 -573 623 -573 615 -576 c 0
 610 -577 606 -579 606 -583 c 0
 606 -586 609 -590 615 -594 c 0
 635 -609 662 -614 696 -614 c 2
855 -192 m 1
 926 -162 962 -111 962 -40 c 2
 962 -31 l 1
 958 53 887 119 804 119 c 2
 800 119 l 1
 820 7 840 -102 855 -192 c 1
EndSplineSet
EndChar

StartChar: uniE056
Encoding: 57430 57430 74
Width: 844
Flags: MW
HStem: -654 37<325 326.5> -252 36<321 389 321 389> 113 138<428 431 431 432 428 428> 246 92<615 804 615 842> 400 93<615 804 615 842 615 804>
VStem: 8 78 134 203<-501 -486> 207 64<-14 86.5> 297 41<701.5 720 662.5 808> 477 45<-527.5 -444> 529 45<738.5 867> 590 80<-46 -37 -37 -37> 804 38<-170 246 246 246 493 902>
LayerCount: 2
Fore
SplineSet
842 902 m 1xdcd8
 842 400 l 1x44a0
 615 400 l 1
 615 493 l 1
 804 493 l 1
 804 902 l 1x2010
 842 902 l 1xdcd8
842 -170 m 1
 804 -170 l 1
 804 246 l 1
 615 246 l 1
 615 338 l 1
 842 338 l 1
 842 -170 l 1
670 23 m 1
 670 7 l 2x6d18
 670 -103 602 -192 491 -235 c 1
 503 -323 516 -381 516 -381 c 2
 520 -406 522 -429 522 -450 c 0
 522 -605 417 -649 346 -653 c 0
 338 -653 330 -654 323 -654 c 0
 158 -654 134 -551 134 -496 c 0
 134 -476 137 -462 138 -462 c 0
 146 -417 183 -381 230 -378 c 1
 235 -378 l 2
 289 -378 333 -421 337 -473 c 1
 337 -479 l 2x14a0
 337 -523 308 -560 269 -572 c 1
 259 -577 252 -577 243 -580 c 0
 238 -581 235 -584 235 -587 c 0
 235 -590 237 -593 243 -597 c 0
 265 -612 291 -617 325 -617 c 2
 344 -617 l 2
 356 -617 477 -615 477 -454 c 0
 477 -434 475 -411 471 -386 c 2
 448 -248 l 2
 447 -248 443 -248 443 -248 c 1
 422 -251 400 -252 378 -252 c 0
 215 -252 27 -176 8 64 c 0
 7 74 7 84 7 94 c 0
 7 285 170 430 314 555 c 1
 304 617 l 1
 300 651 297 685 297 718 c 0
 297 898 361 1048 457 1089 c 1
 457 1089 492 1083 531 996 c 0
 560 932 574 869 574 806 c 0
 574 671 507 541 375 418 c 1
 384 364 395 313 406 248 c 1
 411 251 415 251 420 251 c 2xc250
 431 251 l 2
 557 251 664 150 670 23 c 1
462 931 m 1
 386 927 338 771 338 669 c 0
 338 656 338 644 340 633 c 1
 340 626 343 610 348 589 c 0
 348 588 349 586 349 585 c 1
 456 664 516 749 528 831 c 0
 529 836 529 842 529 847 c 0
 529 887 511 931 462 931 c 1
86 13 m 2
 86 5 l 1
 91 -169 267 -216 375 -216 c 0
 403 -216 426 -213 441 -208 c 1
 389 109 l 1
 322 98 271 64 271 -4 c 2
 271 -14 l 1
 273 -54 316 -103 337 -112 c 0
 345 -116 352 -124 352 -130 c 0
 352 -134 348 -137 340 -137 c 0
 335 -137 328 -136 319 -133 c 0
 273 -119 228 -69 213 -1 c 0
 209 13 207 28 207 42 c 0
 207 131 276 214 366 242 c 1
 341 394 l 1
 212 300 86 179 86 13 c 2
483 -196 m 1
 554 -166 590 -116 590 -46 c 2
 590 -37 l 1
 587 48 515 113 432 113 c 2
 428 113 l 1x1008
 448 2 468 -108 483 -196 c 1
EndSplineSet
EndChar

StartChar: uniE057
Encoding: 57431 57431 75
Width: 664
Flags: MW
HStem: -898 12<235 235.5 235 236 235 235.5> -865 11<298.5 315> -645 36<335 337 337 342> -244 37<315.5 384 315.5 386.5> 122 139<423 426 426 427 423 423>
VStem: 1 79<15 199.5> 129 202<-491.5 -476> 148 38<-788.5 -734.5> 201 64<-4 94.5> 221 36<-799 -792.5 -799 -786.5> 258 46<-694.5 -669> 292 39<715.5 727> 343 49<-828 -791.5> 383 34<-690 -683 -683 -678.5> 411 158 462 38<-790.5 -735 -790.5 -733> 472 44<-496 -433 -496 -433> 584 82<-37 -26 -26 -26>
LayerCount: 2
Fore
SplineSet
584 -37 m 2x7d52
 584 -26 l 1
 580 57 509 122 427 122 c 2
 423 122 l 1
 444 10 463 -98 479 -187 c 1
 547 -158 584 -107 584 -37 c 2x7d52
80 25 m 2x1411
 80 15 l 1
 85 -159 261 -207 370 -207 c 0
 398 -207 421 -204 436 -199 c 1
 383 118 l 1
 316 107 265 74 265 6 c 2
 265 -4 l 1
 268 -44 311 -94 331 -102 c 0
 340 -106 346 -114 346 -120 c 0
 346 -125 342 -128 333 -128 c 0x360080
 328 -128 321 -127 313 -125 c 0
 268 -109 222 -59 206 8 c 0
 203 22 201 36 201 50 c 0
 201 139 270 225 360 251 c 1
 335 406 l 1
 206 312 80 190 80 25 c 2x1411
460 944 m 1
 381 939 331 778 331 676 c 0
 331 664 332 654 333 644 c 0
 333 638 337 619 343 595 c 1
 450 676 509 759 523 842 c 0
 524 849 524 856 524 863 c 0
 524 917 493 944 460 944 c 1
383 -690 m 1
 383 -683 l 2
 383 -674 379 -664 374 -661 c 1
 364 -651 349 -645 335 -645 c 1
 320 -647 306 -653 304 -669 c 1
 304 -683 313 -693 322 -702 c 0
 329 -709 337 -718 347 -724 c 0xa120
 352 -727 356 -729 360 -729 c 0
 376 -729 381 -704 383 -690 c 1
308 -854 m 0
 327 -854 343 -836 343 -820 c 0
 343 -816 343 -811 341 -807 c 0x4048
 335 -793 327 -782 316 -773 c 0
 311 -768 304 -764 301 -760 c 1
 297 -758 292 -752 287 -752 c 0
 280 -752 276 -758 272 -760 c 0
 270 -762 268 -764 268 -768 c 1
 261 -775 257 -787 257 -798 c 0
 257 -800 258 -803 258 -805 c 0
 264 -836 289 -854 308 -854 c 0
415 261 m 2
 426 261 l 2
 552 261 659 161 666 33 c 1
 666 17 l 2
 666 -93 596 -183 486 -226 c 1
 500 -315 509 -372 509 -372 c 2
 514 -398 516 -422 516 -444 c 0
 516 -548 467 -602 413 -627 c 1
 473 -660 500 -707 500 -763 c 0
 500 -818 474 -866 413 -899 c 0
 413 -900 413 -900 412 -900 c 2
 411 -898 l 1x4048
 411 -891 l 2
 411 -889 412 -888 413 -887 c 0
 448 -859 462 -823 462 -763 c 0
 462 -703 449 -666 413 -639 c 0
 411 -638 411 -635 411 -635 c 1
 411 -635 411 -631 411 -629 c 2
 411 -628 l 1
 400 -633 389 -637 378 -640 c 1x2024
 399 -647 417 -663 417 -688 c 0
 417 -720 396 -726 387 -736 c 1
 381 -740 379 -744 379 -749 c 0
 379 -753 381 -758 383 -764 c 1
 389 -775 392 -786 392 -797 c 0
 392 -824 376 -849 349 -859 c 0
 335 -865 322 -865 308 -865 c 0x2012
 276 -865 231 -845 222 -809 c 0
 221 -806 221 -803 221 -800 c 0
 221 -773 246 -743 270 -736 c 0
 274 -735 276 -733 276 -731 c 0
 276 -729 275 -727 274 -726 c 0
 263 -714 258 -701 258 -688 c 0
 258 -672 266 -656 280 -645 c 1
 264 -643 249 -640 236 -635 c 1
 236 -636 235 -637 235 -637 c 1
 199 -664 186 -700 186 -761 c 0
 186 -822 200 -858 235 -886 c 0
 236 -886 237 -887 237 -889 c 2
 237 -896 l 2
 237 -897 236 -898 236 -898 c 2
 235 -898 235 -898 235 -898 c 1
 174 -864 148 -816 148 -761 c 0
 148 -708 172 -664 224 -631 c 1
 143 -599 129 -528 129 -486 c 0
 129 -466 132 -453 133 -453 c 0
 140 -407 177 -372 225 -370 c 1
 232 -370 l 2
 284 -370 327 -413 331 -464 c 1
 331 -469 l 2
 331 -514 303 -550 262 -564 c 1
 254 -569 247 -569 238 -571 c 0
 233 -572 230 -575 230 -578 c 0x3c80c0
 230 -581 232 -584 238 -589 c 0
 259 -604 288 -609 321 -609 c 2
 337 -609 l 2
 349 -609 472 -607 472 -443 c 0
 472 -423 470 -401 466 -376 c 2
 444 -240 l 1
 442 -240 438 -240 438 -240 c 1
 418 -242 397 -244 376 -244 c 0
 212 -244 22 -169 2 73 c 0
 1 83 1 93 1 103 c 0
 1 296 164 441 308 566 c 1
 299 629 l 2
 294 664 292 699 292 732 c 0
 292 911 355 1059 452 1101 c 1
 452 1101 489 1094 526 1008 c 0
 554 943 569 879 569 816 c 0x2005
 569 681 502 552 370 428 c 1
 378 374 390 323 401 259 c 1
 405 261 409 261 415 261 c 2
EndSplineSet
EndChar

StartChar: uniE058
Encoding: 57432 57432 76
Width: 692
Flags: MW
HStem: -661 14<155 279 279 349 349 352 155 279> -254 36<325.5 392.5> 116 140<435 438 438 479>
VStem: 6 81<8 193> 212 63<-13 89> 302 41<714 731 673 822.5> 485 45<-533 -451> 539 43<752 893> 600 82<-46.5 6.5>
LayerCount: 2
Fore
SplineSet
682 26 m 1
 682 10 l 2
 682 -103 611 -193 499 -236 c 1
 512 -327 523 -385 523 -385 c 2
 528 -410 530 -435 530 -455 c 0
 530 -611 424 -656 352 -661 c 1
 155 -661 l 1
 155 -647 l 1
 155 -647 223 -647 279 -647 c 2
 349 -647 l 2
 361 -647 485 -627 485 -462 c 0
 485 -440 483 -417 478 -390 c 2
 472 -357 l 2
 453 -253 453 -250 449 -250 c 2
 449 -250 444 -250 439 -250 c 0xf680
 420 -252 402 -254 383 -254 c 0
 218 -254 29 -178 8 66 c 0
 8 76 6 87 6 96 c 0
 6 290 173 439 320 566 c 1
 309 629 l 2
 304 663 302 697 302 731 c 0
 302 914 367 1065 465 1108 c 1
 465 1108 501 1101 540 1013 c 0
 569 948 582 884 582 821 c 0xf780
 582 683 514 550 381 426 c 1
 413 254 l 1
 417 256 422 256 426 256 c 2
 438 256 l 2
 566 256 675 155 682 26 c 1
474 948 m 1xf780
 392 943 343 783 343 679 c 0
 343 667 343 656 345 645 c 1
 345 638 349 620 354 595 c 1
 462 676 523 762 537 846 c 1
 537 853 539 859 539 866 c 0
 539 920 505 948 474 948 c 1xf780
87 17 m 2
 87 8 l 1
 92 -168 270 -218 381 -218 c 0
 408 -218 433 -214 449 -209 c 1
 395 112 l 1
 327 100 275 66 275 -4 c 2
 275 -13 l 1
 277 -53 322 -103 343 -112 c 1
 349 -117 356 -123 356 -130 c 0
 356 -135 354 -139 345 -139 c 0
 340 -139 334 -137 325 -135 c 0
 277 -119 232 -69 216 1 c 0
 212 15 212 30 212 44 c 0xfe80
 212 134 279 220 372 247 c 1
 347 403 l 1
 216 308 87 184 87 17 c 2
435 116 m 1
 492 -198 l 1
 564 -166 600 -114 600 -35 c 0
 600 48 523 116 435 116 c 1
EndSplineSet
EndChar

StartChar: uniE059
Encoding: 57433 57433 77
Width: 685
Flags: MW
HStem: -657 36<309.5 330> -253 36<327 384.5 327 389.5> 117 140<434 476.5>
VStem: 7 81 137 203<-495.5 -484> 209 65<-10 43 -10 88> 300 40 339 9 480 46<-529 -451.5> 596 81<-44 -35 -35 -35>
LayerCount: 2
Fore
SplineSet
578 833 m 0xd2c0
 578 825 579 817 579 810 c 0
 579 641 473 527 378 424 c 1
 388 368 398 318 407 256 c 1
 434 257 l 1
 563 257 670 155 677 27 c 1
 677 13 l 2
 677 -101 606 -193 494 -235 c 1
 510 -325 520 -382 520 -382 c 2
 523 -400 525 -416 525 -432 c 0
 525 -439 526 -445 526 -451 c 0
 526 -607 420 -653 350 -656 c 0
 342 -656 334 -657 326 -657 c 0
 170 -657 141 -565 138 -508 c 0
 138 -503 137 -498 137 -493 c 0
 137 -475 140 -463 140 -463 c 1
 146 -418 184 -383 234 -380 c 1
 239 -380 l 2
 291 -380 337 -421 340 -475 c 1
 340 -482 l 2
 340 -527 312 -562 269 -575 c 0xf8c0
 262 -578 253 -580 245 -581 c 0
 241 -582 237 -585 237 -589 c 0
 237 -592 240 -595 246 -599 c 0
 267 -615 292 -621 327 -621 c 0
 335 -621 343 -621 351 -620 c 0
 374 -619 480 -609 480 -455 c 0
 480 -448 479 -441 479 -434 c 0
 479 -419 477 -403 474 -386 c 2
 453 -248 l 1
 411 -252 l 2
 402 -252 394 -253 385 -253 c 0
 220 -253 28 -178 9 66 c 1
 8 78 l 2
 8 84 7 91 7 97 c 0
 7 291 173 435 318 563 c 1
 308 625 l 2
 305 647 302 669 301 691 c 0
 300 704 300 717 300 730 c 0
 300 911 365 1059 462 1103 c 0
 463 1103 467 1104 471 1104 c 2
 475 1104 l 2
 483 1104 493 1101 495 1091 c 1
 495 1077 l 2
 495 1048 490 1003 485 978 c 0
 479 952 472 944 466 944 c 0
 390 938 340 779 340 677 c 2
 340 663 l 2
 340 656 341 649 342 643 c 1
 342 636 346 617 350 590 c 1
 457 673 520 759 533 841 c 0
 534 852 544 857 556 858 c 1
 569 858 578 845 578 833 c 0xd2c0
88 8 m 1
 88 1 l 1
 97 -169 273 -217 381 -217 c 0
 388 -217 394 -216 400 -216 c 0
 419 -215 435 -212 446 -209 c 1
 393 112 l 1
 324 99 274 66 274 -2 c 2
 274 -10 l 1
 276 -51 304 -87 339 -111 c 1
 339 -111 348 -122 348 -129 c 0
 348 -133 347 -135 341 -135 c 0
 337 -135 331 -135 322 -132 c 0
 275 -117 231 -69 214 2 c 0
 212 13 210 24 209 35 c 1
 209 43 l 2xf5c0
 209 133 276 219 370 247 c 1
 343 403 l 1
 214 308 88 184 88 18 c 2
 88 8 l 1
488 -195 m 1
 558 -166 596 -116 596 -46 c 2
 596 -35 l 1
 591 49 519 117 434 117 c 1
 451 6 471 -106 488 -195 c 1
EndSplineSet
EndChar

StartChar: uniE05A
Encoding: 57434 57434 78
Width: 669
Flags: MW
HStem: -657 37<321 322.5> -252 36<319.5 385.5> 117 140<427 430 426 491>
VStem: 1 79 130 109 202 64<-10 90.5> 239 94 258 39 332 9 471 47<-529 -442> 496 52<773 894.5> 588 81<-44 -34 -34 -34>
LayerCount: 2
Fore
SplineSet
588 -45 m 2xf250
 588 -34 l 1
 584 50 512 117 430 117 c 2
 426 117 l 1
 444 6 464 -106 480 -195 c 1
 550 -165 588 -115 588 -45 c 2xf250
80 18 m 2
 80 8 l 1
 85 -167 265 -216 374 -216 c 0
 401 -216 423 -213 438 -208 c 1
 385 112 l 1
 317 99 266 67 266 -2 c 2
 266 -10 l 1
 268 -51 296 -87 332 -111 c 1
 332 -111 341 -122 341 -129 c 0
 341 -132 339 -135 333 -135 c 0
 329 -135 323 -134 315 -131 c 0
 267 -116 223 -68 207 3 c 0
 203 17 202 32 202 46 c 0xf4b0
 202 135 270 219 362 247 c 1
 336 403 l 1
 206 308 80 184 80 18 c 2
400 256 m 1
 427 257 l 1
 555 257 662 155 669 27 c 1
 669 13 l 2
 669 -101 598 -193 486 -235 c 1
 502 -324 512 -382 512 -382 c 2
 516 -407 518 -430 518 -451 c 0
 518 -607 413 -652 342 -656 c 0
 334 -656 326 -657 319 -657 c 0
 152 -657 130 -553 130 -497 c 0
 130 -477 133 -463 133 -463 c 2xf850
 138 -417 177 -382 227 -380 c 1
 233 -380 l 2
 285 -380 330 -420 333 -474 c 1
 333 -479 l 2
 333 -525 305 -561 261 -575 c 0xf250
 254 -578 245 -580 237 -580 c 1
 233 -582 230 -584 230 -588 c 0
 230 -591 232 -594 238 -598 c 0
 259 -615 286 -620 321 -620 c 2
 342 -620 l 1
 361 -619 471 -612 471 -452 c 0
 471 -432 470 -411 466 -386 c 2
 445 -248 l 1
 440 -248 l 1
 419 -251 397 -252 374 -252 c 0
 210 -252 19 -176 1 66 c 0
 0 76 0 86 0 96 c 0
 0 290 164 435 310 563 c 1
 294 667 265 878 258 915 c 1
 227 911 191 906 160 903 c 1xf150
 239 1259 l 1xf850
 393 931 l 1
 297 920 l 1
 300 868 334 642 342 591 c 1xf150
 426 657 469 728 479 766 c 0
 491 814 496 849 496 876 c 0
 496 913 487 935 479 955 c 2
 475 966 l 1
 517 936 548 871 548 786 c 0
 548 760 545 733 539 704 c 0
 514 584 449 500 371 424 c 1
 373 414 l 1
 382 362 391 314 400 256 c 1
EndSplineSet
EndChar

StartChar: uniE05B
Encoding: 57435 57435 79
Width: 673
Flags: MW
HStem: -253 36<323.5 390> 117 139<430 431 431 472.5>
VStem: 5 79 206 65<-11 90> 297 39<713 728> 336 9 473 46<-404 -398> 531 45<727 890> 592 81<-44.5 -35 -35 -35>
LayerCount: 2
Fore
SplineSet
466 944 m 1xea80
 386 937 336 779 336 677 c 0
 336 665 336 653 338 643 c 0
 339 636 343 617 346 590 c 1
 454 673 517 758 529 841 c 0
 530 849 531 856 531 863 c 0
 531 917 498 944 466 944 c 1xea80
84 18 m 2
 84 8 l 1xea80
 89 -168 269 -217 378 -217 c 0
 405 -217 428 -214 442 -209 c 1
 389 112 l 1
 321 99 271 66 271 -3 c 2
 271 -11 l 1
 273 -52 300 -87 336 -111 c 1
 336 -111 345 -123 345 -130 c 0
 345 -134 343 -136 337 -136 c 0
 333 -136 327 -135 319 -132 c 0xeb80
 271 -117 227 -69 211 2 c 0
 207 16 206 31 206 45 c 0
 206 135 274 218 366 247 c 1
 340 403 l 1
 210 307 84 184 84 18 c 2
482 -183 m 1xeb80
 484 -196 l 1
 554 -166 592 -116 592 -46 c 2
 592 -35 l 1
 588 49 515 117 430 117 c 1
 447 11 466 -95 482 -183 c 1xeb80
449 -249 m 1
 444 -249 l 1
 423 -251 401 -253 379 -253 c 0
 215 -253 24 -178 5 66 c 0
 4 76 4 86 4 96 c 0
 4 290 168 434 315 562 c 1
 304 625 l 1
 299 661 297 696 297 730 c 0
 297 910 362 1060 458 1103 c 1
 458 1103 499 1089 534 1007 c 1
 564 934 576 870 576 812 c 0
 576 642 470 527 375 423 c 1
 385 368 394 317 404 256 c 1
 431 256 l 2
 559 256 666 154 673 26 c 1
 673 12 l 2
 673 -101 603 -193 491 -235 c 1
 509 -345 515 -372 519 -398 c 1xf680
 612 -387 l 1
 533 -743 l 1
 379 -415 l 1
 473 -404 l 1
 466 -352 457 -300 449 -249 c 1
EndSplineSet
EndChar

StartChar: uniE05C
Encoding: 57436 57436 80
Width: 699
Flags: MW
HStem: -503 27<419.5 483 419.5 545> -89 37<468 509> 52 37<468 509 443 565> 476 27<428 483>
VStem: 0 128<-480 480> 187 43<-482 -38 37 481> 284 146<-387 -371.5 371.5 385> 558 141<-328 -213 -328 -209 -328 -169.5 212 327>
LayerCount: 2
Fore
SplineSet
699 -271 m 0
 699 -385 617 -503 473 -503 c 0
 328 -503 284 -433 284 -392 c 0
 284 -351 317 -305 360 -305 c 0
 403 -305 430 -328 430 -367 c 0
 430 -407 392 -432 387 -435 c 0
 383 -438 372 -442 372 -447 c 0
 372 -449 373 -450 376 -453 c 0
 385 -462 399 -476 440 -476 c 0
 526 -476 558 -391 558 -328 c 2
 558 -209 l 2
 558 -130 542 -89 476 -89 c 0
 410 -89 385 -130 369 -180 c 0
 362 -201 354 -209 347 -209 c 0
 337 -209 328 -194 325 -180 c 0
 298 -61 259 -41 230 -38 c 1
 230 -482 l 2
 230 -494 221 -503 209 -503 c 0
 196 -503 187 -494 187 -482 c 2
 187 481 l 2
 187 494 196 503 209 503 c 0
 221 503 230 494 230 481 c 2
 230 37 l 1
 259 41 298 60 325 180 c 0
 328 194 337 209 347 209 c 0
 354 209 362 201 369 180 c 0
 385 130 410 89 476 89 c 0
 542 89 558 130 558 208 c 2
 558 328 l 2
 558 390 526 476 440 476 c 0
 416 476 394 471 374 451 c 0
 372 450 372 448 372 447 c 0
 372 441 386 437 389 434 c 0
 398 427 430 403 430 367 c 0
 430 328 403 305 360 305 c 0
 317 305 284 351 284 392 c 0
 284 433 328 503 473 503 c 0
 617 503 699 385 699 269 c 0
 699 155 638 52 492 52 c 0
 444 52 428 68 414 68 c 0
 398 68 382 41 373 28 c 1
 366 14 362 9 362 0 c 0
 362 -11 370 -19 373 -29 c 1
 375 -32 l 2
 384 -47 399 -70 414 -70 c 0
 428 -70 444 -52 492 -52 c 0
 638 -52 699 -155 699 -271 c 0
128 480 m 2
 128 -480 l 2
 128 -492 118 -503 105 -503 c 2
 23 -503 l 2
 11 -503 0 -492 0 -480 c 2
 0 480 l 2
 0 492 11 503 23 503 c 2
 105 503 l 2
 118 503 128 492 128 480 c 2
EndSplineSet
AlternateSubs2: "'salt' Stilistische Alternativformen lookup 4 subtable" uniE05C.salt01
AlternateSubs2: "'ss01' Stilgruppe 1 lookup 0 subtable" uniE05C.ss01
EndChar

StartChar: uniE05D
Encoding: 57437 57437 81
Width: 699
Flags: MW
HStem: -753 13<324 334 324 342> -503 27<464.5 483 419.5 545> -502 19<352 374> -89 37<468 509> 52 37<468 509 443 565> 476 27<428 483>
VStem: 0 128<-480 480> 187 43<-482 -38 37 481> 234 42<-679 -675 -683 -661.5> 276 55<-538 -537.5> 284 146<-387 -371.5 371.5 385> 374 55<-709.5 -668.5> 419 39<-548 -542> 558 141<-328 -213 -328 -209 -328 -169.5 212 327>
LayerCount: 2
Fore
SplineSet
23 503 m 2xdf4c
 105 503 l 2xdf24
 118 503 128 492 128 480 c 2
 128 -480 l 2
 128 -492 118 -503 105 -503 c 2
 23 -503 l 2
 11 -503 0 -492 0 -480 c 2
 0 480 l 2
 0 492 11 503 23 503 c 2xdf4c
419 -548 m 0
 419 -536 414 -524 409 -517 c 0
 400 -507 383 -502 365 -502 c 1
 348 -503 333 -510 331 -531 c 1
 331 -545 342 -557 350 -566 c 0
 359 -575 369 -586 379 -593 c 0
 385 -596 390 -598 394 -598 c 0
 412 -598 418 -565 419 -548 c 0
334 -740 m 0
 356 -739 374 -719 374 -700 c 0
 374 -695 373 -690 371 -686 c 0
 365 -671 355 -658 344 -648 c 1
 337 -643 331 -637 325 -633 c 0
 320 -630 315 -626 309 -626 c 0
 303 -626 297 -629 293 -633 c 0
 290 -636 288 -639 286 -642 c 0
 280 -651 276 -663 276 -675 c 2
 276 -683 l 1
 284 -719 314 -740 334 -740 c 0
373 -29 m 1
 375 -32 l 2
 384 -47 399 -70 414 -70 c 0
 428 -70 444 -52 492 -52 c 0
 638 -52 699 -155 699 -271 c 0
 699 -385 617 -503 473 -503 c 0
 456 -503 440 -502 426 -500 c 1
 444 -510 458 -525 458 -549 c 0
 458 -586 434 -595 424 -604 c 0
 417 -609 414 -615 414 -621 c 0
 414 -626 416 -632 420 -638 c 0
 426 -650 429 -662 429 -675 c 0
 429 -705 410 -734 380 -746 c 0
 366 -751 349 -753 335 -753 c 0
 297 -753 245 -730 236 -689 c 0
 235 -685 234 -681 234 -677 c 0
 234 -646 261 -614 290 -605 c 0
 295 -603 296 -601 296 -599 c 0
 296 -597 296 -596 294 -595 c 0
 282 -582 276 -566 276 -550 c 0xde94
 276 -525 292 -500 321 -489 c 0
 331 -485 345 -483 359 -483 c 1
 303 -459 284 -419 284 -392 c 0
 284 -351 317 -305 360 -305 c 0
 403 -305 430 -328 430 -367 c 0
 430 -407 392 -432 387 -435 c 0
 383 -438 372 -442 372 -447 c 0
 372 -449 373 -450 376 -453 c 0xbf4c
 385 -462 399 -476 440 -476 c 0
 526 -476 558 -391 558 -328 c 2
 558 -209 l 2
 558 -130 542 -89 476 -89 c 0
 410 -89 385 -130 369 -180 c 0
 362 -201 354 -209 347 -209 c 0
 337 -209 328 -194 325 -180 c 0
 298 -61 259 -41 230 -38 c 1
 230 -482 l 2xdf4c
 230 -494 221 -503 209 -503 c 0
 196 -503 187 -494 187 -482 c 2
 187 481 l 2
 187 494 196 503 209 503 c 0
 221 503 230 494 230 481 c 2
 230 37 l 1xde94
 259 41 298 60 325 180 c 0
 328 194 337 209 347 209 c 0
 354 209 362 201 369 180 c 0
 385 130 410 89 476 89 c 0
 542 89 558 130 558 208 c 2xbf4c
 558 328 l 2
 558 390 526 476 440 476 c 0xbf24
 416 476 394 471 374 451 c 0
 372 450 372 448 372 447 c 0
 372 441 386 437 389 434 c 0
 398 427 430 403 430 367 c 0
 430 328 403 305 360 305 c 0
 317 305 284 351 284 392 c 0
 284 433 328 503 473 503 c 0
 617 503 699 385 699 269 c 0
 699 155 638 52 492 52 c 0
 444 52 428 68 414 68 c 0
 398 68 382 41 373 28 c 1
 366 14 362 9 362 0 c 0
 362 -11 370 -19 373 -29 c 1
EndSplineSet
EndChar

StartChar: uniE05E
Encoding: 57438 57438 82
Width: 699
Flags: MW
HStem: -500 27<419.5 483 419.5 545> -86 37<468 509> 55 37<468 509 443 565> 479 27<428 483>
VStem: 0 128<-477 483> 187 43<-479 -35 40 484> 284 146<-384 -368.5 374.5 388> 558 141<-325 -210 -325 -206 -325 -166.5 215 330>
LayerCount: 2
Fore
SplineSet
154 560 m 1
 77 560 l 1
 77 506 l 1
 105 506 l 2
 118 506 128 495 128 483 c 2
 128 -477 l 2
 128 -489 118 -500 105 -500 c 2
 23 -500 l 2
 11 -500 0 -489 0 -477 c 2
 0 483 l 2
 0 495 11 506 23 506 c 2
 45 506 l 1
 45 560 l 1
 -32 560 l 1
 61 907 l 1
 154 560 l 1
492 -49 m 0
 638 -49 699 -152 699 -268 c 0
 699 -382 617 -500 473 -500 c 0
 328 -500 284 -430 284 -389 c 0
 284 -348 317 -302 360 -302 c 0
 403 -302 430 -325 430 -364 c 0
 430 -404 392 -429 387 -432 c 0
 383 -435 372 -439 372 -444 c 0
 372 -446 373 -447 376 -450 c 0
 385 -459 399 -473 440 -473 c 0
 526 -473 558 -388 558 -325 c 2
 558 -206 l 2
 558 -127 542 -86 476 -86 c 0
 410 -86 385 -127 369 -177 c 0
 362 -198 354 -206 347 -206 c 0
 337 -206 328 -191 325 -177 c 0
 298 -58 259 -38 230 -35 c 1
 230 -479 l 2
 230 -491 221 -500 209 -500 c 0
 196 -500 187 -491 187 -479 c 2
 187 484 l 2
 187 497 196 506 209 506 c 0
 221 506 230 497 230 484 c 2
 230 40 l 1
 259 44 298 63 325 183 c 0
 328 197 337 212 347 212 c 0
 354 212 362 204 369 183 c 0
 385 133 410 92 476 92 c 0
 542 92 558 133 558 211 c 2
 558 331 l 2
 558 393 526 479 440 479 c 0
 416 479 394 474 374 454 c 0
 372 453 372 451 372 450 c 0
 372 444 386 440 389 437 c 0
 398 430 430 406 430 370 c 0
 430 331 403 308 360 308 c 0
 317 308 284 354 284 395 c 0
 284 436 328 506 473 506 c 0
 617 506 699 388 699 272 c 0
 699 158 638 55 492 55 c 0
 444 55 428 71 414 71 c 0
 398 71 382 44 373 31 c 1
 366 17 362 12 362 3 c 0
 362 -8 370 -16 373 -26 c 1
 375 -29 l 2
 384 -44 399 -67 414 -67 c 0
 428 -67 444 -49 492 -49 c 0
EndSplineSet
EndChar

StartChar: uniE05F
Encoding: 57439 57439 83
Width: 700
Flags: MW
HStem: -500 27<419.5 483 419.5 545> -86 37<468 509> 55 37<468 509 443 565> 479 27<428 483>
VStem: 0 128<-477 483> 187 43<-479 -35 40 484> 284 146<-384 -368.5 374.5 388> 558 141<-325 -210 -325 -206 -325 -166.5 215 330>
LayerCount: 2
Fore
SplineSet
78 -500 m 1
 78 -556 l 1
 155 -556 l 1
 62 -903 l 1
 -31 -556 l 1
 46 -556 l 1
 46 -500 l 1
 23 -500 l 2
 11 -500 0 -489 0 -477 c 2
 0 483 l 2
 0 495 11 506 23 506 c 2
 105 506 l 2
 118 506 128 495 128 483 c 2
 128 -477 l 2
 128 -489 118 -500 105 -500 c 2
 78 -500 l 1
492 -49 m 0
 638 -49 699 -152 699 -268 c 0
 699 -382 617 -500 473 -500 c 0
 328 -500 284 -430 284 -389 c 0
 284 -348 317 -302 360 -302 c 0
 403 -302 430 -325 430 -364 c 0
 430 -404 392 -429 387 -432 c 0
 383 -435 372 -439 372 -444 c 0
 372 -446 373 -447 376 -450 c 0
 385 -459 399 -473 440 -473 c 0
 526 -473 558 -388 558 -325 c 2
 558 -206 l 2
 558 -127 542 -86 476 -86 c 0
 410 -86 385 -127 369 -177 c 0
 362 -198 354 -206 347 -206 c 0
 337 -206 328 -191 325 -177 c 0
 298 -58 259 -38 230 -35 c 1
 230 -479 l 2
 230 -491 221 -500 209 -500 c 0
 196 -500 187 -491 187 -479 c 2
 187 484 l 2
 187 497 196 506 209 506 c 0
 221 506 230 497 230 484 c 2
 230 40 l 1
 259 44 298 63 325 183 c 0
 328 197 337 212 347 212 c 0
 354 212 362 204 369 183 c 0
 385 133 410 92 476 92 c 0
 542 92 558 133 558 211 c 2
 558 331 l 2
 558 393 526 479 440 479 c 0
 416 479 394 474 374 454 c 0
 372 453 372 451 372 450 c 0
 372 444 386 440 389 437 c 0
 398 430 430 406 430 370 c 0
 430 331 403 308 360 308 c 0
 317 308 284 354 284 395 c 0
 284 436 328 506 473 506 c 0
 617 506 699 388 699 272 c 0
 699 158 638 55 492 55 c 0
 444 55 428 71 414 71 c 0
 398 71 382 44 373 31 c 1
 366 17 362 12 362 3 c 0
 362 -8 370 -16 373 -26 c 1
 375 -29 l 2
 384 -44 399 -67 414 -67 c 0
 428 -67 444 -49 492 -49 c 0
EndSplineSet
EndChar

StartChar: uniE060
Encoding: 57440 57440 84
Width: 583
Flags: MW
HStem: -499 998<14.5 461.5 14.5 569.5>
VStem: 0 40<-436 479> 112 40<-436 -175 -50 65 190 479> 436 40<-479 -197 -197 -197 -72 43 43 43 168 436> 544 40<-479 436>
LayerCount: 2
Fore
SplineSet
20 499 m 0
 31 499 40 490 40 479 c 2
 40 -436 l 2
 40 -447 31 -456 20 -456 c 0
 9 -456 0 -447 0 -436 c 2
 0 479 l 2
 0 490 9 499 20 499 c 0
456 456 m 0
 467 456 476 448 476 436 c 2
 476 -479 l 2
 476 -490 467 -499 456 -499 c 0
 445 -499 436 -490 436 -479 c 2
 436 -197 l 1
 152 -175 l 1
 152 -436 l 2
 152 -447 143 -456 132 -456 c 0
 121 -456 112 -447 112 -436 c 2
 112 479 l 2
 112 490 121 499 132 499 c 0
 143 499 152 490 152 479 c 2
 152 190 l 1
 436 168 l 1
 436 436 l 2
 436 448 445 456 456 456 c 0
152 65 m 1
 152 -50 l 1
 436 -72 l 1
 436 43 l 1
 152 65 l 1
564 456 m 0
 575 456 584 448 584 436 c 2
 584 -479 l 2
 584 -490 575 -499 564 -499 c 0
 553 -499 544 -490 544 -479 c 2
 544 436 l 2
 544 448 553 456 564 456 c 0
EndSplineSet
EndChar

StartChar: uniE061
Encoding: 57441 57441 85
Width: 233
Flags: MW
HStem: -123 92<-1 188 -1 226> 31 93<-1 188 -1 226 -1 188>
VStem: 188 38<-539 -123 -123 -123 124 533>
LayerCount: 2
Fore
SplineSet
226 533 m 1
 226 31 l 1
 -1 31 l 1
 -1 124 l 1
 188 124 l 1
 188 533 l 1
 226 533 l 1
226 -539 m 1
 188 -539 l 1
 188 -123 l 1
 -1 -123 l 1
 -1 -31 l 1
 226 -31 l 1
 226 -539 l 1
EndSplineSet
EndChar

StartChar: uniE062
Encoding: 57442 57442 86
Width: 724
Flags: MW
HStem: -179 112<609 639.5> -110 206<120 130 130 135> 66 111<609 639.5> 229 33<227 253>
VStem: 2 69<40.5 118> 382 149<-74 -28 -28 -27.5> 569 111<-138 -107.5 106.5 137>
LayerCount: 2
Fore
SplineSet
248 262 m 2x5e
 253 262 l 1
 253 262 527 250 531 -21 c 1
 531 -28 l 2
 531 -238 304 -566 -3 -621 c 0
 -9 -622 -21 -618 -21 -611 c 0
 -21 -606 -16 -600 -1 -591 c 0
 50 -561 103 -539 150 -503 c 0
 235 -438 313 -359 347 -258 c 0
 370 -188 382 -111 382 -37 c 0
 382 -18 382 1 380 19 c 0
 374 76 360 145 321 190 c 1
 298 215 260 229 227 229 c 1
 227 229 118 226 72 123 c 1
 72 123 71 120 71 116 c 0
 71 108 74 95 95 95 c 2
 102 95 l 1
 108 96 116 96 124 96 c 0
 167 96 231 80 231 -9 c 0
 231 -70 196 -109 135 -110 c 1
 130 -110 l 2
 72 -110 14 -61 3 29 c 0
 2 34 2 38 2 43 c 0
 2 135 98 262 248 262 c 2x5e
624 -67 m 0xbe
 655 -67 680 -92 680 -123 c 0
 680 -153 655 -179 624 -179 c 0
 594 -179 569 -153 569 -123 c 0
 569 -92 594 -67 624 -67 c 0xbe
624 177 m 0
 655 177 680 152 680 122 c 0
 680 91 655 66 624 66 c 0
 594 66 569 91 569 122 c 0
 569 152 594 177 624 177 c 0
EndSplineSet
AlternateSubs2: "'salt' Stilistische Alternativformen lookup 4 subtable" uniE062.salt01 uniE062.salt02
AlternateSubs2: "'ss01' Stilgruppe 1 lookup 0 subtable" uniE062.ss01
EndChar

StartChar: uniE063
Encoding: 57443 57443 87
Width: 724
Flags: MW
HStem: -755 13<386 388 388 395.5 386 398> -752 16<293.5 299> -616 22<411 440> -570 56<402 402> -179 112<609 639.5> -110 206<120 130 130 135> 66 111<609 639.5> 229 33<227 253>
VStem: 2 69<40.5 118> 328 49<-696.5 -693> 356 40 382 149<-74 -28 -28 -27.5> 452 43<-666 -633> 569 111<-138 -107.5 106.5 137>
LayerCount: 2
Fore
SplineSet
248 262 m 2x6b94
 253 262 l 1x6b94
 253 262 527 250 531 -21 c 1
 531 -28 l 2
 531 -238 304 -566 -3 -621 c 0
 -9 -622 -21 -618 -21 -611 c 0
 -21 -606 -16 -600 -1 -591 c 0
 50 -561 103 -539 150 -503 c 0
 235 -438 313 -359 347 -258 c 0
 370 -188 382 -111 382 -37 c 0
 382 -18 382 1 380 19 c 0
 374 76 360 145 321 190 c 1
 298 215 260 229 227 229 c 1
 227 229 118 226 72 123 c 1
 72 123 71 120 71 116 c 0
 71 108 74 95 95 95 c 2
 102 95 l 1
 108 96 116 96 124 96 c 0
 167 96 231 80 231 -9 c 0
 231 -70 196 -109 135 -110 c 1
 130 -110 l 2x6594
 72 -110 14 -61 3 29 c 0
 2 34 2 38 2 43 c 0
 2 135 98 262 248 262 c 2x6b94
624 -67 m 0
 655 -67 680 -92 680 -123 c 0
 680 -153 655 -179 624 -179 c 0
 594 -179 569 -153 569 -123 c 0
 569 -92 594 -67 624 -67 c 0
624 177 m 0
 655 177 680 152 680 122 c 0
 680 91 655 66 624 66 c 0
 594 66 569 91 569 122 c 0
 569 152 594 177 624 177 c 0
299 -752 m 2
 299 -752 199 -752 195 -752 c 0
 190 -752 184 -749 184 -743 c 1
 186 -738 187 -735 195 -735 c 0
 203 -735 213 -732 213 -732 c 1
 213 -732 222 -730 230 -714 c 0
 238 -698 266 -621 266 -621 c 1
 266 -621 268 -616 268 -612 c 0
 268 -609 267 -606 262 -606 c 0
 258 -606 254 -609 250 -614 c 0
 246 -619 239 -624 230 -624 c 0
 223 -624 218 -621 218 -616 c 0
 218 -614 218 -613 220 -611 c 0
 226 -604 298 -521 303 -516 c 0
 310 -509 315 -506 319 -506 c 0
 323 -506 330 -510 335 -514 c 0
 340 -517 344 -518 351 -518 c 0
 356 -518 361 -514 364 -514 c 0
 368 -514 369 -515 369 -518 c 0
 369 -519 369 -521 369 -522 c 0
 367 -528 286 -714 285 -722 c 0
 285 -728 289 -736 298 -736 c 0
 304 -736 310 -738 310 -743 c 0
 310 -748 306 -752 299 -752 c 2
350 -669 m 0xabcc
 352 -669 353 -669 354 -669 c 0
 367 -669 377 -680 377 -694 c 0
 377 -699 375 -705 372 -709 c 0
 367 -715 362 -718 360 -726 c 1
 360 -728 l 2
 360 -739 377 -742 386 -742 c 2
 388 -742 l 2xabc4
 403 -742 426 -732 446 -677 c 0
 450 -664 452 -655 452 -646 c 0
 452 -620 432 -616 420 -616 c 0
 402 -616 382 -635 374 -640 c 0
 372 -642 369 -642 366 -642 c 0
 362 -642 359 -641 359 -641 c 2
 357 -640 356 -637 356 -634 c 0
 356 -630 357 -626 357 -624 c 0
 357 -623 358 -623 358 -622 c 0
 362 -604 371 -586 377 -568 c 0xabac
 380 -559 389 -541 389 -534 c 1
 391 -527 395 -515 402 -514 c 1
 410 -514 437 -514 464 -514 c 0
 491 -514 519 -514 527 -515 c 0
 528 -515 528 -516 528 -517 c 0
 528 -521 523 -529 522 -530 c 0
 520 -534 516 -537 513 -539 c 0
 509 -542 505 -545 500 -547 c 0
 492 -550 484 -552 475 -554 c 0
 466 -555 457 -557 448 -559 c 0
 437 -562 426 -562 415 -566 c 0
 411 -567 406 -568 402 -570 c 0x7ba4
 397 -573 396 -581 396 -587 c 1
 395 -589 395 -591 395 -593 c 0
 395 -595 395 -596 397 -597 c 2
 398 -598 l 1
 400 -598 403 -596 406 -596 c 1
 408 -595 410 -595 412 -595 c 0
 418 -594 424 -594 429 -594 c 0
 451 -594 459 -599 470 -606 c 1
 472 -608 l 1x6bac
 483 -616 488 -627 492 -640 c 0
 494 -646 495 -654 495 -662 c 0
 495 -670 494 -678 493 -684 c 0
 488 -708 468 -726 447 -738 c 0
 430 -747 408 -755 388 -755 c 0
 373 -755 358 -751 347 -742 c 0
 336 -733 328 -715 328 -699 c 0
 328 -687 333 -676 344 -671 c 0
 346 -670 348 -670 350 -669 c 0xabcc
EndSplineSet
EndChar

StartChar: uniE064
Encoding: 57444 57444 88
Width: 678
Flags: MW
HStem: -750 12<319 335> -529 16<355 357 355 355> -179 112<609 639.5> -110 206<120 130 130 135> 66 111<609 639.5> 229 33<227 253>
VStem: 2 69<40.5 118> 240 37<-685 -681 -688 -669.5> 277 48<-579 -555> 363 48<-712 -675.5> 382 149<-74 -28 -28 -27.5> 403 34<-570 -567 -567 -563> 569 111<-138 -107.5 106.5 137>
LayerCount: 2
Fore
SplineSet
248 262 m 2x4090
 253 262 l 1
 253 262 527 250 531 -21 c 1
 531 -28 l 2
 531 -238 304 -566 -3 -621 c 0
 -9 -622 -21 -618 -21 -611 c 0
 -21 -606 -16 -600 -1 -591 c 0
 50 -561 103 -539 150 -503 c 0
 235 -438 313 -359 347 -258 c 0x4090
 370 -188 382 -111 382 -37 c 0
 382 -18 382 1 380 19 c 0
 374 76 360 145 321 190 c 1x4010
 298 215 260 229 227 229 c 1
 227 229 118 226 72 123 c 1
 72 123 71 120 71 116 c 0
 71 108 74 95 95 95 c 2
 102 95 l 1
 108 96 116 96 124 96 c 0x8140
 167 96 231 80 231 -9 c 0
 231 -70 196 -109 135 -110 c 1
 130 -110 l 2
 72 -110 14 -61 3 29 c 0
 2 34 2 38 2 43 c 0
 2 135 98 262 248 262 c 2x4090
624 -67 m 0
 655 -67 680 -92 680 -123 c 0x9740
 680 -153 655 -179 624 -179 c 0
 594 -179 569 -153 569 -123 c 0
 569 -92 594 -67 624 -67 c 0
624 177 m 0
 655 177 680 152 680 122 c 0
 680 91 655 66 624 66 c 0
 594 66 569 91 569 122 c 0
 569 152 594 177 624 177 c 0
348 -513 m 2
 353 -513 l 2
 368 -513 437 -523 437 -570 c 0
 437 -604 416 -611 407 -619 c 0
 401 -624 399 -629 399 -634 c 0
 399 -639 400 -644 403 -649 c 0
 409 -659 411 -670 411 -681 c 0
 411 -708 395 -733 368 -744 c 0
 356 -748 341 -750 329 -750 c 0
 296 -750 250 -730 242 -694 c 0
 241 -690 240 -687 240 -683 c 0
 240 -656 264 -628 289 -620 c 0
 294 -618 295 -617 295 -615 c 0
 295 -613 294 -612 293 -611 c 0
 282 -600 277 -586 277 -572 c 0
 277 -550 291 -528 316 -518 c 0
 326 -514 337 -513 348 -513 c 2
325 -553 m 1x0520
 325 -555 l 2
 325 -567 335 -578 342 -586 c 0
 350 -594 358 -603 367 -609 c 0
 373 -612 377 -614 380 -614 c 0
 397 -614 402 -585 403 -570 c 1
 403 -567 l 2
 403 -559 399 -549 394 -543 c 0
 386 -534 371 -529 357 -529 c 2
 355 -529 l 1
 340 -530 327 -537 325 -553 c 1x0520
292 -645 m 0x9740
 289 -647 287 -650 285 -653 c 0
 280 -661 277 -671 277 -681 c 0
 277 -684 277 -686 277 -688 c 0
 284 -720 310 -738 328 -738 c 0
 348 -738 363 -720 363 -704 c 0
 363 -699 362 -695 360 -691 c 0
 355 -678 347 -667 336 -658 c 0
 331 -653 325 -649 320 -644 c 1
 316 -642 311 -638 306 -638 c 0x2808
 301 -638 296 -641 292 -645 c 0x9740
EndSplineSet
EndChar

StartChar: uniE065
Encoding: 57445 57445 89
Width: 682
Flags: MW
HStem: -179 112<609 639.5> -110 206<120 130 130 135> 66 111<609 639.5> 229 33<227 253> 239 10 458 16<355 360.5 348 363>
VStem: 2 69<40.5 118> 240 37<302 306 299 317.5> 277 48<408 434> 363 48<275 311.5> 382 149<-74 -28 -28 -27.5> 403 34<420 424> 569 111<-138 -107.5 106.5 137>
LayerCount: 2
Fore
SplineSet
624 66 m 0x1698
 594 66 569 91 569 122 c 0
 569 152 594 177 624 177 c 0
 655 177 680 152 680 122 c 0
 680 91 655 66 624 66 c 0x1698
277 306 m 2
 277 299 l 1
 284 267 310 249 328 249 c 0
 348 249 363 267 363 283 c 0
 363 288 362 292 360 296 c 0
 355 309 347 320 336 329 c 2
 320 343 l 1
 316 345 311 349 306 349 c 0
 301 349 296 346 292 342 c 0
 289 340 287 337 285 334 c 0x5728
 280 326 277 316 277 306 c 2
325 434 m 1
 325 420 334 409 342 401 c 0
 350 393 358 384 367 378 c 0
 373 375 377 373 380 373 c 0
 397 373 402 402 403 420 c 0
 403 428 399 438 394 444 c 0
 386 453 371 458 355 458 c 1
 340 457 327 450 325 434 c 1
348 474 m 2
 353 474 l 2
 368 474 437 464 437 417 c 0
 437 383 416 376 407 368 c 0
 401 363 399 358 399 353 c 0
 399 348 400 343 403 338 c 0
 409 328 411 317 411 306 c 0
 411 279 395 254 368 243 c 0
 363 241 358 240 353 239 c 1
 432 209 529 139 531 -21 c 1
 531 -28 l 2
 531 -238 304 -566 -5 -621 c 1
 -11 -621 -21 -617 -21 -611 c 0
 -21 -606 -16 -600 -1 -591 c 0xb698
 50 -561 103 -539 150 -503 c 0
 235 -438 313 -359 347 -258 c 0
 370 -188 382 -111 382 -37 c 0
 382 -18 382 1 380 19 c 0
 374 76 360 145 321 190 c 1
 298 215 260 229 227 229 c 1
 227 229 118 226 72 123 c 1
 72 123 71 120 71 116 c 0
 71 108 74 95 95 95 c 2
 102 95 l 1x0f48
 108 96 116 96 124 96 c 0x1698
 167 96 231 80 231 -9 c 0
 231 -70 196 -109 135 -110 c 1
 130 -110 l 2x1718
 72 -110 14 -61 3 29 c 0
 2 34 2 38 2 43 c 0
 2 135 98 262 248 262 c 2x0f48
 253 262 l 1x0f28
 253 262 256 262 262 261 c 1
 252 270 245 280 242 293 c 0
 241 297 240 300 240 304 c 0
 240 331 264 359 289 367 c 0
 294 369 295 370 295 372 c 0
 295 374 294 375 293 376 c 0
 282 387 277 401 277 415 c 0
 277 437 291 459 316 469 c 0
 326 473 337 474 348 474 c 2
624 -67 m 0
 655 -67 680 -92 680 -123 c 0
 680 -153 655 -179 624 -179 c 0
 594 -179 569 -153 569 -123 c 0
 569 -92 594 -67 624 -67 c 0
EndSplineSet
EndChar

StartChar: uniE066
Encoding: 57446 57446 90
Width: 681
Flags: MW
HStem: -179 112<608 638.5> -110 206<119 129 129 134> 66 111<608 638.5> 250 12<321 336.5> 254 14<131.5 141.5 135.5 141.5 135.5 183> 397 21<364 374> 452 40<400.5 416 400.5 428.5> 495 8
VStem: 1 69<40.5 118> 171 10 265 51<314.5 315> 381 149<-74 -28 -28 -27.5> 409 48<350 368.5 348 370.5> 568 111<-138 -107.5 106.5 137>
LayerCount: 2
Fore
SplineSet
623 66 m 0x16ec
 593 66 568 91 568 122 c 0
 568 152 593 177 623 177 c 0
 654 177 679 152 679 122 c 0
 679 91 654 66 623 66 c 0x16ec
303 279 m 2
 303 275 l 1
 304 267 312 262 330 262 c 0
 343 262 391 275 405 330 c 0
 408 339 409 347 409 353 c 0
 409 388 381 397 367 397 c 0
 352 397 319 389 315 382 c 1
 310 379 309 378 304 378 c 0
 301 378 296 379 296 386 c 1
 329 488 l 2
 330 492 334 496 343 496 c 0
 351 496 393 492 408 492 c 0
 424 492 464 496 471 496 c 0
 475 496 476 494 476 491 c 2
 476 485 l 1
 473 478 462 452 395 452 c 0
 375 452 357 456 351 457 c 0
 347 457 343 454 341 450 c 0
 340 446 329 416 329 416 c 2
 328 415 327 410 329 410 c 0
 330 410 331 410 332 411 c 0
 343 416 357 418 371 418 c 0
 379 418 388 418 394 416 c 0
 431 408 457 386 457 351 c 0
 457 345 456 339 454 331 c 0
 442 286 399 250 339 250 c 0
 274 250 266 293 265 307 c 1
 265 323 280 337 298 337 c 0
 306 337 316 331 316 316 c 0
 316 313 316 309 315 305 c 0
 312 293 303 290 303 279 c 2
247 262 m 1x4dec
 252 262 l 1
 252 262 526 250 530 -21 c 1
 530 -28 l 2
 530 -139 467 -281 362 -399 c 0
 269 -504 142 -590 -4 -621 c 0xb6ec
 -5 -621 -5 -621 -6 -621 c 0x16ec
 -12 -621 -22 -617 -22 -611 c 0
 -22 -606 -17 -600 -2 -591 c 0
 49 -561 102 -539 149 -503 c 0
 234 -438 312 -359 346 -258 c 0
 369 -188 381 -111 381 -37 c 0
 381 -18 381 1 379 19 c 0
 373 76 359 145 320 190 c 1
 297 215 259 229 226 229 c 1
 226 229 117 226 71 123 c 1
 71 123 70 120 70 116 c 0
 70 108 73 95 94 95 c 2
 101 95 l 1
 107 96 115 96 123 96 c 0x16f4
 166 96 230 80 230 -9 c 0
 230 -70 195 -109 134 -110 c 1
 129 -110 l 2
 71 -110 13 -61 2 29 c 0
 1 34 1 38 1 43 c 0
 1 121 70 225 183 254 c 1
 134 254 l 2
 129 254 126 256 126 258 c 0
 126 259 126 260 127 261 c 0
 129 267 134 268 137 268 c 0
 146 268 165 277 169 288 c 0
 216 418 217 418 217 419 c 0
 217 422 215 424 212 424 c 0
 210 424 208 422 205 419 c 0
 197 410 181 393 181 393 c 1
 181 393 179 389 174 389 c 0
 172 389 170 389 169 390 c 0
 167 391 166 393 166 394 c 0
 166 398 171 404 171 404 c 1
 232 494 232 495 232 495 c 1
 236 499 239 503 246 503 c 1
 252 502 260 502 269 502 c 0
 274 502 284 503 294 503 c 0
 298 503 301 501 301 498 c 0
 301 496 300 494 299 492 c 0
 297 484 230 287 230 287 c 2
 229 285 229 283 229 281 c 0
 229 275 233 268 239 268 c 0
 242 268 244 266 244 264 c 0
 244 263 245 263 247 262 c 1x4dec
623 -67 m 0
 654 -67 679 -92 679 -123 c 0
 679 -153 654 -179 623 -179 c 0
 593 -179 568 -153 568 -123 c 0
 568 -92 593 -67 623 -67 c 0
EndSplineSet
EndChar

StartChar: uniE067
Encoding: 57447 57447 91
Width: 681
Flags: MW
HStem: -179 112<609 639.5> -110 206<120 130 130 135> 66 111<609 639.5> 229 32<227 243.5>
VStem: 2 69<40.5 119> 227 27<262 329 262 329 262 329> 382 149<-77.5 -31> 569 111<-138 -107.5 106.5 137>
LayerCount: 2
Fore
SplineSet
624 177 m 0xbf
 655 177 680 152 680 122 c 0
 680 91 655 66 624 66 c 0
 594 66 569 91 569 122 c 0
 569 152 594 177 624 177 c 0xbf
624 -67 m 0
 655 -67 680 -92 680 -123 c 0
 680 -153 655 -179 624 -179 c 0
 594 -179 569 -153 569 -123 c 0
 569 -92 594 -67 624 -67 c 0
254 329 m 1
 254 262 l 1
 274 261 527 240 531 -21 c 1
 531 -25 l 2
 531 -238 305 -568 -3 -621 c 0
 -9 -622 -21 -618 -21 -611 c 0
 -21 -606 -16 -600 -1 -591 c 0
 50 -561 103 -539 150 -503 c 0
 235 -438 313 -359 346 -258 c 0
 369 -189 382 -114 382 -41 c 0
 382 -21 381 -1 379 19 c 0
 374 76 360 145 321 190 c 1
 298 215 260 229 227 229 c 1
 227 229 118 226 72 123 c 1
 72 123 71 121 71 117 c 0
 71 109 75 95 96 95 c 2
 102 95 l 1
 108 96 116 96 124 96 c 0
 167 96 231 80 231 -9 c 0
 231 -70 196 -109 135 -110 c 1
 130 -110 l 2x5f
 72 -110 14 -61 3 29 c 0
 2 34 2 38 2 43 c 0
 2 130 89 251 227 261 c 1
 227 329 l 1
 148 329 l 1
 245 672 l 1
 336 329 l 1
 254 329 l 1
EndSplineSet
EndChar

StartChar: uniE068
Encoding: 57448 57448 92
Width: 680
Flags: MW
HStem: -179 112<609 639.5> -110 206<120 130 130 135> 66 111<609 639.5> 229 33<227 253>
VStem: 2 69<40.5 119> 229 36<-688 -520 -520 -520> 382 149<-77.5 -31> 569 111<-138 -107.5 106.5 137>
LayerCount: 2
Fore
SplineSet
624 177 m 0xbd
 655 177 680 152 680 122 c 0
 680 91 655 66 624 66 c 0
 594 66 569 91 569 122 c 0
 569 152 594 177 624 177 c 0xbd
624 -67 m 0
 655 -67 680 -92 680 -123 c 0
 680 -153 655 -179 624 -179 c 0
 594 -179 569 -153 569 -123 c 0
 569 -92 594 -67 624 -67 c 0
248 262 m 2
 253 262 l 1xbd
 253 262 527 250 531 -21 c 1
 531 -29 l 2
 531 -210 425 -381 265 -496 c 1
 265 -688 l 1
 339 -688 l 1
 242 -1031 l 1
 151 -688 l 1
 229 -688 l 1
 229 -520 l 1
 188 -547 45 -621 -3 -621 c 0
 -9 -621 -21 -618 -21 -611 c 0
 -21 -606 -16 -600 -1 -591 c 0
 50 -561 103 -539 150 -503 c 0
 235 -438 313 -359 346 -258 c 0
 369 -189 382 -114 382 -41 c 0
 382 -21 381 -1 379 19 c 0
 374 76 360 145 321 190 c 1
 298 215 260 229 227 229 c 1
 227 229 118 226 72 123 c 1
 72 123 71 121 71 117 c 0
 71 109 75 95 96 95 c 2
 102 95 l 1
 108 96 116 96 124 96 c 0
 167 96 231 80 231 -9 c 0
 231 -70 196 -109 135 -110 c 1
 130 -110 l 2x5f
 72 -110 14 -61 3 29 c 0
 2 34 2 38 2 43 c 0
 2 135 98 262 248 262 c 2
EndSplineSet
EndChar

StartChar: uniE069
Encoding: 57449 57449 93
Width: 382
Flags: MW
HStem: -250 500<10 146 14 146 14 236 236 368>
VStem: 0 160<-235 235> 222 160<-235 235>
LayerCount: 2
Fore
SplineSet
160 -235 m 2
 160 -243 154 -250 146 -250 c 2
 14 -250 l 2
 6 -250 0 -243 0 -235 c 2
 0 235 l 2
 0 243 6 250 14 250 c 2
 146 250 l 2
 154 250 160 243 160 235 c 2
 160 -235 l 2
382 235 m 2
 382 -235 l 2
 382 -243 376 -250 368 -250 c 2
 236 -250 l 2
 228 -250 222 -243 222 -235 c 2
 222 235 l 2
 222 243 228 250 236 250 c 2
 368 250 l 2
 376 250 382 243 382 235 c 2
EndSplineSet
AlternateSubs2: "'salt' Stilistische Alternativformen lookup 4 subtable" uniE069.salt01
EndChar

StartChar: uniE06A
Encoding: 57450 57450 94
Width: 312
Flags: MW
HStem: -465 102<11.5 257 55 257 257 261 55 296> 359 102<51 55 55 257>
VStem: 0 40<-352 -348 -348 344> 272 40<-348 344 344 348>
LayerCount: 2
Fore
SplineSet
312 -450 m 2
 312 -458 305 -465 296 -465 c 2
 16 -465 l 2
 7 -465 0 -458 0 -450 c 2
 0 446 l 2
 0 454 7 461 16 461 c 2
 296 461 l 2
 305 461 312 454 312 446 c 2
 312 -450 l 2
272 344 m 2
 272 352 265 359 257 359 c 2
 55 359 l 2
 47 359 40 352 40 344 c 2
 40 -348 l 2
 40 -356 47 -363 55 -363 c 2
 257 -363 l 2
 265 -363 272 -356 272 -348 c 2
 272 344 l 2
EndSplineSet
EndChar

StartChar: uniE06B
Encoding: 57451 57451 95
Width: 251
Flags: MW
HStem: -153 48<49 221 49 221> 97 48<49 221 49 221>
VStem: 1 48<-486 -153 -105 97 145 486>
LayerCount: 2
Fore
SplineSet
221 -629 m 0
 217 -629 213 -628 210 -626 c 2
 14 -521 l 2
 6 -517 1 -509 1 -500 c 2
 1 500 l 2
 1 509 6 517 14 521 c 2
 210 626 l 2
 213 628 217 629 221 629 c 0
 229 629 238 624 242 616 c 0
 244 613 245 609 245 605 c 0
 245 597 240 588 232 584 c 2
 49 486 l 1
 49 145 l 1
 221 145 l 2
 234 145 245 134 245 121 c 0
 245 108 234 97 221 97 c 2
 49 97 l 1
 49 -105 l 1
 221 -105 l 2
 234 -105 245 -116 245 -129 c 0
 245 -142 234 -153 221 -153 c 2
 49 -153 l 1
 49 -486 l 1
 232 -584 l 2
 240 -588 245 -597 245 -605 c 0
 245 -609 244 -613 242 -616 c 0
 238 -624 229 -629 221 -629 c 0
EndSplineSet
EndChar

StartChar: uniE06C
Encoding: 57452 57452 96
Width: 463
Flags: MW
HStem: -202 408<224 237.5>
VStem: 207 48<-178 -86 -86 -86 93 182>
LayerCount: 2
Fore
SplineSet
459 171 m 1
 459 11 l 1
 255 -68 l 1
 255 -178 l 2
 255 -191 244 -202 231 -202 c 0
 217 -202 207 -191 207 -178 c 2
 207 -86 l 1
 2 -165 l 1
 2 -4 l 1
 207 74 l 1
 207 182 l 2
 207 195 217 206 231 206 c 0
 244 206 255 195 255 182 c 2
 255 93 l 1
 459 171 l 1
EndSplineSet
EndChar

StartChar: uniE06D
Encoding: 57453 57453 97
Width: 409
Flags: MW
HStem: -748 53<87 234 234 239> -533 53<87 203 203 234 87 203> -330 53<87 203 87 87> -87 51<126 276 126 292 111 276> 178 64<203 203> 711 53<18 173 18 387 233 387 233 233>
VStem: 27 60<-695 -533 -480 -330> 173 60<293 711 293 711> 297 60<-420.5 -381> 318 60<-636.5 -591>
LayerCount: 2
Fore
SplineSet
387 711 m 1xf740
 233 711 l 1xf740
 233 293 l 1
 173 293 l 1
 173 711 l 1
 18 711 l 1
 18 764 l 1xe280
 387 764 l 1
 387 711 l 1xf740
408 -228 m 1x6280
 341 -228 l 1
 292 -87 l 1xdf40
 111 -87 l 1
 61 -228 l 1
 -3 -228 l 1
 165 242 l 1
 243 242 l 1
 408 -228 l 1x6280
276 -36 m 1
 203 178 l 1
 126 -36 l 1
 276 -36 l 1
378 -613 m 0
 378 -691 324 -748 239 -748 c 2
 27 -748 l 1
 27 -277 l 1
 218 -277 l 2
 307 -277 357 -328 357 -397 c 0
 357 -444 335 -479 292 -499 c 1
 352 -522 378 -557 378 -613 c 0
297 -405 m 0
 297 -357 270 -330 203 -330 c 2
 87 -330 l 1
 87 -480 l 1
 203 -480 l 2
 270 -480 297 -453 297 -405 c 0
318 -614 m 0
 318 -568 290 -533 234 -533 c 2
 87 -533 l 1
 87 -695 l 1
 234 -695 l 2
 290 -695 318 -659 318 -614 c 0
EndSplineSet
AlternateSubs2: "'salt' Stilistische Alternativformen lookup 4 subtable" uniE06D.salt01 uniE06D.salt02
EndChar

StartChar: uniE06E
Encoding: 57454 57454 98
Width: 271
Flags: MW
HStem: -508 36<57 156 156 159> -364 35<57 135 135 156 57 135> -228 35<57 135 57 57> -65 33<83 184 83 195 73 184> 112 43<135 135> 469 35<11 115 11 258 155 258 155 155>
VStem: 17 40<-472 -364 -329 -228> 115 40<189 469 189 469> 198 40<-289 -263> 212 40<-433.5 -403>
LayerCount: 2
Fore
SplineSet
258 469 m 1xf740
 155 469 l 1xf740
 155 189 l 1x8040
 115 189 l 1
 115 469 l 1
 11 469 l 1
 11 504 l 1xe280
 258 504 l 1
 258 469 l 1xf740
272 -160 m 1x6280
 227 -160 l 1
 195 -65 l 1xdf40
 73 -65 l 1
 40 -160 l 1
 -3 -160 l 1
 110 155 l 1
 162 155 l 1
 272 -160 l 1x6280
184 -32 m 1
 135 112 l 1
 83 -32 l 1
 184 -32 l 1
252 -418 m 0
 252 -470 216 -508 159 -508 c 2
 17 -508 l 1
 17 -193 l 1
 145 -193 l 2
 205 -193 238 -227 238 -273 c 0
 238 -305 223 -328 195 -342 c 1
 235 -357 252 -380 252 -418 c 0
198 -279 m 0
 198 -247 180 -228 135 -228 c 2
 57 -228 l 1
 57 -329 l 1
 135 -329 l 2
 180 -329 198 -311 198 -279 c 0
212 -418 m 0
 212 -388 194 -364 156 -364 c 2
 57 -364 l 1
 57 -472 l 1
 156 -472 l 2
 194 -472 212 -449 212 -418 c 0
EndSplineSet
AlternateSubs2: "'salt' Stilistische Alternativformen lookup 4 subtable" uniE06E.salt01 uniE06E.salt02
EndChar

StartChar: uniE06F
Encoding: 57455 57455 99
Width: 463
Flags: MW
HStem: 0 21G<464 464>
VStem: 0 464<0 0 0 375 0 375>
LayerCount: 2
Fore
SplineSet
0 375 m 1
 464 0 l 1
 0 -375 l 1
 0 375 l 1
EndSplineSet
EndChar

StartChar: uniE070
Encoding: 57456 57456 100
Width: 316
Flags: MW
HStem: 1 21G<316 316>
VStem: 0 316<1 1 1 251 1 251>
LayerCount: 2
Fore
SplineSet
0 251 m 1
 316 1 l 1
 0 -249 l 1
 0 251 l 1
EndSplineSet
EndChar

StartChar: uniE071
Encoding: 57457 57457 101
Width: 607
Flags: MW
HStem: -386 1001<408 408>
VStem: -4 608<-2 458>
LayerCount: 2
Fore
SplineSet
-4 -2 m 1
 408 309 l 1
 408 -386 l 1
 -4 -2 l 1
408 615 m 1
 604 458 l 1
 408 310 l 1
 408 615 l 1
EndSplineSet
EndChar

StartChar: uniE072
Encoding: 57458 57458 102
Width: 607
Flags: MW
HStem: -377 1001<195 195>
VStem: -1 608<7 467>
LayerCount: 2
Fore
SplineSet
-1 467 m 1
 195 624 l 1
 195 319 l 1
 -1 467 l 1
607 7 m 1
 195 -377 l 1
 195 318 l 1
 607 7 l 1
EndSplineSet
EndChar

StartChar: uniE073
Encoding: 57459 57459 103
Width: 674
Flags: MW
HStem: -658 37<342.5 344 344 361 325 428.5> -252 36<281.5 347.5 279 375> 116 139<195 250 239 241>
VStem: -5 82<-81 25 -81 25> 93 45<747 890> 146 45<-530.5 -446 -537.5 -441.5> 331 42<711.5 728.5> 332 204<-527.5 -475 -527.5 -475> 399 65<-12 89 -2 89> 586 80<8 193.5 92 99.5>
LayerCount: 2
Fore
SplineSet
-5 11 m 2xd640
 -5 25 l 1xf640
 3 154 111 255 239 255 c 2
 250 255 l 2
 254 255 259 255 263 253 c 1
 274 318 285 370 295 424 c 1
 161 548 93 679 93 815 c 0
 93 878 108 942 136 1007 c 0
 175 1096 211 1102 211 1102 c 1
 307 1060 373 909 373 728 c 0
 373 695 371 661 366 626 c 1xfe40
 354 563 l 1
 501 437 666 290 666 97 c 0
 666 87 666 77 665 67 c 0
 646 -175 457 -252 293 -252 c 0
 270 -252 247 -251 225 -248 c 1
 225 -248 222 -248 220 -248 c 1
 197 -388 l 2
 193 -413 191 -436 191 -456 c 0
 191 -619 313 -621 325 -621 c 2
 344 -621 l 2
 378 -621 406 -616 427 -601 c 0
 433 -597 436 -593 436 -590 c 0
 436 -586 432 -584 427 -582 c 0
 418 -580 411 -580 402 -576 c 1
 361 -563 332 -527 332 -482 c 2
 332 -475 l 1
 337 -423 380 -380 434 -380 c 2
 441 -380 l 1
 487 -383 526 -419 532 -464 c 0
 533 -464 536 -479 536 -500 c 0xd540
 536 -555 511 -658 346 -658 c 0
 339 -658 331 -657 323 -657 c 0
 252 -653 146 -609 146 -452 c 0
 146 -431 148 -408 152 -383 c 2
 152 -383 164 -324 177 -234 c 1
 65 -192 -5 -101 -5 11 c 2xd640
204 943 m 1xde40
 171 943 138 917 138 863 c 0
 138 856 139 849 140 841 c 0
 152 758 214 673 321 592 c 1
 325 616 329 635 329 641 c 1
 331 652 331 664 331 677 c 0
 331 780 283 939 204 943 c 1xde40
586 8 m 1
 586 16 l 2
 586 183 459 305 328 402 c 1
 303 246 l 1
 393 219 464 134 464 44 c 0
 464 29 462 14 458 0 c 0
 442 -68 397 -118 350 -133 c 0
 341 -136 334 -137 329 -137 c 0
 321 -137 317 -133 317 -129 c 0
 317 -123 324 -115 332 -111 c 0
 352 -102 397 -53 399 -12 c 1
 399 -2 l 2xf6c0
 399 68 347 101 281 112 c 1
 227 -208 l 1
 242 -213 265 -216 293 -216 c 0
 402 -216 580 -167 586 8 c 1
184 -197 m 1
 200 -106 220 3 241 116 c 1
 237 116 l 2
 153 116 81 49 77 -35 c 1
 77 -46 l 2
 77 -116 114 -167 184 -197 c 1
EndSplineSet
EndChar

StartChar: uniE074
Encoding: 57460 57460 104
Width: 674
Flags: MW
HStem: 241 139<237 239 239 241 237 250> 712 36<281.5 347.5> 1117 37<319 428.5 342.5 344>
VStem: -5 82<471 542 531 541> 93 45<-394 -251> 146 45<942 1026.5> 331 42<-232.5 -215.5 -322.5 -174.5> 332 204<971 1023.5 985.5 1000.5> 399 65<407 508 407 508> 586 79
LayerCount: 2
Fore
SplineSet
-5 471 m 1xf640
 -5 485 l 2
 -5 597 65 688 177 730 c 1
 164 820 152 879 152 879 c 2
 148 904 146 927 146 948 c 0
 146 1105 252 1149 323 1153 c 0
 331 1153 339 1154 346 1154 c 0
 511 1154 536 1051 536 996 c 0
 536 975 533 960 532 960 c 0
 526 915 487 879 441 876 c 1
 434 876 l 2
 380 876 337 919 332 971 c 1
 332 978 l 2
 332 1023 361 1059 402 1072 c 1
 411 1076 418 1076 427 1078 c 0
 432 1080 436 1082 436 1086 c 0
 436 1089 433 1093 427 1097 c 0
 406 1112 378 1117 344 1117 c 2
 325 1117 l 2
 313 1117 191 1115 191 952 c 0
 191 932 193 909 197 884 c 2
 220 744 l 1
 222 744 225 744 225 744 c 1xf540
 247 747 270 748 293 748 c 0
 457 748 646 671 665 429 c 0
 666 419 666 409 666 399 c 0
 666 206 501 59 354 -67 c 1
 366 -130 l 1
 371 -165 373 -199 373 -232 c 0
 373 -413 307 -564 211 -606 c 1
 211 -606 175 -600 136 -511 c 0
 108 -446 93 -382 93 -319 c 0xfe40
 93 -183 161 -52 295 72 c 1
 285 126 274 178 263 243 c 1
 259 241 254 241 250 241 c 2
 239 241 l 2
 111 241 3 342 -5 471 c 1xf640
204 -447 m 1xfe40
 283 -443 331 -284 331 -181 c 0
 331 -168 331 -156 329 -145 c 1
 329 -139 325 -120 321 -96 c 1
 214 -177 152 -262 140 -345 c 0
 139 -353 138 -360 138 -367 c 0
 138 -421 171 -447 204 -447 c 1xfe40
586 480 m 2
 586 488 l 1
 580 663 402 712 293 712 c 0
 265 712 242 709 227 704 c 1
 281 384 l 1
 347 395 399 428 399 498 c 2
 399 508 l 1
 397 549 352 598 332 607 c 0
 324 611 317 619 317 625 c 0
 317 629 321 633 329 633 c 0
 334 633 341 632 350 629 c 0
 397 614 442 564 458 496 c 0
 462 482 464 467 464 452 c 0xf6c0
 464 362 393 277 303 250 c 1
 328 94 l 1
 459 191 586 313 586 480 c 2
184 693 m 1
 114 663 77 612 77 542 c 2
 77 531 l 1
 81 447 153 380 237 380 c 2
 241 380 l 1
 220 493 200 602 184 693 c 1
EndSplineSet
EndChar

StartChar: uniE075
Encoding: 57461 57461 105
Width: 699
Flags: MW
HStem: -503 27<216 279.5 216 298.5> -89 37<190 231 134 256> 52 37<190 231> 476 27<216 271>
VStem: 0 141<-328 -213 212 327> 269 146<-387 -371.5 -412.5 -347.5 371.5 385> 469 43<-482 -38 -38 -38 37 481> 571 128<-480 480>
LayerCount: 2
Fore
SplineSet
0 -271 m 0
 0 -155 61 -52 207 -52 c 0
 255 -52 271 -70 285 -70 c 0
 300 -70 315 -47 324 -32 c 2
 326 -29 l 1
 329 -19 337 -11 337 0 c 0
 337 9 333 14 326 28 c 1
 317 41 301 68 285 68 c 0
 271 68 255 52 207 52 c 0
 61 52 0 155 0 269 c 0
 0 385 82 503 226 503 c 0
 371 503 415 433 415 392 c 0
 415 351 382 305 339 305 c 0
 296 305 269 328 269 367 c 0
 269 403 301 427 310 434 c 0
 313 437 327 441 327 447 c 0
 327 448 327 450 325 451 c 0
 305 471 283 476 259 476 c 0
 173 476 141 390 141 328 c 2
 141 208 l 2
 141 130 157 89 223 89 c 0
 289 89 314 130 330 180 c 0
 337 201 345 209 352 209 c 0
 362 209 371 194 374 180 c 0
 401 60 440 41 469 37 c 1
 469 481 l 2
 469 494 478 503 490 503 c 0
 503 503 512 494 512 481 c 2
 512 -482 l 2
 512 -494 503 -503 490 -503 c 0
 478 -503 469 -494 469 -482 c 2
 469 -38 l 1
 440 -41 401 -61 374 -180 c 0
 371 -194 362 -209 352 -209 c 0
 345 -209 337 -201 330 -180 c 0
 314 -130 289 -89 223 -89 c 0
 157 -89 141 -130 141 -209 c 2
 141 -328 l 2
 141 -391 173 -476 259 -476 c 0
 300 -476 314 -462 323 -453 c 0
 326 -450 327 -449 327 -447 c 0
 327 -442 316 -438 312 -435 c 0
 307 -432 269 -407 269 -367 c 0
 269 -328 296 -305 339 -305 c 0
 382 -305 415 -351 415 -392 c 0
 415 -433 371 -503 226 -503 c 0
 82 -503 0 -385 0 -271 c 0
571 -480 m 2
 571 480 l 2
 571 492 581 503 594 503 c 2
 676 503 l 2
 688 503 699 492 699 480 c 2
 699 -480 l 2
 699 -492 688 -503 676 -503 c 2
 594 -503 l 2
 581 -503 571 -492 571 -480 c 2
EndSplineSet
EndChar

StartChar: uniE076
Encoding: 57462 57462 106
Width: 724
Flags: MW
HStem: -179 112<39.5 70> -110 206<544 549 544 544> 66 111<39.5 70> 229 33<435.5 452>
VStem: -1 111<-138 -107.5 106.5 137> 148 149<-28 -27.5 -74 -21 -74 -21> 608 69<40.5 118>
LayerCount: 2
Fore
SplineSet
426 262 m 1x5e
 431 262 l 2
 581 262 677 135 677 43 c 0
 677 38 677 34 676 29 c 0
 665 -61 607 -110 549 -110 c 2
 544 -110 l 1
 483 -109 448 -70 448 -9 c 0
 448 80 512 96 555 96 c 0
 563 96 571 96 577 95 c 1
 584 95 l 2
 605 95 608 108 608 116 c 0
 608 120 607 123 607 123 c 1
 561 226 452 229 452 229 c 1
 419 229 381 215 358 190 c 1
 319 145 305 76 299 19 c 0
 297 1 297 -18 297 -37 c 0
 297 -111 309 -188 332 -258 c 0
 366 -359 444 -438 529 -503 c 0
 576 -539 629 -561 680 -591 c 0
 695 -600 700 -606 700 -611 c 0
 700 -618 688 -622 682 -621 c 0
 375 -566 148 -238 148 -28 c 2
 148 -21 l 1
 152 250 426 262 426 262 c 1x5e
55 -67 m 0xbe
 85 -67 110 -92 110 -123 c 0
 110 -153 85 -179 55 -179 c 0
 24 -179 -1 -153 -1 -123 c 0
 -1 -92 24 -67 55 -67 c 0xbe
55 177 m 0
 85 177 110 152 110 122 c 0
 110 91 85 66 55 66 c 0
 24 66 -1 91 -1 122 c 0
 -1 152 24 177 55 177 c 0
EndSplineSet
EndChar

StartChar: uniE077
Encoding: 57463 57463 107
Width: 724
Flags: MW
HStem: -264 33<406 432 406 432> -179 111<19.5 50> -98 206<524 529 529 539> 65 112<19.5 50>
VStem: -21 111<-139 -108.5 105.5 136> 128 149<25.5 26 26 72 25.5 131> 588 69<-120 -42.5>
LayerCount: 2
Fore
SplineSet
411 -264 m 2xae
 406 -264 l 1
 406 -264 132 -252 128 19 c 1
 128 26 l 2
 128 236 355 564 662 619 c 0
 668 620 680 616 680 609 c 0
 680 604 675 598 660 589 c 0
 609 559 556 537 509 501 c 0
 424 436 346 357 312 256 c 0
 289 186 277 109 277 35 c 0
 277 16 277 -3 279 -21 c 0
 285 -78 299 -147 338 -192 c 1
 361 -217 399 -231 432 -231 c 1
 432 -231 541 -228 587 -125 c 1
 587 -125 588 -122 588 -118 c 0
 588 -110 585 -97 564 -97 c 2
 557 -97 l 1
 551 -98 543 -98 535 -98 c 0
 492 -98 428 -82 428 7 c 0
 428 68 463 107 524 108 c 1
 529 108 l 2
 587 108 645 59 656 -31 c 0
 657 -36 657 -40 657 -45 c 0
 657 -137 561 -264 411 -264 c 2xae
35 65 m 0xde
 4 65 -21 90 -21 121 c 0
 -21 151 4 177 35 177 c 0
 65 177 90 151 90 121 c 0
 90 90 65 65 35 65 c 0xde
35 -179 m 0
 4 -179 -21 -154 -21 -124 c 0
 -21 -93 4 -68 35 -68 c 0
 65 -68 90 -93 90 -124 c 0
 90 -154 65 -179 35 -179 c 0
EndSplineSet
EndChar

StartChar: uniE078
Encoding: 57464 57464 108
Width: 239
Flags: MW
HStem: -336 32<116.5 121.5> 174 11 178 13 233 100<108.5 130 108.5 135.5> 277 12<0 5>
VStem: 30 40<203 213.5> 33 19<342 345> 59 19<-312 -293> 139 19<-338 -333 -333 -333> 169 40<203 213.5 203 213.5> 187 19<342 345>
LayerCount: 2
Fore
SplineSet
204 312 m 1xd220
 217 305 228 297 239 289 c 1
 236 277 l 1
 229 277 224 273 220 267 c 0xd220
 216 260 213 248 210 229 c 0
 209 221 209 215 209 212 c 0
 209 194 213 185 223 185 c 1
 221 173 l 1
 194 175 l 1
 161 -293 l 1
 163 -292 164 -292 165 -292 c 0
 170 -293 173 -294 176 -297 c 0
 179 -300 180 -308 180 -309 c 0xd240
 180 -316 172 -323 158 -328 c 1
 158 -339 l 2
 158 -342 157 -344 154 -346 c 0
 153 -347 151 -348 148 -348 c 0
 145 -348 143 -347 141 -345 c 0
 140 -343 139 -341 139 -338 c 2
 139 -333 l 1
 131 -335 124 -336 119 -336 c 0
 114 -336 108 -335 99 -333 c 1
 100 -338 l 2
 100 -341 99 -343 97 -345 c 0
 96 -347 94 -348 91 -348 c 0
 89 -348 86 -347 84 -346 c 0
 82 -344 81 -342 81 -339 c 2
 80 -328 l 1
 66 -323 59 -316 59 -308 c 0
 59 -304 60 -301 64 -297 c 0
 67 -294 70 -292 74 -292 c 0
 76 -292 77 -292 78 -293 c 2
 45 175 l 1
 17 173 l 1xd1a0
 16 185 l 1
 25 185 30 194 30 212 c 0
 30 215 29 221 29 229 c 1
 26 248 23 260 19 267 c 0
 15 273 10 277 0 277 c 1
 0 289 l 1xcc20
 10 297 22 305 35 312 c 1
 33 342 l 2
 33 345 34 347 35 349 c 0
 37 351 39 352 42 352 c 0
 44 352 47 351 49 350 c 0
 51 348 52 346 52 344 c 2xca20
 53 320 l 1
 76 329 98 333 119 333 c 0
 141 333 163 329 185 320 c 1
 187 344 l 2
 187 346 188 348 190 350 c 0
 192 351 194 352 196 352 c 0
 199 352 202 351 203 349 c 0
 205 347 206 345 206 342 c 2
 204 312 l 1xd220
63 177 m 1xb440
 97 -301 l 1
 104 -303 111 -304 119 -304 c 0
 127 -304 135 -303 141 -301 c 1
 175 177 l 1
 154 179 l 1
 156 191 l 1
 164 191 169 196 169 204 c 0
 169 223 152 233 119 233 c 0
 86 233 70 223 70 204 c 0
 70 196 74 191 84 191 c 1
 84 179 l 1
 63 177 l 1xb440
EndSplineSet
EndChar

StartChar: uniE079
Encoding: 57465 57465 109
Width: 284
Flags: MW
HStem: 42 111<167.5 189.5 167.5 197> 348 87<99.5 108 108 114>
VStem: 0 39<17.5 20 20 43 43 339> 234 50<-76.5 -53.5>
LayerCount: 2
Fore
SplineSet
0 453 m 1
 1 458 3 465 8 465 c 0
 9 465 11 464 13 463 c 0
 22 457 76 435 123 435 c 0
 169 435 210 454 220 462 c 0
 224 465 227 466 230 466 c 0
 235 466 237 462 237 453 c 1
 225 350 142 348 114 348 c 2
 108 348 l 2
 90 348 70 348 58 352 c 0
 55 353 52 354 50 354 c 0
 43 354 39 349 39 339 c 2
 39 43 l 1
 39 20 l 2
 39 15 39 11 40 11 c 0
 41 11 43 13 45 18 c 2
 48 25 l 2
 66 69 88 121 133 143 c 0
 147 150 161 153 174 153 c 0
 205 153 234 136 251 106 c 0
 276 64 284 6 284 -48 c 0
 284 -105 275 -158 269 -186 c 0
 257 -239 232 -300 211 -350 c 0
 201 -372 187 -398 174 -417 c 0
 173 -418 136 -463 132 -463 c 1
 132 -463 l 1
 132 -457 138 -440 138 -440 c 1
 223 -290 234 -105 234 -74 c 0
 234 -33 216 42 178 42 c 0
 88 42 15 -219 7 -219 c 0
 0 -219 0 -206 0 -197 c 2
 0 453 l 1
EndSplineSet
EndChar

StartChar: uniE07A
Encoding: 57466 57466 110
Width: 440
Flags: MW
HStem: -455 32<211 212> -181 32<208.5 253.5 208.5 254> 48 103<291 318.5>
VStem: 1 60 85 151<-344.5 -336.5> 133 49<-30 42.5> 192 34<450.5 468> 312 33<-363.5 -308.5> 339 37<523 539.5 461 543> 386 54<-45.5 -39 -39 -39>
LayerCount: 2
Fore
SplineSet
440 1 m 1xf340
 440 -9 l 2
 440 -82 397 -142 324 -169 c 1
 331 -215 345 -262 345 -312 c 0
 345 -415 271 -451 225 -454 c 0
 220 -454 214 -455 210 -455 c 0
 102 -455 85 -380 85 -343 c 0
 85 -330 87 -320 88 -320 c 0
 93 -279 129 -248 168 -248 c 0
 178 -248 187 -250 197 -255 c 0
 224 -266 236 -292 236 -320 c 2
 236 -325 l 2
 236 -364 200 -385 173 -393 c 1
 167 -396 162 -396 156 -397 c 1
 153 -399 150 -400 150 -403 c 0
 150 -405 152 -407 156 -410 c 0
 170 -420 189 -423 211 -423 c 2
 224 -423 l 2
 232 -423 312 -422 312 -315 c 0
 312 -302 308 -265 305 -249 c 2
 292 -178 l 1xf940
 278 -178 264 -181 244 -181 c 0
 137 -181 13 -131 1 28 c 0
 0 35 0 42 0 48 c 0
 0 174 108 271 205 353 c 1
 197 395 l 2
 193 418 192 440 192 461 c 0
 192 580 236 679 298 707 c 1
 298 707 322 703 347 644 c 1
 366 602 376 560 376 519 c 0xf2c0
 376 403 344 320 256 239 c 1
 263 203 266 193 273 150 c 1
 275 151 279 151 281 151 c 2
 288 151 l 2
 372 151 434 85 440 1 c 1xf340
303 578 m 0xf2c0
 251 576 226 502 226 434 c 0
 226 426 226 418 227 411 c 0
 227 407 230 394 232 378 c 1
 302 432 330 457 338 511 c 0
 339 516 339 521 339 525 c 0
 339 561 325 578 303 578 c 0xf2c0
61 -5 m 2
 61 -11 l 1
 65 -125 173 -149 244 -149 c 0
 263 -149 277 -147 287 -143 c 1
 253 45 l 1
 218 38 182 22 182 -24 c 2
 182 -30 l 1
 183 -57 206 -83 219 -88 c 1
 224 -91 229 -96 229 -100 c 0
 229 -103 226 -106 221 -106 c 0
 218 -106 213 -105 207 -103 c 0
 176 -93 147 -60 137 -16 c 0
 134 -7 133 3 133 13 c 0xf740
 133 72 179 128 238 145 c 1
 226 224 l 1
 140 160 61 104 61 -5 c 2
319 -136 m 1
 366 -116 386 -92 386 -46 c 2
 386 -39 l 1
 383 16 346 48 291 48 c 1
 305 -26 309 -77 319 -136 c 1
EndSplineSet
EndChar

StartChar: uniE07B
Encoding: 57467 57467 111
Width: 506
Flags: MW
HStem: -332 27<311.5 353.5 311.5 394.5> -67 42<344 371> -34 68<187 187> 26 42<344 371 327.5 408> 306 26<317.5 353.5>
VStem: 0 102<-317 317> 150 37<-318 -34 34 317> 222 106<-246.5 -227.5 228 245.5> 395 111<-216 -140.5 -216.5 -138 -216.5 -112 140 216>
LayerCount: 2
Fore
SplineSet
506 -179 m 0xdf80
 506 -254 442 -332 347 -332 c 0
 251 -332 222 -268 222 -241 c 0
 222 -214 244 -183 273 -183 c 0
 301 -183 328 -207 328 -233 c 0
 328 -260 297 -271 290 -278 c 0
 288 -280 280 -282 280 -286 c 0
 280 -287 281 -288 283 -290 c 0
 289 -296 298 -305 325 -305 c 0
 382 -305 395 -258 395 -216 c 2
 395 -138 l 2
 395 -86 393 -67 349 -67 c 0
 306 -67 289 -86 279 -119 c 0
 274 -133 269 -138 264 -138 c 0xdf80
 257 -138 251 -128 249 -119 c 0
 232 -40 206 -36 187 -34 c 1
 187 -318 l 2
 187 -326 172 -332 164 -332 c 0
 156 -332 150 -326 150 -318 c 2
 150 317 l 2
 150 326 156 332 164 332 c 0
 172 332 187 326 187 317 c 2
 187 34 l 1
 206 36 232 40 249 119 c 0xaf80
 251 128 257 138 264 138 c 0
 269 138 274 133 279 119 c 0
 289 86 306 68 349 68 c 0
 393 68 395 86 395 137 c 2
 395 216 l 2
 395 257 382 306 325 306 c 0
 310 306 295 302 282 289 c 0
 280 288 280 287 280 286 c 0
 280 282 290 280 292 278 c 0
 298 273 328 257 328 234 c 0
 328 208 301 184 273 184 c 0
 244 184 222 214 222 242 c 0
 222 269 251 332 347 332 c 0
 442 332 506 254 506 178 c 0
 506 102 456 26 360 26 c 0
 328 26 317 45 308 45 c 0
 300 45 290 31 284 22 c 1
 284 20 282 20 281 18 c 0
 277 9 274 6 274 0 c 0
 274 -7 279 -13 282 -21 c 1
 288 -31 298 -46 308 -46 c 0
 317 -46 328 -25 360 -25 c 0
 456 -25 506 -102 506 -179 c 0xdf80
102 317 m 2
 102 -317 l 2
 102 -325 96 -332 87 -332 c 2
 15 -332 l 2
 7 -332 0 -325 0 -317 c 2
 0 317 l 2
 0 325 7 332 15 332 c 2
 87 332 l 2
 96 332 102 325 102 317 c 2
EndSplineSet
EndChar

StartChar: uniE07C
Encoding: 57468 57468 112
Width: 462
Flags: MW
HStem: -129 88<406.5 430.5> -94 153<70 84 84 88> 39 88<405.5 430> 136 34<128 166>
VStem: 0 169<4.5 19.5 -30 36.5> 234 116<-39.5 -22 -39.5 -22> 374 88<71.5 96>
LayerCount: 2
Fore
SplineSet
162 170 m 2x5c
 166 170 l 1
 166 170 234 166 288 122 c 0
 321 95 348 51 350 -18 c 1
 350 -22 l 2
 350 -57 340 -98 322 -139 c 0
 299 -193 262 -248 215 -295 c 0
 165 -345 75 -414 -2 -414 c 0
 -6 -414 -15 -408 -15 -403 c 0
 -15 -400 -12 -391 -2 -385 c 0
 32 -366 67 -351 98 -327 c 0
 154 -284 188 -241 211 -174 c 0
 226 -128 234 -77 234 -28 c 0
 234 -16 234 -3 232 9 c 0
 232 14 231 16 231 17 c 0
 227 51 224 82 200 110 c 0
 185 126 168 135 147 135 c 1
 147 135 143 136 137 136 c 0
 119 136 78 130 55 77 c 1
 55 77 54 75 54 73 c 0
 54 67 56 59 70 59 c 2
 89 59 l 2
 117 59 169 49 169 -10 c 0
 169 -50 128 -94 88 -94 c 2
 84 -94 l 2
 46 -94 8 -63 1 -3 c 0
 0 0 0 3 0 6 c 0
 0 67 50 170 162 170 c 2x5c
418 -41 m 0xbe
 443 -41 463 -61 463 -85 c 0
 463 -109 443 -129 418 -129 c 0
 395 -129 375 -109 375 -85 c 0
 375 -61 395 -41 418 -41 c 0xbe
418 127 m 0
 442 127 462 108 462 84 c 0
 462 59 442 39 418 39 c 0
 393 39 374 59 374 84 c 0
 374 108 393 127 418 127 c 0
EndSplineSet
EndChar

StartChar: uniE07D
Encoding: 57469 57469 113
Width: 205
Flags: MW
HStem: 0 12<82.5 99> 230 17<120 125 113 128.5>
VStem: 0 38<70 76.5 70 84> 39 50<178 205> 129 50<40 77> 169 36<190 194.5>
LayerCount: 2
Fore
SplineSet
113 247 m 2xd4
 117 247 l 2xd4
 133 247 205 237 205 187 c 0
 205 152 183 144 174 137 c 0
 168 132 166 127 166 121 c 0xe4
 166 115 166 110 170 105 c 1
 176 94 179 83 179 71 c 0
 179 44 161 18 133 6 c 0
 122 2 106 0 92 0 c 0
 58 0 10 21 2 58 c 0
 1 63 0 66 0 70 c 0xe8
 0 98 25 127 51 136 c 0
 55 137 57 138 57 141 c 0
 57 143 56 144 55 144 c 0
 44 157 39 171 39 185 c 0
 39 209 53 231 79 241 c 1
 89 246 101 247 113 247 c 2xd4
89 205 m 1
 89 191 99 180 107 171 c 0
 115 163 123 153 133 146 c 1
 138 144 143 142 146 142 c 0
 163 142 168 172 169 190 c 0
 169 199 166 210 160 216 c 0
 152 225 137 230 120 230 c 1
 105 229 91 222 89 205 c 1
55 109 m 1xe8
 52 107 49 104 48 101 c 1
 42 93 38 82 38 71 c 0
 38 69 38 67 39 64 c 0
 46 32 73 12 92 12 c 0
 112 12 129 32 129 48 c 0
 129 53 127 57 125 62 c 0
 120 75 111 86 100 96 c 0
 94 101 89 106 83 110 c 0
 79 112 74 116 69 116 c 0
 63 116 58 113 55 109 c 1xe8
EndSplineSet
EndChar

StartChar: uniE07E
Encoding: 57470 57470 114
Width: 359
Flags: MW
HStem: -3 13<207 213 207 239> 0 21G<120 123.5> 141 23<250.5 252.5> 203 45
VStem: 150 51<52.5 61.5> 179 41<120.5 167.5> 280 44<64 123>
LayerCount: 2
Fore
SplineSet
120 0 m 0x7a
 89 4 0 -9 0 9 c 1
 8 27 29 2 47 39 c 0
 55 55 87 136 86 136 c 2
 86 136 88 141 88 145 c 0
 88 149 87 152 81 152 c 0
 71 152 67 133 47 133 c 0
 41 133 36 136 36 141 c 0
 36 143 36 144 38 147 c 0
 44 154 118 240 125 246 c 0
 132 252 136 255 141 255 c 0
 151 255 158 244 174 244 c 0
 180 244 185 248 188 248 c 0
 192 248 193 247 193 243 c 2
 193 239 l 1
 192 232 106 39 105 31 c 1
 105 10 132 20 132 9 c 0
 132 4 127 0 120 0 c 0x7a
166 84 m 1xba
 173 86 l 1
 177 86 l 2
 191 86 201 74 201 60 c 0
 201 45 187 42 184 24 c 1
 184 13 201 10 213 10 c 0xba
 228 11 253 20 273 77 c 0
 278 91 280 101 280 109 c 0
 280 137 258 141 247 141 c 0
 220 141 200 114 190 114 c 0
 179 114 179 118 179 123 c 0
 179 139 215 246 227 248 c 1
 292 248 l 2
 326 248 359 249 359 244 c 0
 359 222 325 210 304 206 c 2
 275 200 l 2
 264 198 253 196 241 193 c 2
 227 190 l 1
 222 186 220 171 220 164 c 0
 220 163 221 161 224 161 c 0
 232 161 246 164 255 164 c 0xb6
 279 164 286 152 298 152 c 1
 301 149 l 1
 316 138 324 116 324 94 c 0
 324 34 266 -3 212 -3 c 0
 181 -3 150 17 150 55 c 0
 150 68 155 78 166 84 c 1xba
EndSplineSet
EndChar

StartChar: uniE080
Encoding: 57472 57472 116
Width: 429
Flags: MW
HStem: -250 45<194 235.5 194 274.5> 220 31<194 235.5>
VStem: 0 140<-51.5 66 -51.5 69.5> 290 140<-51.5 66>
LayerCount: 2
Fore
SplineSet
430 0 m 0
 430 -138 334 -250 215 -250 c 0
 96 -250 0 -138 0 0 c 0
 0 139 96 251 215 251 c 0
 334 251 430 139 430 0 c 0
215 220 m 0
 173 220 140 125 140 7 c 0
 140 -110 173 -205 215 -205 c 0
 256 -205 290 -110 290 7 c 0
 290 125 256 220 215 220 c 0
EndSplineSet
AlternateSubs2: "'ss04' Stilgruppe 4 lookup 3 subtable" uniE080.ss04
AlternateSubs2: "'ss01' Stilgruppe 1 lookup 0 subtable" uniE080.ss01
EndChar

StartChar: uniE081
Encoding: 57473 57473 117
Width: 293
Flags: MW
HStem: -250 31<57.5 64 64 69.5 271 277>
VStem: 103 143<-181 77 77 80>
LayerCount: 2
Fore
SplineSet
3 13 m 1
 99 232 l 2
 103 241 106 251 117 251 c 0
 118 251 120 250 122 250 c 0
 137 248 155 247 174 247 c 0
 187 247 212 251 226 251 c 0
 240 250 246 244 246 228 c 0
 246 212 246 -184 246 -184 c 2
 246 -201 264 -219 278 -219 c 0
 293 -219 293 -234 293 -234 c 1
 293 -234 293 -250 277 -250 c 2
 64 -250 l 2
 51 -250 42 -245 42 -234 c 0
 42 -222 52 -219 59 -219 c 0
 80 -219 103 -204 103 -181 c 2
 103 77 l 2
 103 83 101 91 97 91 c 0
 95 91 91 88 87 81 c 0
 76 62 33 -7 33 -7 c 1
 33 -7 29 -16 19 -16 c 0
 16 -16 14 -15 10 -14 c 0
 2 -11 -1 -5 -1 0 c 0
 -1 7 3 13 3 13 c 1
EndSplineSet
AlternateSubs2: "'ss04' Stilgruppe 4 lookup 3 subtable" uniE081.ss04
AlternateSubs2: "'ss01' Stilgruppe 1 lookup 0 subtable" uniE081.ss01
EndChar

StartChar: uniE082
Encoding: 57474 57474 118
Width: 416
Flags: MW
HStem: -250 117<228.5 354.5> -196 101<99.5 209.5> 229 25<203.5 223.5>
VStem: 8 161<111 131.5> 269 145<114 125.5 80 147.5> 384 25<-87.5 -87>
LayerCount: 2
Fore
SplineSet
409 -91 m 1xb4
 393 -246 316 -250 273 -250 c 0xb8
 184 -250 169 -196 129 -196 c 0
 70 -196 58 -257 36 -257 c 0
 34 -257 31 -257 28 -255 c 0
 17 -248 10 -235 10 -224 c 0
 10 -222 11 -220 11 -218 c 0
 28 -155 67 -106 122 -71 c 0
 171 -41 199 -17 235 31 c 0
 257 60 269 95 269 133 c 0
 269 162 268 229 179 229 c 0
 120 229 102 205 100 191 c 1
 100 171 169 168 169 108 c 0
 169 83 160 20 99 20 c 0
 63 20 32 44 17 75 c 1
 11 90 8 104 8 118 c 0
 8 145 19 170 36 191 c 0
 60 219 95 240 130 247 c 0
 156 253 190 254 217 254 c 0
 239 254 317 248 368 205 c 0
 394 183 414 149 414 102 c 0
 414 58 395 29 371 10 c 0
 338 -17 296 -25 281 -29 c 0
 259 -35 174 -65 152 -101 c 1
 163 -97 176 -95 189 -95 c 0
 230 -95 277 -111 297 -119 c 0x78
 307 -124 314 -125 327 -130 c 0
 334 -132 339 -133 344 -133 c 0
 365 -133 373 -114 383 -90 c 0
 383 -89 384 -88 384 -87 c 0
 386 -81 389 -77 397 -77 c 0
 404 -77 409 -79 409 -91 c 1xb4
EndSplineSet
AlternateSubs2: "'ss04' Stilgruppe 4 lookup 3 subtable" uniE082.ss04
AlternateSubs2: "'ss01' Stilgruppe 1 lookup 0 subtable" uniE082.ss01
EndChar

StartChar: uniE083
Encoding: 57475 57475 119
Width: 386
Flags: MW
HStem: -251 38<175 182 169 184 175 175> -4 29<123 123> 215 34<146.5 184.5 139 193.5>
VStem: 4 130<-196 -130> 10 99<122.5 186> 244 120<131 138 138 150> 247 138<-148 -112 -112 -105 -156 -88.5>
LayerCount: 2
Fore
SplineSet
197 248 m 0xec
 239 245 364 218 364 126 c 0
 364 103 358 80 342 62 c 0
 331 49 318 42 303 35 c 0
 294 30 283 29 272 26 c 0
 269 25 268 21 268 17 c 0
 268 15 268 14 269 12 c 0
 271 8 274 8 279 7 c 2
 312 -2 l 1
 333 -14 l 2
 343 -20 351 -27 357 -35 c 0
 365 -44 372 -54 376 -64 c 0xec
 382 -77 384 -91 385 -105 c 1
 385 -112 l 2
 385 -200 283 -251 184 -251 c 2
 175 -251 l 1
 77 -249 6 -219 4 -141 c 0
 4 -119 9 -95 26 -80 c 1
 38 -67 57 -57 74 -54 c 0
 78 -53 81 -53 85 -53 c 0
 112 -53 141 -69 152 -94 c 0
 156 -104 157 -115 157 -125 c 0
 156 -154 134 -169 134 -191 c 2
 134 -196 l 1
 135 -211 154 -211 162 -212 c 0
 163 -212 167 -213 171 -213 c 0
 193 -213 247 -201 247 -95 c 0xf2
 247 -82 238 -4 123 -4 c 0
 115 -4 98 -4 98 8 c 0
 98 19 112 24 122 25 c 0
 185 28 244 57 244 131 c 2
 244 138 l 2
 244 162 236 215 151 215 c 0
 142 215 111 207 109 190 c 1
 109 186 l 2
 109 172 124 174 129 172 c 0
 134 170 159 168 162 131 c 1
 162 123 l 2
 162 90 140 58 96 58 c 2
 91 58 l 1
 29 62 10 106 10 139 c 0
 10 192 96 249 182 249 c 0
 187 249 192 248 197 248 c 0xec
EndSplineSet
AlternateSubs2: "'ss04' Stilgruppe 4 lookup 3 subtable" uniE083.ss04
AlternateSubs2: "'ss01' Stilgruppe 1 lookup 0 subtable" uniE083.ss01
EndChar

StartChar: uniE084
Encoding: 57476 57476 120
Width: 433
Flags: MW
HStem: -250 40<160 172 164 177 160 377> -112 38<73 208 73 208 344 417 344 365.5>
VStem: 140 177<236 240> 208 136<-175 -171 -171 -112 -187 -112 -74 10 10 16>
LayerCount: 2
Fore
SplineSet
417 -74 m 2xd0
 428 -74 432 -81 432 -93 c 0
 432 -105 427 -112 417 -112 c 2
 417 -112 387 -112 344 -112 c 1
 344 -171 l 2
 344 -203 365 -209 375 -209 c 0
 385 -209 397 -215 397 -229 c 0
 397 -243 387 -250 377 -250 c 2
 377 -250 180 -250 164 -250 c 0
 149 -250 145 -239 145 -229 c 0
 145 -219 152 -210 168 -210 c 0
 186 -210 208 -202 208 -175 c 2
 208 -112 l 1xd0
 22 -112 l 2
 10 -112 2 -105 2 -95 c 0
 2 -92 3 -88 5 -84 c 0
 5 -83 6 -82 6 -81 c 2
 12 -73 l 1
 42 -31 140 108 140 232 c 0
 140 248 154 251 163 251 c 0
 171 251 216 249 234 249 c 0
 252 249 293 251 302 251 c 0
 310 251 317 245 317 237 c 0
 317 235 316 234 316 232 c 0xe0
 313 221 153 -6 73 -74 c 1
 208 -74 l 1
 208 -30 208 10 208 10 c 2
 208 22 213 28 217 33 c 2
 312 148 l 2
 318 155 323 157 332 157 c 0
 343 157 344 148 344 140 c 2
 344 -74 l 1
 417 -74 l 2xd0
EndSplineSet
AlternateSubs2: "'ss04' Stilgruppe 4 lookup 3 subtable" uniE084.ss04
AlternateSubs2: "'ss01' Stilgruppe 1 lookup 0 subtable" uniE084.ss01
EndChar

StartChar: uniE085
Encoding: 57477 57477 121
Width: 363
Flags: MW
HStem: -251 40<139 156 139 237> 43 35<108 243.5> 128 108<169 201 169 247.5>
VStem: 0 158<-127 -124> 15 41 228 135<-132 -41.5 -132 -31.5>
LayerCount: 2
Fore
SplineSet
198 78 m 0xec
 289 78 363 4 363 -87 c 0
 363 -177 297 -251 177 -251 c 0
 54 -251 0 -210 0 -127 c 0
 0 -121 0 -115 1 -109 c 0
 4 -74 26 -35 80 -35 c 0
 123 -35 158 -69 158 -113 c 0
 158 -141 143 -166 120 -180 c 0
 115 -183 108 -187 108 -194 c 0
 109 -201 115 -205 120 -208 c 0xf4
 127 -211 135 -211 143 -211 c 0
 169 -211 228 -197 228 -87 c 0
 228 24 159 43 125 43 c 0
 91 43 67 20 57 10 c 0
 46 -1 45 -10 35 -10 c 0
 25 -10 15 -8 15 5 c 0
 15 6 15 6 15 7 c 2
 26 229 l 2
 27 237 32 246 50 246 c 1
 67 244 153 236 185 236 c 0
 217 236 295 245 308 245 c 0
 319 245 322 237 322 224 c 0
 322 208 317 128 178 128 c 0
 137 128 90 135 80 137 c 1
 76 137 l 2
 67 137 62 132 61 124 c 0
 60 115 56 59 56 59 c 1
 56 59 56 57 56 55 c 0
 56 52 56 48 60 48 c 0
 61 48 63 48 65 49 c 0
 97 68 140 78 198 78 c 0xec
EndSplineSet
AlternateSubs2: "'ss04' Stilgruppe 4 lookup 3 subtable" uniE085.ss04
AlternateSubs2: "'ss01' Stilgruppe 1 lookup 0 subtable" uniE085.ss01
EndChar

StartChar: uniE086
Encoding: 57478 57478 122
Width: 393
Flags: MW
HStem: -249 27<191.5 217 185 226.5> 2 48<185 257.5> 227 24<221 229>
VStem: -1 137<-1 37 3 37> 220 144<143 150> 260 133<-117.5 -92.5 -117.5 -79>
LayerCount: 2
Fore
SplineSet
239 100 m 0xb4
 238 101 236 102 235 104 c 0
 225 115 220 130 220 145 c 0
 220 155 222 165 227 174 c 0
 233 186 252 198 252 212 c 0xb8
 252 222 239 227 219 227 c 0
 198 227 139 222 136 37 c 0
 136 21 139 13 145 13 c 0
 147 13 149 13 151 15 c 0
 177 38 210 50 242 50 c 0
 273 50 304 39 331 19 c 0
 363 -5 388 -40 392 -81 c 0
 392 -86 393 -90 393 -95 c 0
 393 -140 370 -185 335 -213 c 0xf4
 299 -242 249 -249 204 -249 c 0
 179 -249 149 -246 124 -235 c 0
 85 -218 51 -177 30 -139 c 0
 8 -99 0 -47 -1 -1 c 1
 -1 3 l 2
 -1 50 16 103 38 145 c 0
 74 213 145 250 221 251 c 0
 247 251 276 248 300 238 c 1
 330 227 358 203 363 170 c 0
 364 166 364 163 364 159 c 0
 364 127 340 95 309 87 c 0
 301 85 292 83 284 83 c 0xb8
 268 83 251 88 239 100 c 0xb4
201 2 m 0xf4
 169 2 143 -48 143 -110 c 0
 143 -172 169 -222 201 -222 c 0
 233 -222 260 -172 260 -110 c 0
 260 -48 233 2 201 2 c 0xf4
EndSplineSet
AlternateSubs2: "'ss04' Stilgruppe 4 lookup 3 subtable" uniE086.ss04
AlternateSubs2: "'ss01' Stilgruppe 1 lookup 0 subtable" uniE086.ss01
EndChar

StartChar: uniE087
Encoding: 57479 57479 123
Width: 401
Flags: MW
HStem: 61 103<211 329.5> 136 113<71.5 203.5>
VStem: 100 182<-227.5 -199.5> 306 95<63 200>
LayerCount: 2
Fore
SplineSet
282 -213 m 0x60
 282 -242 276 -250 266 -250 c 0
 256 -250 209 -241 184 -241 c 0
 159 -241 137 -250 119 -250 c 0
 100 -250 100 -240 100 -219 c 0x60
 100 -180 131 -122 169 -78 c 0
 229 -7 306 49 306 77 c 1
 305 83 303 86 299 86 c 0
 297 86 293 84 290 82 c 0
 282 76 268 61 240 61 c 0xb0
 182 61 134 136 94 136 c 0
 49 136 36 78 26 53 c 0
 22 42 21 33 11 33 c 0
 1 33 0 49 0 49 c 1
 0 49 0 197 0 214 c 0
 0 223 5 226 10 226 c 0
 15 226 20 223 22 219 c 0
 27 209 40 195 48 195 c 1
 55 196 61 200 75 213 c 0
 89 226 104 249 162 249 c 0
 245 249 292 164 317 164 c 0
 342 164 356 221 363 233 c 0
 367 240 383 244 384 244 c 0
 401 244 401 231 401 204 c 2
 401 200 l 2x70
 401 97 282 -46 282 -213 c 0x60
EndSplineSet
AlternateSubs2: "'ss04' Stilgruppe 4 lookup 3 subtable" uniE087.ss04
AlternateSubs2: "'ss01' Stilgruppe 1 lookup 0 subtable" uniE087.ss01
EndChar

StartChar: uniE088
Encoding: 57480 57480 124
Width: 390
Flags: MW
HStem: -259 33<145.5 212.5 145.5 233> 230 29<170 207.5 136 208>
VStem: -6 57<-159.5 -107 -159.5 -100.5> -1 92<135.5 164> 277 113<-148.5 -119> 309 59<124 179>
LayerCount: 2
Fore
SplineSet
308 36 m 1xe4
 355 12 390 -21 390 -81 c 0
 390 -216 283 -259 183 -259 c 0
 84 -259 -6 -219 -6 -132 c 0xe8
 -6 -69 34 -36 86 -11 c 1
 38 16 -1 53 -1 122 c 0xd4
 -1 206 78 259 194 259 c 0
 221 259 368 244 368 142 c 0
 368 92 344 59 308 36 c 1xe4
179 -226 m 0xe8
 246 -226 277 -192 277 -152 c 0
 277 -86 203 -65 130 -33 c 1
 86 -50 51 -87 51 -127 c 0
 51 -192 112 -226 179 -226 c 0xe8
256 59 m 1xd4
 289 78 309 104 309 144 c 0
 309 214 224 230 192 230 c 0
 148 230 91 209 91 167 c 0
 91 104 176 87 256 59 c 1xd4
EndSplineSet
AlternateSubs2: "'ss04' Stilgruppe 4 lookup 3 subtable" uniE088.ss04
AlternateSubs2: "'ss01' Stilgruppe 1 lookup 0 subtable" uniE088.ss01
EndChar

StartChar: uniE089
Encoding: 57481 57481 125
Width: 395
Flags: MW
HStem: -250 24<164 172> -48 47<135.5 208> 223 27<176 201.5 166.5 208>
VStem: 0 133<93.5 118.5> 29 144<-148 -141.5> 257 137<-36 -2 -25.5 -24.5>
LayerCount: 2
Fore
SplineSet
154 -98 m 1xac
 158 -102 l 2
 168 -113 173 -128 173 -143 c 0
 173 -153 171 -164 166 -173 c 0
 160 -185 141 -197 141 -211 c 0xac
 141 -221 154 -226 174 -226 c 0
 195 -226 254 -220 257 -36 c 1
 257 -31 l 2
 257 -18 253 -11 248 -11 c 0
 246 -11 244 -11 242 -13 c 0
 216 -36 183 -48 151 -48 c 0
 120 -48 89 -37 62 -17 c 0
 30 7 5 42 1 82 c 0
 1 87 0 91 0 96 c 0
 0 141 23 186 58 214 c 0xf4
 94 243 144 250 189 250 c 0
 214 250 244 247 269 236 c 0
 308 219 342 178 363 140 c 0
 385 100 393 48 394 2 c 1
 394 -2 l 2
 394 -49 377 -102 355 -144 c 0
 319 -212 248 -249 172 -250 c 0
 146 -250 117 -247 93 -237 c 1
 63 -226 35 -202 30 -169 c 0
 29 -165 29 -162 29 -158 c 0
 29 -125 53 -94 84 -85 c 0
 92 -83 100 -81 108 -81 c 0
 125 -81 141 -87 154 -98 c 1xac
192 -1 m 0xf4
 224 -1 250 49 250 111 c 0
 250 173 224 223 192 223 c 0
 160 223 133 173 133 111 c 0
 133 49 160 -1 192 -1 c 0xf4
EndSplineSet
AlternateSubs2: "'ss04' Stilgruppe 4 lookup 3 subtable" uniE089.ss04
AlternateSubs2: "'ss01' Stilgruppe 1 lookup 0 subtable" uniE089.ss01
EndChar

StartChar: uniE08A
Encoding: 57482 57482 126
Width: 424
Flags: MW
HStem: -249 33<211.5 268 211.5 310.5> 22 149<313 320.5 293 327> 227 24<231 242.5 218 284>
VStem: 5 123<-14.5 37.5> 250 153<68.5 112.5> 394 30<-75.5 -50 -75.5 -48.5>
LayerCount: 2
Fore
SplineSet
233 251 m 0xb8
 252 251 403 239 403 108 c 0
 403 25 327 22 327 22 c 1
 299 22 250 40 250 97 c 0
 250 128 273 171 313 171 c 0
 328 171 331 184 331 193 c 0xf8
 331 203 310 227 258 227 c 0
 204 227 128 193 128 28 c 0
 128 -137 171 -216 252 -216 c 0
 284 -216 394 -186 394 -57 c 0
 394 -40 401 -39 409 -39 c 0
 413 -39 424 -39 424 -61 c 0xb4
 424 -90 398 -249 223 -249 c 0
 163 -249 108 -228 70 -182 c 0
 37 -142 11 -91 6 -37 c 0
 5 -28 5 -19 5 -10 c 0
 5 85 52 192 141 231 c 0
 168 243 203 251 233 251 c 0xb8
EndSplineSet
AlternateSubs2: "'ss04' Stilgruppe 4 lookup 3 subtable" uniE08A.ss04
EndChar

StartChar: uniE08B
Encoding: 57483 57483 127
Width: 417
Flags: MW
HStem: 21 148<307 314.5 287 321> 225 24<226 277.5> 344 17<175 197.5 188 210>
VStem: 0 123<-14.5 37.5> 175 35<-342 -265 -270 -263 -163 166 166 170 268.5 273.5 273.5 281 281 344> 244 153<67 110.5> 388 30<-74.5 -59 -74.5 -49.5>
LayerCount: 2
Fore
SplineSet
418 -59 m 1x5a
 418 -90 391 -246 221 -249 c 1
 214 -252 210 -257 210 -263 c 0
 210 -270 210 -342 210 -342 c 2
 210 -351 203 -359 192 -359 c 0
 184 -359 175 -351 175 -342 c 2
 175 -342 175 -275 175 -265 c 0
 175 -256 163 -243 156 -240 c 1
 121 -231 90 -211 66 -182 c 0
 31 -141 6 -91 1 -38 c 0
 0 -29 0 -19 0 -10 c 0
 0 85 46 191 136 230 c 1
 163 240 l 2
 165 240 175 249 175 256 c 2
 175 281 l 2
 175 307 175 344 175 344 c 2
 175 352 184 361 192 361 c 0
 203 361 210 352 210 344 c 2
 210 344 210 276 210 271 c 0
 210 266 215 249 221 248 c 1
 228 248 225 249 227 249 c 0
 246 249 397 237 397 107 c 0
 397 24 321 21 321 21 c 1
 293 21 244 39 244 95 c 0
 244 126 267 169 307 169 c 0
 322 169 325 183 325 191 c 0
 325 201 303 225 252 225 c 0xfc
 247 225 241 225 235 224 c 0
 228 223 210 206 210 199 c 2
 210 -197 l 2
 210 -205 216 -211 220 -212 c 0
 228 -214 236 -215 246 -215 c 0
 278 -215 388 -185 388 -57 c 0
 388 -42 394 -40 398 -40 c 2
 402 -40 l 2
 407 -40 417 -40 418 -59 c 1x5a
123 26 m 0
 123 -67 137 -134 164 -172 c 0
 165 -174 167 -175 169 -175 c 0
 172 -175 175 -172 175 -163 c 2
 175 166 l 2
 175 174 169 182 164 182 c 0
 163 182 162 182 161 180 c 0
 139 149 123 102 123 26 c 0
EndSplineSet
AlternateSubs2: "'ss04' Stilgruppe 4 lookup 3 subtable" uniE08B.ss04
EndChar

StartChar: uniE08C
Encoding: 57484 57484 128
Width: 500
Flags: MW
HStem: -38 75<9.5 197 13 197 300 304 301 485> 236 14
VStem: 212 75<-236 -54 55 60.5 60.5 236>
LayerCount: 2
Fore
SplineSet
485 37 m 2
 492 37 499 32 499 23 c 2
 499 -23 l 2
 499 -32 492 -38 485 -38 c 2
 485 -38 307 -38 301 -38 c 0
 294 -38 287 -44 287 -54 c 0
 287 -65 287 -236 287 -236 c 2
 287 -243 281 -250 272 -250 c 2
 226 -250 l 2
 217 -250 212 -243 212 -236 c 2
 212 -236 212 -56 212 -52 c 0
 212 -47 207 -38 197 -38 c 0
 187 -38 13 -38 13 -38 c 2
 6 -38 -1 -32 -1 -23 c 2
 -1 23 l 2
 -1 32 6 37 13 37 c 2
 13 37 191 37 197 37 c 0
 203 37 212 46 212 55 c 0
 212 65 212 236 212 236 c 2
 212 243 217 250 226 250 c 2
 272 250 l 2
 281 250 287 243 287 236 c 2
 287 236 287 66 287 55 c 0
 287 45 292 37 300 37 c 0
 307 37 485 37 485 37 c 2
EndSplineSet
AlternateSubs2: "'ss04' Stilgruppe 4 lookup 3 subtable" uniE08C.ss04
EndChar

StartChar: uniE08D
Encoding: 57485 57485 129
Width: 254
Flags: MW
HStem: -24 38<5 100 7 100 153 155.5 154 247> 115 7
VStem: 108 38<-125 -33 23 26 26 115>
LayerCount: 2
Fore
SplineSet
247 14 m 2
 251 14 254 11 254 7 c 2
 254 -17 l 2
 254 -21 251 -24 247 -24 c 2
 247 -24 157 -24 154 -24 c 0
 150 -24 146 -27 146 -33 c 0
 146 -38 146 -125 146 -125 c 2
 146 -129 143 -133 139 -133 c 2
 115 -133 l 2
 111 -133 108 -129 108 -125 c 2
 108 -125 108 -34 108 -32 c 0
 108 -29 106 -24 100 -24 c 0
 95 -24 7 -24 7 -24 c 2
 3 -24 -1 -21 -1 -17 c 2
 -1 7 l 2
 -1 11 3 14 7 14 c 2
 7 14 97 14 100 14 c 0
 104 14 108 18 108 23 c 0
 108 28 108 115 108 115 c 2
 108 119 111 122 115 122 c 2
 139 122 l 2
 143 122 146 119 146 115 c 2
 146 115 146 29 146 23 c 0
 146 18 149 14 153 14 c 0
 157 14 247 14 247 14 c 2
EndSplineSet
EndChar

StartChar: uniE08E
Encoding: 57486 57486 130
Width: 378
Flags: MW
HStem: -190 379<27 351>
VStem: 0 378<-163 162>
LayerCount: 2
Fore
SplineSet
5 -150 m 2
 338 183 l 2
 342 187 346 189 350 189 c 0
 352 189 354 188 355 187 c 2
 376 166 l 2
 377 165 378 163 378 161 c 0
 378 157 376 152 372 149 c 2
 39 -184 l 2
 36 -188 32 -190 28 -190 c 0
 26 -190 24 -189 23 -188 c 2
 1 -167 l 2
 0 -166 0 -164 0 -162 c 0
 0 -158 2 -154 5 -150 c 2
EndSplineSet
EndChar

StartChar: uniE08F
Encoding: 57487 57487 131
Width: 448
Flags: MW
HStem: -125 75<13.5 430 19 430> 49 75<13.5 430 19 430>
VStem: 0 448<-112 -63 -115.5 -59.5 62 111 -115.5 114.5>
LayerCount: 2
Fore
SplineSet
448 111 m 2
 448 62 l 2
 448 55 440 49 430 49 c 2
 19 49 l 2
 8 49 0 55 0 62 c 2
 0 111 l 2
 0 118 8 124 19 124 c 2
 430 124 l 2
 440 124 448 118 448 111 c 2
448 -63 m 2
 448 -112 l 2
 448 -119 440 -125 430 -125 c 2
 19 -125 l 2
 8 -125 0 -119 0 -112 c 2
 0 -63 l 2
 0 -56 8 -50 19 -50 c 2
 430 -50 l 2
 440 -50 448 -56 448 -63 c 2
EndSplineSet
EndChar

StartChar: uniE090
Encoding: 57488 57488 132
Width: 448
Flags: MW
HStem: -35 75<13.5 430 19 430>
VStem: 0 448<-22 27 -25.5 30.5>
LayerCount: 2
Fore
SplineSet
448 27 m 2
 448 -22 l 2
 448 -29 440 -35 430 -35 c 2
 19 -35 l 2
 8 -35 0 -29 0 -22 c 2
 0 27 l 2
 0 34 8 40 19 40 c 2
 430 40 l 2
 440 40 448 34 448 27 c 2
EndSplineSet
EndChar

StartChar: uniE091
Encoding: 57489 57489 133
Width: 396
Flags: MW
HStem: -198 396<46 50>
VStem: 0 395<-151 -149 149 151 -151 152.5>
LayerCount: 2
Fore
SplineSet
338 193 m 2
 341 196 344 197 348 197 c 0
 351 197 355 196 358 193 c 2
 390 161 l 2
 393 157 395 153 395 149 c 0
 395 145 393 142 391 140 c 2
 391 140 265 14 261 10 c 0
 258 7 257 4 257 0 c 0
 257 -4 258 -8 262 -11 c 0
 270 -19 391 -140 391 -140 c 2
 393 -142 395 -145 395 -149 c 0
 395 -153 393 -157 390 -161 c 2
 358 -193 l 2
 355 -196 351 -197 348 -197 c 0
 344 -197 341 -196 338 -193 c 2
 338 -193 210 -66 208 -63 c 0
 206 -61 202 -59 198 -59 c 0
 194 -59 190 -61 187 -64 c 0
 180 -71 57 -194 57 -194 c 2
 55 -196 52 -198 48 -198 c 0
 44 -198 40 -196 36 -193 c 2
 4 -161 l 2
 1 -158 0 -154 0 -151 c 0
 0 -147 1 -144 4 -141 c 2
 4 -141 130 -15 134 -11 c 0
 136 -9 137 -5 137 -1 c 0
 137 4 135 9 132 13 c 0
 125 20 4 141 4 141 c 2
 1 144 0 147 0 151 c 0
 0 154 1 158 4 161 c 2
 36 193 l 2
 40 196 44 198 48 198 c 0
 52 198 55 196 57 194 c 2
 57 194 177 74 185 66 c 0
 189 62 194 59 199 59 c 0
 202 59 205 60 207 62 c 0
 212 67 338 193 338 193 c 2
EndSplineSet
EndChar

StartChar: uniE092
Encoding: 57490 57490 134
Width: 180
Flags: MW
HStem: -251 501<159 162> 235 15<159 163>
VStem: 0 69<-50.5 51>
LayerCount: 2
Fore
SplineSet
163 -234 m 2xa0
 163 -247 l 2
 163 -248 162 -251 162 -251 c 1
 160 -251 159 -251 159 -250 c 0
 48 -189 0 -101 0 0 c 0
 0 102 50 189 159 249 c 1
 159 250 l 1
 162 250 163 248 163 246 c 0
 163 242 163 235 163 235 c 1
 163 235 163 230 160 227 c 0x60
 93 178 69 111 69 0 c 0
 69 -111 96 -177 159 -228 c 1
 162 -229 163 -231 163 -234 c 2xa0
EndSplineSet
EndChar

StartChar: uniE093
Encoding: 57491 57491 135
Width: 180
Flags: MW
HStem: -251 501<18 21> 235 15<17 21>
VStem: 111 69<-50.5 51 -50.5 55.5>
LayerCount: 2
Fore
SplineSet
17 -247 m 2xa0
 17 -234 l 2
 17 -231 18 -229 21 -228 c 1
 84 -177 111 -111 111 0 c 0
 111 111 87 178 20 227 c 0
 17 230 17 235 17 235 c 1
 17 235 17 242 17 246 c 0
 17 248 18 250 21 250 c 1
 21 249 l 1x60
 130 189 180 102 180 0 c 0
 180 -101 132 -189 21 -250 c 0
 21 -251 20 -251 18 -251 c 1
 18 -251 17 -248 17 -247 c 2xa0
EndSplineSet
EndChar

StartChar: uniE094
Encoding: 57492 57492 136
Width: 138
Flags: MW
HStem: -497 997<178.5 181.5>
VStem: -1 78<-98.5 103.5>
LayerCount: 2
Fore
SplineSet
183 -464 m 2
 183 -491 l 2
 183 -493 182 -497 181 -497 c 0
 180 -497 179 -497 178 -496 c 0
 53 -374 -1 -199 -1 2 c 0
 -1 205 56 379 178 499 c 1
 178 499 178 500 179 500 c 0
 181 500 183 497 183 492 c 0
 183 485 183 471 183 471 c 1
 183 471 183 460 180 455 c 0
 105 356 77 223 77 2 c 0
 77 -219 107 -350 179 -452 c 0
 181 -454 183 -459 183 -464 c 2
EndSplineSet
EndChar

StartChar: uniE095
Encoding: 57493 57493 137
Width: 127
Flags: MW
HStem: -497 997<-56.5 -53.5>
VStem: 48 78<-98.5 103.5 -98.5 112.5>
LayerCount: 2
Fore
SplineSet
-58 -491 m 2
 -58 -464 l 2
 -58 -459 -56 -454 -54 -452 c 0
 18 -350 48 -219 48 2 c 0
 48 223 20 356 -55 455 c 0
 -58 460 -58 471 -58 471 c 1
 -58 471 -58 485 -58 492 c 0
 -58 497 -56 500 -54 500 c 0
 -53 500 -53 499 -53 499 c 1
 69 379 126 205 126 2 c 0
 126 -199 72 -374 -53 -496 c 0
 -54 -497 -55 -497 -56 -497 c 0
 -57 -497 -58 -493 -58 -491 c 2
EndSplineSet
EndChar

StartChar: uniE096
Encoding: 57494 57494 138
Width: 198
Flags: MW
HStem: 1 21G<55 88> 1 137<66.5 88>
VStem: 9 175<46 48 23 86>
LayerCount: 2
Fore
SplineSet
92 138 m 0x60
 112 138 134 131 151 119 c 1
 170 104 184 82 184 48 c 2
 184 39 l 2
 184 7 177 -35 154 -70 c 0
 135 -99 76 -150 38 -150 c 0
 34 -150 31 -147 30 -141 c 0
 30 -140 28 -138 28 -137 c 0
 28 -131 33 -129 38 -127 c 1
 40 -125 70 -107 90 -82 c 0
 101 -67 108 -53 108 -36 c 0
 108 -32 108 -29 106 -24 c 1
 106 -24 102 1 74 1 c 0
 36 1 9 26 9 66 c 0
 9 106 41 138 92 138 c 0x60
EndSplineSet
EndChar

StartChar: uniE097
Encoding: 57495 57495 139
Width: 391
Flags: MW
HStem: -248 20<243 249 245 251.5 243 351> -179 19<199 267 199 267 335 371 335 345.5> 16 14<27 30 30 33 127 130>
VStem: 0 15<130 134.5> 48 67<48 169 169 170.5> 233 88<-7 -5 -7 -3> 267 68<-210 -208 -208 -179 -216 -179 -160 -118 -118 -115>
LayerCount: 2
Fore
SplineSet
1 139 m 1xfa
 46 242 l 2
 48 246 50 251 55 251 c 1
 55 251 56 250 57 250 c 0
 64 249 73 249 82 249 c 0
 88 249 100 251 106 251 c 0
 113 250 115 247 115 240 c 0
 115 232 115 47 115 47 c 2
 115 39 124 30 130 30 c 0
 138 30 138 23 138 23 c 1
 138 23 138 16 130 16 c 2
 30 16 l 2
 24 16 20 18 20 23 c 0
 20 29 24 30 28 30 c 0
 38 30 48 37 48 48 c 2
 48 169 l 2
 48 172 47 176 46 176 c 0
 45 176 43 174 41 171 c 0
 36 162 15 130 15 130 c 1
 15 130 14 125 9 125 c 0
 8 125 7 126 5 126 c 0
 1 128 0 131 0 133 c 0
 0 136 1 139 1 139 c 1xfa
371 -160 m 2
 377 -160 379 -163 379 -169 c 0
 379 -175 376 -179 371 -179 c 2
 371 -179 356 -179 335 -179 c 1
 335 -208 l 2
 335 -224 345 -227 350 -227 c 0
 355 -227 361 -230 361 -237 c 0
 361 -244 356 -248 351 -248 c 2
 351 -248 253 -248 245 -248 c 0
 237 -248 235 -242 235 -237 c 0
 235 -232 239 -228 247 -228 c 0
 256 -228 267 -224 267 -210 c 2
 267 -179 l 1xfa
 174 -179 l 2
 168 -179 164 -175 164 -170 c 0
 164 -169 164 -167 165 -165 c 0
 165 -164 166 -164 166 -163 c 2
 169 -159 l 2
 184 -138 233 -69 233 -7 c 0
 233 1 240 2 244 2 c 0
 248 2 271 1 280 1 c 0
 289 1 309 2 314 2 c 0
 318 2 321 -1 321 -5 c 0
 321 -6 321 -6 321 -7 c 0xfc
 319 -13 239 -126 199 -160 c 1
 267 -160 l 1
 267 -138 267 -118 267 -118 c 2
 267 -112 269 -109 271 -107 c 2
 319 -49 l 2
 322 -46 324 -45 329 -45 c 0
 334 -45 335 -49 335 -53 c 2
 335 -160 l 1
 371 -160 l 2
12 -131 m 2
 345 202 l 2
 349 206 353 208 357 208 c 0
 359 208 361 207 362 206 c 2
 383 185 l 2
 384 184 385 182 385 180 c 0
 385 176 383 171 379 168 c 2
 46 -165 l 2
 43 -169 39 -171 35 -171 c 0
 33 -171 31 -170 30 -169 c 2
 8 -148 l 2
 7 -147 7 -145 7 -143 c 0
 7 -139 9 -135 12 -131 c 2
EndSplineSet
EndChar

StartChar: uniE098
Encoding: 57496 57496 140
Width: 389
Flags: MW
HStem: -245 55<303 362> -219 47<242.5 294> -19 11<291.5 300.5> 13 14<27 30 30 33 127 130>
VStem: 0 15<127 131.5> 48 67<45 166 166 167.5> 200 75<-75 -65.5> 322 68<-73 -68 -89.5 -57.5> 375 11
LayerCount: 2
Fore
SplineSet
1 136 m 1x9c80
 46 239 l 2
 48 243 50 248 55 248 c 1
 55 248 56 247 57 247 c 0
 64 246 73 246 82 246 c 0
 88 246 100 248 106 248 c 0
 113 247 115 244 115 237 c 0
 115 229 115 44 115 44 c 2
 115 36 124 27 130 27 c 0
 138 27 138 20 138 20 c 1
 138 20 138 13 130 13 c 2
 30 13 l 2
 24 13 20 15 20 20 c 0
 20 26 24 27 28 27 c 0
 38 27 48 34 48 45 c 2
 48 166 l 2
 48 169 47 173 46 173 c 0
 45 173 43 171 41 168 c 0
 36 159 15 127 15 127 c 1
 15 127 14 122 9 122 c 0
 8 122 7 123 5 123 c 0
 1 125 0 128 0 130 c 0
 0 133 1 136 1 136 c 1x9c80
387 -170 m 0
 380 -243 344 -245 324 -245 c 0x9e80
 282 -245 275 -219 256 -219 c 0
 229 -219 223 -248 213 -248 c 0
 212 -248 211 -248 209 -247 c 0
 204 -244 201 -237 201 -232 c 0
 201 -231 201 -230 201 -229 c 0
 209 -200 227 -177 253 -160 c 0
 276 -146 289 -135 306 -112 c 0
 316 -99 322 -82 322 -64 c 0
 322 -51 321 -19 280 -19 c 0
 252 -19 244 -31 243 -37 c 1
 243 -47 275 -48 275 -76 c 0
 275 -88 271 -118 242 -118 c 0
 225 -118 211 -106 204 -92 c 0
 201 -85 200 -78 200 -72 c 0
 200 -59 205 -47 213 -37 c 0
 224 -24 240 -14 257 -11 c 0
 269 -8 285 -8 298 -8 c 0
 308 -8 344 -10 368 -31 c 0
 380 -41 390 -57 390 -79 c 0
 390 -100 381 -113 370 -122 c 0
 354 -135 335 -139 328 -141 c 0
 317 -143 277 -158 267 -174 c 1
 272 -173 278 -172 284 -172 c 0
 304 -172 326 -179 335 -183 c 0x7f
 340 -185 343 -186 349 -188 c 0
 352 -189 355 -190 357 -190 c 0
 367 -190 371 -181 375 -169 c 1
 376 -168 l 1
 377 -165 378 -163 382 -163 c 0
 385 -163 387 -164 387 -170 c 0
18 -125 m 2
 351 208 l 2
 355 212 359 214 363 214 c 0
 365 214 367 213 368 212 c 2
 389 191 l 2
 390 190 391 188 391 186 c 0
 391 182 389 177 385 174 c 2
 52 -159 l 2
 49 -163 45 -165 41 -165 c 0
 39 -165 37 -164 36 -163 c 2
 14 -142 l 2
 13 -141 13 -139 13 -137 c 0
 13 -133 15 -129 18 -125 c 2
EndSplineSet
EndChar

StartChar: uniE099
Encoding: 57497 57497 141
Width: 414
Flags: MW
HStem: -250 20<273 279 275 281.5 273 381> -181 19<229 297 229 297 365 401 365 375.5> -2 20<83 86.5 77 88 83 83> 233 17<87 92.5>
VStem: -3 77<54.5 59.5> 0 50<186.5 219> 118 60<191 195 195 201> 119 70<50.5 69 69 72 46.5 80.5> 263 88<-9 -7 -9 -5> 297 68<-212 -210 -210 -181 -218 -181 -162 -120 -120 -117>
LayerCount: 2
Fore
SplineSet
401 -162 m 2xfa40
 407 -162 409 -165 409 -171 c 0
 409 -177 406 -181 401 -181 c 2
 401 -181 386 -181 365 -181 c 1
 365 -210 l 2
 365 -226 375 -229 380 -229 c 0
 385 -229 391 -232 391 -239 c 0
 391 -246 386 -250 381 -250 c 2
 381 -250 283 -250 275 -250 c 0
 267 -250 265 -244 265 -239 c 0
 265 -234 269 -230 277 -230 c 0
 286 -230 297 -226 297 -212 c 2
 297 -181 l 1xfa40
 204 -181 l 2
 198 -181 194 -177 194 -172 c 0
 194 -171 194 -169 195 -167 c 0
 195 -166 196 -166 196 -165 c 2
 199 -161 l 2
 214 -140 263 -71 263 -9 c 0
 263 -1 270 0 274 0 c 0
 278 0 301 -1 310 -1 c 0
 319 -1 339 0 344 0 c 0
 348 0 351 -3 351 -7 c 0
 351 -8 351 -8 351 -9 c 0xfa80
 349 -15 269 -128 229 -162 c 1
 297 -162 l 1
 297 -140 297 -120 297 -120 c 2
 297 -114 299 -111 301 -109 c 2
 349 -51 l 2
 352 -48 354 -47 359 -47 c 0
 364 -47 365 -51 365 -55 c 2
 365 -162 l 1
 401 -162 l 2xfa40
94 250 m 0xf640
 115 248 178 235 178 189 c 0
 178 177 175 165 167 156 c 0
 162 150 155 146 148 143 c 0
 143 140 138 140 132 138 c 0
 131 138 130 136 130 134 c 0
 130 133 130 132 131 131 c 0
 132 129 133 129 136 129 c 2
 152 124 l 1
 163 118 l 2
 168 115 172 111 175 107 c 0xfa40
 179 103 182 98 184 93 c 0
 188 86 189 79 189 72 c 2
 189 69 l 2
 189 24 138 -2 88 -2 c 2
 83 -2 l 1
 34 0 -2 15 -3 54 c 0
 -3 65 0 77 8 85 c 0
 14 91 24 96 32 98 c 0
 34 98 36 98 38 98 c 0
 51 98 66 90 72 78 c 0
 74 73 74 67 74 62 c 0
 74 47 63 40 63 29 c 2
 63 26 l 2xf940
 63 19 73 19 77 18 c 1
 77 18 79 18 81 18 c 0
 92 18 119 24 119 77 c 0
 119 84 115 123 57 123 c 0
 53 123 44 123 44 129 c 0xf540
 44 135 51 137 56 138 c 0
 88 139 118 154 118 191 c 2
 118 195 l 2
 118 207 114 233 71 233 c 0
 67 233 51 229 50 221 c 1
 50 219 l 2
 50 212 57 213 60 212 c 0
 63 211 75 210 77 191 c 1
 77 187 l 2
 77 170 66 154 43 154 c 2
 41 154 l 1
 10 156 0 178 0 195 c 0
 0 222 43 250 87 250 c 0
 89 250 92 250 94 250 c 0xf640
27 -146 m 2
 360 187 l 2
 364 191 368 193 372 193 c 0
 374 193 376 192 377 191 c 2
 398 170 l 2
 399 169 400 167 400 165 c 0
 400 161 398 156 394 153 c 2
 61 -180 l 2
 58 -184 54 -186 50 -186 c 0
 48 -186 46 -185 45 -184 c 2
 23 -163 l 2
 22 -162 22 -160 22 -158 c 0
 22 -154 24 -150 27 -146 c 2
EndSplineSet
EndChar

StartChar: uniE09A
Encoding: 57498 57498 142
Width: 405
Flags: MW
HStem: -250 20<298 301.5 292 303 298 298> -15 17<302 307.5> 15 14<27 30 30 33 127 130>
VStem: 0 15 48 67<47 168 168 169.5> 212 77<-193.5 -188.5> 215 50<-61.5 -29> 333 60<-57 -53 -53 -47> 334 70<-197.5 -179 -179 -176 -201.5 -167.5>
LayerCount: 2
Fore
SplineSet
309 2 m 0xeb
 330 0 393 -13 393 -59 c 0
 393 -71 390 -83 382 -92 c 0
 377 -98 370 -102 363 -105 c 0
 358 -108 353 -108 347 -110 c 0
 346 -110 345 -112 345 -114 c 0
 345 -115 345 -116 346 -117 c 0
 347 -119 348 -119 351 -119 c 2
 367 -124 l 1
 378 -130 l 2
 383 -133 387 -137 390 -141 c 0xe9
 394 -145 397 -150 399 -155 c 0
 403 -162 404 -169 404 -176 c 2
 404 -179 l 2
 404 -224 353 -250 303 -250 c 2
 298 -250 l 1
 249 -248 213 -233 212 -194 c 0
 212 -183 215 -171 223 -163 c 0
 229 -157 239 -152 247 -150 c 0
 249 -150 251 -150 253 -150 c 0
 266 -150 281 -158 287 -170 c 0
 289 -175 289 -181 289 -186 c 0
 289 -201 278 -208 278 -219 c 2
 278 -222 l 2xac80
 278 -229 288 -229 292 -230 c 1
 292 -230 294 -230 296 -230 c 0
 307 -230 334 -224 334 -171 c 0
 334 -164 330 -125 272 -125 c 0
 268 -125 259 -125 259 -119 c 0xaa80
 259 -113 266 -111 271 -110 c 0
 303 -109 333 -94 333 -57 c 2
 333 -53 l 2
 333 -41 329 -15 286 -15 c 0
 282 -15 266 -19 265 -27 c 1
 265 -29 l 2
 265 -36 272 -35 275 -36 c 0
 278 -37 290 -38 292 -57 c 1
 292 -61 l 2
 292 -78 281 -94 258 -94 c 2
 256 -94 l 1
 225 -92 215 -70 215 -53 c 0
 215 -26 258 2 302 2 c 0
 304 2 307 2 309 2 c 0xeb
1 138 m 1xb8
 46 241 l 2
 48 245 50 250 55 250 c 1
 55 250 56 249 57 249 c 0
 64 248 73 248 82 248 c 0
 88 248 100 250 106 250 c 0
 113 249 115 246 115 239 c 0
 115 231 115 46 115 46 c 2
 115 38 124 29 130 29 c 0
 138 29 138 22 138 22 c 1
 138 22 138 15 130 15 c 2
 30 15 l 2
 24 15 20 17 20 22 c 0
 20 28 24 29 28 29 c 0
 38 29 48 36 48 47 c 2
 48 168 l 2
 48 171 47 175 46 175 c 0
 45 175 43 173 41 170 c 0
 36 161 15 129 15 129 c 1
 15 129 14 124 9 124 c 0
 8 124 7 125 5 125 c 0
 1 127 0 130 0 132 c 0
 0 135 1 138 1 138 c 1xb8
15 -132 m 2
 348 201 l 2
 352 205 356 207 360 207 c 0
 362 207 364 206 365 205 c 2
 386 184 l 2
 387 183 388 181 388 179 c 0
 388 175 386 170 382 167 c 2
 49 -166 l 2
 46 -170 42 -172 38 -172 c 0
 36 -172 34 -171 33 -170 c 2
 11 -149 l 2
 10 -148 10 -146 10 -144 c 0
 10 -140 12 -136 15 -132 c 2
EndSplineSet
EndChar

StartChar: uniE09B
Encoding: 57499 57499 143
Width: 416
Flags: MW
HStem: -250 20<308 311.5 302 313 308 308> -15 17<312 317.5> 14 55<103 162> 39 47<42.5 94> 239 11<91.5 100.5>
VStem: 0 75<183 192.5> 122 68<184.5 190 168.5 200> 175 11 222 77<-193.5 -188.5> 225 50<-61.5 -29> 343 60<-57 -53 -53 -47> 344 70<-197.5 -179 -179 -176 -201.5 -167.5>
LayerCount: 2
Fore
SplineSet
319 2 m 0xcd60
 340 0 403 -13 403 -59 c 0
 403 -71 400 -83 392 -92 c 0
 387 -98 380 -102 373 -105 c 0
 368 -108 363 -108 357 -110 c 0
 356 -110 355 -112 355 -114 c 0
 355 -115 355 -116 356 -117 c 0
 357 -119 358 -119 361 -119 c 2
 377 -124 l 1
 388 -130 l 2
 393 -133 397 -137 400 -141 c 0xcda0
 404 -145 407 -150 409 -155 c 0
 413 -162 414 -169 414 -176 c 2
 414 -179 l 2
 414 -224 363 -250 313 -250 c 2
 308 -250 l 1
 259 -248 223 -233 222 -194 c 0
 222 -183 225 -171 233 -163 c 0
 239 -157 249 -152 257 -150 c 0
 259 -150 261 -150 263 -150 c 0
 276 -150 291 -158 297 -170 c 0
 299 -175 299 -181 299 -186 c 0
 299 -201 288 -208 288 -219 c 2
 288 -222 l 2xcd90
 288 -229 298 -229 302 -230 c 1
 302 -230 304 -230 306 -230 c 0
 317 -230 344 -224 344 -171 c 0
 344 -164 340 -125 282 -125 c 0
 278 -125 269 -125 269 -119 c 0xcd50
 269 -113 276 -111 281 -110 c 0
 313 -109 343 -94 343 -57 c 2
 343 -53 l 2
 343 -41 339 -15 296 -15 c 0
 292 -15 276 -19 275 -27 c 1
 275 -29 l 2
 275 -36 282 -35 285 -36 c 0
 288 -37 300 -38 302 -57 c 1
 302 -61 l 2
 302 -78 291 -94 268 -94 c 2
 266 -94 l 1
 235 -92 225 -70 225 -53 c 0
 225 -26 268 2 312 2 c 0
 314 2 317 2 319 2 c 0xcd60
187 88 m 0xeda0
 180 15 144 14 124 14 c 0xeda0
 82 14 75 39 56 39 c 0
 29 39 23 10 13 10 c 0
 12 10 11 10 9 11 c 0
 4 15 1 21 1 26 c 0
 1 27 1 28 1 29 c 0
 9 58 27 81 53 98 c 0
 76 112 89 123 106 146 c 0
 116 159 122 176 122 193 c 0
 122 207 121 239 80 239 c 0
 52 239 44 227 43 221 c 1
 43 211 75 210 75 182 c 0
 75 170 71 140 42 140 c 0
 25 140 11 152 4 166 c 0
 1 173 0 180 0 186 c 0
 0 199 5 211 13 221 c 0
 24 234 40 244 57 247 c 0
 69 250 85 250 98 250 c 0
 108 250 144 247 168 227 c 0
 180 217 190 201 190 179 c 0
 190 158 181 145 170 136 c 0
 154 123 135 119 128 117 c 0
 117 115 77 100 67 84 c 1
 72 85 78 86 84 86 c 0
 104 86 126 79 135 75 c 0xdea0
 140 73 143 72 149 70 c 0
 152 69 155 69 157 69 c 0
 167 69 171 77 175 89 c 1
 176 90 l 1
 177 93 178 95 182 95 c 0
 185 95 187 94 187 88 c 0xeda0
24 -145 m 2
 357 188 l 2
 361 192 365 194 369 194 c 0
 371 194 373 193 374 192 c 2
 395 171 l 2
 396 170 397 168 397 166 c 0
 397 162 395 157 391 154 c 2
 58 -179 l 2
 55 -183 51 -185 47 -185 c 0
 45 -185 43 -184 42 -183 c 2
 20 -162 l 2
 19 -161 19 -159 19 -157 c 0
 19 -153 21 -149 24 -145 c 2
EndSplineSet
EndChar

StartChar: uniE09C
Encoding: 57500 57500 144
Width: 410
Flags: MW
HStem: -377 752<8 70 -3 81 326 394 8 402 326 326>
VStem: -3 405<-377 -377>
LayerCount: 2
Fore
SplineSet
402 -377 m 1
 326 -377 l 1
 199 -64 l 1
 70 -377 l 1
 -3 -377 l 1
 164 8 l 1
 8 375 l 1
 81 375 l 1
 201 80 l 1
 321 375 l 1
 394 375 l 1
 235 8 l 1
 402 -377 l 1
EndSplineSet
EndChar

StartChar: uniE09D
Encoding: 57501 57501 145
Width: 845
Flags: MW
HStem: -248 99<638.5 696.5> 117 133<173 248.5>
VStem: -1 50<-139.5 1 1 10 -139.5 84> 796 50<-48.5 1 1 101>
LayerCount: 2
Fore
SplineSet
-1 -198 m 2
 -1 1 l 2
 -1 167 115 250 231 250 c 0
 348 250 448 167 481 34 c 1
 547 -115 597 -149 680 -149 c 0
 747 -149 796 -98 796 1 c 0
 796 201 813 201 813 201 c 1
 830 201 846 201 846 167 c 2
 846 1 l 2
 846 -149 763 -248 630 -248 c 0
 481 -248 414 -149 364 -48 c 1
 332 51 298 117 199 117 c 0
 132 117 49 68 49 -48 c 0
 49 -231 32 -231 32 -231 c 1
 16 -231 -1 -231 -1 -198 c 2
EndSplineSet
EndChar

StartChar: uniE0A0
Encoding: 57504 57504 148
Width: 657
Flags: MW
HStem: -139 25<351 361.5 351 410> 108 26<287 341>
VStem: 0 34<-164 159> 63 34<-164 159> 98 117<23.5 35.5> 438 118<-39.5 -4> 557 35<-164 159> 619 36<-164 159>
LayerCount: 2
Fore
SplineSet
34 -164 m 2
 34 -168 30 -171 24 -171 c 2
 10 -171 l 2
 4 -171 0 -168 0 -164 c 2
 0 159 l 2
 0 163 4 167 10 167 c 2
 24 167 l 2
 30 167 34 163 34 159 c 2
 34 -164 l 2
97 -164 m 2
 97 -168 92 -171 87 -171 c 2
 73 -171 l 2
 67 -171 63 -168 63 -164 c 2
 63 159 l 2
 63 163 67 167 73 167 c 2
 87 167 l 2
 92 167 97 163 97 159 c 2
 97 -164 l 2
332 134 m 0
 434 134 556 76 556 -2 c 0
 556 -77 499 -139 321 -139 c 0xcc
 160 -139 98 -73 98 -2 c 0
 98 73 188 134 332 134 c 0
218 66 m 0
 216 58 215 50 215 41 c 0
 215 6 232 -31 252 -57 c 0
 259 -65 267 -74 275 -81 c 0
 290 -94 308 -104 327 -110 c 0
 337 -113 346 -114 356 -114 c 0
 367 -114 378 -113 388 -110 c 0
 415 -103 431 -84 436 -57 c 0
 437 -51 438 -44 438 -37 c 0xa2
 438 29 378 108 304 108 c 0
 270 108 230 103 218 66 c 0
592 -164 m 2
 592 -168 587 -171 582 -171 c 2
 567 -171 l 2
 562 -171 557 -168 557 -164 c 2
 557 159 l 2
 557 163 562 167 567 167 c 2
 582 167 l 2
 587 167 592 163 592 159 c 2
 592 -164 l 2
655 -164 m 2x81
 655 -168 650 -171 644 -171 c 2
 630 -171 l 2
 625 -171 619 -168 619 -164 c 2
 619 159 l 2
 619 163 625 167 630 167 c 2
 644 167 l 2
 650 167 655 163 655 159 c 2
 655 -164 l 2x81
EndSplineSet
AlternateSubs2: "'salt' Stilistische Alternativformen lookup 4 subtable" uniE0A0.salt01
AlternateSubs2: "'ss01' Stilgruppe 1 lookup 0 subtable" uniE0A0.ss01
EndChar

StartChar: uniE0A1
Encoding: 57505 57505 149
Width: 533
Flags: MW
HStem: -167 100<53.5 433 104 433 433 453.5 104 471> 56 100<75 99 99 433> 234 16<0 20.5 11.5 32>
VStem: 0 32<-234 -197 -38 -26 -26 13 176 196 196 234> 501 32<-234 -193 -198.5 -187 -26 20 20 30.5 189 234>
LayerCount: 2
Fore
SplineSet
517 250 m 0
 526 250 533 243 533 234 c 2
 533 -234 l 2
 533 -242 526 -250 517 -250 c 0
 508 -250 501 -242 501 -234 c 2
 501 -234 501 -204 501 -193 c 0
 501 -181 488 -167 471 -167 c 2
 59 -167 l 2
 48 -167 32 -183 32 -197 c 0
 32 -211 32 -234 32 -234 c 2
 32 -242 25 -250 16 -250 c 0
 7 -250 0 -242 0 -234 c 2
 0 234 l 2
 0 243 7 250 16 250 c 0
 25 250 32 243 32 234 c 2
 32 234 32 206 32 186 c 0
 32 166 46 156 55 156 c 2
 471 156 l 2
 485 156 501 166 501 189 c 0
 501 213 501 234 501 234 c 2
 501 243 508 250 517 250 c 0
32 13 m 2
 32 -26 l 2
 32 -50 59 -67 104 -67 c 2
 433 -67 l 2
 474 -67 501 -55 501 -26 c 2
 501 20 l 2
 501 41 474 56 433 56 c 2
 99 56 l 2
 51 56 32 42 32 13 c 2
EndSplineSet
EndChar

StartChar: uniE0A2
Encoding: 57506 57506 150
Width: 459
Flags: MW
HStem: -136 25<253 263.5 253 313> 112 25<190 244>
VStem: 0 117<25 39> 341 118<-36 -1>
LayerCount: 2
Fore
SplineSet
235 137 m 0
 336 137 459 79 459 2 c 0
 459 -74 402 -136 224 -136 c 0
 62 -136 0 -71 0 2 c 0
 0 76 90 137 235 137 c 0
121 69 m 0
 118 60 117 51 117 42 c 0
 117 8 134 -29 155 -54 c 0
 162 -63 170 -71 178 -78 c 0
 193 -91 211 -101 229 -107 c 0
 239 -110 248 -111 258 -111 c 0
 269 -111 280 -110 291 -107 c 0
 318 -100 334 -81 339 -54 c 0
 340 -48 341 -41 341 -34 c 0
 341 32 281 112 207 112 c 0
 173 112 133 106 121 69 c 0
EndSplineSet
AlternateSubs2: "'ss01' Stilgruppe 1 lookup 0 subtable" uniE0A2.ss01
EndChar

StartChar: uniE0A3
Encoding: 57507 57507 151
Width: 341
Flags: MW
HStem: -145 45<80.5 99.5 75 207.5> 97 48<244 260.5 140.5 267>
VStem: 0 34<-55 -38.5 -55 -19> 305 36<39.5 55>
LayerCount: 2
Fore
SplineSet
112 -145 m 0
 49 -145 0 -110 0 -49 c 0
 0 11 54 145 227 145 c 0
 294 145 341 107 341 48 c 0
 341 10 303 -145 112 -145 c 0
200 -53 m 0
 281 0 305 28 305 51 c 0
 305 59 302 66 298 73 c 0
 290 87 278 97 256 97 c 0
 232 97 196 85 139 52 c 0
 59 6 34 -26 34 -51 c 0
 34 -59 37 -67 41 -74 c 0
 49 -88 63 -100 87 -100 c 0
 112 -100 148 -88 200 -53 c 0
EndSplineSet
AlternateSubs2: "'ss01' Stilgruppe 1 lookup 0 subtable" uniE0A3.ss01
EndChar

StartChar: uniE0A4
Encoding: 57508 57508 152
Width: 332
Flags: MW
HStem: -141 282<78.5 254.5>
VStem: 0 332<-0.5 1.5>
LayerCount: 2
Fore
SplineSet
109 -141 m 0
 48 -141 0 -106 0 -47 c 0
 0 50 99 141 222 141 c 0
 287 141 332 104 332 47 c 0
 332 -48 209 -141 109 -141 c 0
EndSplineSet
AlternateSubs2: "'ss01' Stilgruppe 1 lookup 0 subtable" uniE0A4.ss01
EndChar

StartChar: uniE0A6
Encoding: 57510 57510 154
Width: 618
Flags: MW
HStem: -142 30<163 217 163 219 398 453> -1 21G<209 209 286 286 330 330 407 407> -1 152 110 30<163 217 163 163 398 453 398 398>
VStem: 0 34<-142 143> 64 34<-142 -129 -104 102 127 143> 518 35<-142 -129 -129 -129 -105 103 103 103 127 143> 581 36<-142 143>
LayerCount: 2
Fore
SplineSet
98 102 m 1xd6
 98 -104 l 1
 99 -102 101 -100 103 -98 c 2
 209 -1 l 1
 103 96 l 2
 101 98 99 100 98 102 c 1xd6
518 -105 m 1
 518 103 l 1
 517 101 514 98 512 96 c 2
 407 -1 l 1
 512 -98 l 2
 514 -100 517 -103 518 -105 c 1
398 -112 m 1
 453 -112 l 1
 330 -1 l 1
 453 110 l 1
 398 110 l 1
 308 34 l 1
 217 110 l 1
 163 110 l 1
 286 -1 l 1
 163 -112 l 1
 217 -112 l 1
 308 -36 l 1
 398 -112 l 1
34 143 m 2
 34 -142 l 2
 34 -146 30 -149 24 -149 c 2
 10 -149 l 2
 4 -149 0 -146 0 -142 c 2
 0 143 l 2
 0 147 4 151 10 151 c 2
 24 151 l 2
 30 151 34 147 34 143 c 2
553 143 m 2
 553 -142 l 2
 553 -146 548 -149 543 -149 c 2
 528 -149 l 2
 523 -149 518 -146 518 -142 c 2
 518 -129 l 1
 514 -137 506 -142 496 -142 c 2
 397 -142 l 2
 391 -142 385 -140 381 -136 c 2x29
 308 -76 l 1
 235 -136 l 2
 231 -140 225 -142 219 -142 c 2
 119 -142 l 2
 110 -142 102 -137 98 -129 c 1
 98 -142 l 2
 98 -146 93 -149 88 -149 c 2
 74 -149 l 2
 68 -149 64 -146 64 -142 c 2
 64 143 l 2
 64 147 68 151 74 151 c 2
 88 151 l 2
 93 151 98 147 98 143 c 2
 98 127 l 1
 102 135 111 140 119 140 c 2
 219 140 l 2
 225 140 231 138 235 134 c 2
 308 73 l 1
 380 134 l 2
 384 138 391 140 397 140 c 2
 497 140 l 2
 506 140 514 135 518 127 c 1
 518 143 l 2
 518 147 523 151 528 151 c 2
 543 151 l 2
 548 151 553 147 553 143 c 2
617 143 m 2
 617 -142 l 2
 617 -146 612 -149 606 -149 c 2
 592 -149 l 2
 587 -149 581 -146 581 -142 c 2
 581 143 l 2
 581 147 587 151 592 151 c 2
 606 151 l 2
 612 151 617 147 617 143 c 2
EndSplineSet
EndChar

StartChar: uniE0A7
Encoding: 57511 57511 155
Width: 426
Flags: MW
HStem: -141 30<69 123 69 124 303 358> 0 21G<104 104 192 192 235 235 323 323> 111 30<69 123 69 69 303 358 303 303>
VStem: 0 426<-122.5 122.5>
LayerCount: 2
Fore
SplineSet
213 -75 m 1
 140 -135 l 2
 136 -139 130 -141 124 -141 c 2
 25 -141 l 2
 11 -141 1 -129 1 -116 c 0
 1 -110 3 -103 9 -97 c 2
 104 0 l 1
 9 97 l 2
 3 103 0 110 0 116 c 0
 0 129 12 141 24 141 c 2
 124 141 l 2
 130 141 136 139 140 135 c 2
 213 74 l 1
 286 135 l 2
 290 139 296 141 302 141 c 2
 402 141 l 2
 415 141 425 129 425 116 c 0
 425 110 423 103 417 97 c 2
 323 0 l 1
 417 -97 l 2
 423 -103 426 -110 426 -116 c 0
 426 -129 415 -141 401 -141 c 2
 302 -141 l 2
 296 -141 290 -139 286 -135 c 2
 213 -75 l 1
303 -111 m 1
 358 -111 l 1
 235 0 l 1
 358 111 l 1
 303 111 l 1
 213 35 l 1
 123 111 l 1
 69 111 l 1
 192 0 l 1
 69 -111 l 1
 123 -111 l 1
 213 -35 l 1
 303 -111 l 1
EndSplineSet
EndChar

StartChar: uniE0A8
Encoding: 57512 57512 156
Width: 379
Flags: MW
HStem: -141 25<56 116 56 146 303 350> 116 25<29 76 29 76 263 263 263 323>
VStem: 1 378<-123 123>
LayerCount: 2
Fore
SplineSet
233 141 m 2
 353 141 l 2
 368 141 379 130 379 116 c 0
 379 108 377 103 373 99 c 2
 269 -17 l 1
 366 -98 l 2
 373 -103 376 -109 376 -115 c 0
 376 -128 363 -141 350 -141 c 2
 303 -141 l 2
 297 -141 291 -138 286 -134 c 2
 214 -78 l 1
 165 -133 l 2
 160 -139 153 -141 146 -141 c 2
 26 -141 l 2
 12 -141 1 -130 1 -116 c 0
 1 -108 3 -103 7 -99 c 2
 111 17 l 1
 12 97 l 1
 7 104 4 110 4 116 c 0
 4 129 16 141 29 141 c 2
 76 141 l 2
 82 141 87 139 92 135 c 2
 165 77 l 1
 214 133 l 2
 219 139 226 141 233 141 c 2
29 116 m 1
 163 3 l 1
 56 -116 l 1
 116 -116 l 1
 195 -27 l 1
 303 -116 l 1
 350 -116 l 1
 216 -4 l 1
 323 116 l 1
 263 116 l 1
 184 26 l 1
 76 116 l 1
 29 116 l 1
EndSplineSet
EndChar

StartChar: uniE0A9
Encoding: 57513 57513 157
Width: 330
Flags: MW
HStem: -144 284<13 15.5 12 16.5 313.5 317>
VStem: 0 330<-129.5 -126.5 122.5 125.5 -129.5 126.5>
LayerCount: 2
Fore
SplineSet
324 -115 m 2
 327 -118 330 -123 330 -128 c 0
 330 -131 329 -135 326 -138 c 1
 324 -142 319 -144 315 -144 c 0
 312 -144 309 -143 307 -141 c 2
 164 -22 l 1
 23 -141 l 2
 21 -143 18 -144 15 -144 c 0
 11 -144 6 -142 3 -138 c 0
 1 -135 0 -132 0 -129 c 0
 0 -124 2 -119 6 -115 c 2
 141 -2 l 1
 6 111 l 2
 2 115 0 120 0 125 c 0
 0 128 1 131 3 134 c 0
 6 138 10 140 14 140 c 0
 17 140 20 139 23 137 c 2
 164 18 l 1
 307 137 l 2
 309 139 312 140 315 140 c 0
 319 140 324 138 326 134 c 1
 329 131 330 127 330 124 c 0
 330 119 327 114 324 111 c 2
 189 -2 l 1
 324 -115 l 2
EndSplineSet
EndChar

StartChar: uniE0AA
Encoding: 57514 57514 158
Width: 248
Flags: MW
HStem: -126 93<48 52.5 193.5 200 200 208.5> -32 65<117 129.5> 33 93<38.5 49 37.5 131 200 210>
VStem: 0 90<-86 -77.5 -86 -69 80 88.5> 104 39<-5.5 7 -6.5 7.5> 157 90<-87 -78 80 87.5>
CounterMasks: 1 1c
LayerCount: 2
Fore
SplineSet
190 -33 m 1xbc
 200 -33 l 2xbc
 217 -33 235 -35 240 -40 c 0
 244 -45 247 -63 247 -80 c 0
 247 -96 245 -111 240 -116 c 0
 233 -123 218 -126 202 -126 c 0
 185 -126 169 -122 162 -116 c 0xb4
 158 -113 157 -96 157 -78 c 1
 153 -64 136 -32 123 -32 c 0
 110 -32 98 -60 92 -74 c 0
 91 -75 90 -77 90 -78 c 0x54
 90 -94 88 -111 82 -116 c 1
 76 -123 60 -126 45 -126 c 0
 28 -126 12 -122 5 -116 c 0
 2 -114 0 -96 0 -78 c 0
 0 -60 2 -43 5 -40 c 0xb4
 11 -35 30 -33 48 -33 c 2
 58 -33 l 1
 72 -28 104 -12 104 1 c 0
 104 14 68 28 57 34 c 1
 54 34 51 33 47 33 c 0xbc
 30 33 12 37 5 43 c 0
 2 46 0 64 0 82 c 0
 0 100 2 117 5 119 c 0
 11 124 29 126 46 126 c 0
 62 126 78 124 82 119 c 1xb4
 87 115 90 97 90 80 c 1
 94 66 110 33 124 33 c 0
 138 33 152 69 157 80 c 1x54
 157 98 158 116 162 119 c 0
 167 124 185 126 203 126 c 0
 220 126 236 124 240 119 c 0
 244 114 247 96 247 79 c 0
 247 63 245 48 240 43 c 0
 233 37 218 33 202 33 c 0xb4
 198 33 194 34 190 34 c 1
 176 29 143 14 143 0 c 0
 143 -13 179 -27 190 -33 c 1xbc
EndSplineSet
EndChar

StartChar: uniE0AB
Encoding: 57515 57515 159
Width: 383
Flags: MW
HStem: -169 24<169 212.5 169 220> -126 93<116 120.5 261.5 268 268 274.5> 117 9 145 24<168.5 214.5>
VStem: 0 24<-21.5 16> 68 16 68 90<-86 -77.5 -86 -69 80 88.5> 172 39<-5.5 7 -6.5 7.5> 225 90<-87 -80 -94 -78 80 86.5> 299 16 359 24<-25.5 27.5>
LayerCount: 2
Fore
SplineSet
326 135 m 1x9820
 364 107 383 61 383 0 c 0
 383 -59 364 -103 326 -132 c 0
 293 -156 248 -169 192 -169 c 0
 134 -169 90 -158 58 -134 c 0
 20 -106 0 -61 0 0 c 0
 0 32 6 60 16 82 c 0
 25 104 39 122 58 135 c 0
 89 158 133 169 192 169 c 0
 251 169 294 157 326 135 c 1x9820
299 123 m 1xfd20
 272 138 237 145 192 145 c 0xda20
 145 145 110 137 84 123 c 1
 92 125 103 126 114 126 c 0
 130 126 146 124 150 119 c 1
 155 115 158 97 158 80 c 1
 162 66 178 33 192 33 c 0
 206 33 220 69 225 80 c 1
 225 98 226 116 230 119 c 0
 235 124 253 126 271 126 c 0
 282 126 291 125 299 123 c 1xfd20
24 0 m 0
 24 -43 35 -85 72 -115 c 1
 70 -110 68 -94 68 -78 c 0
 68 -60 70 -43 73 -40 c 0
 79 -35 98 -33 116 -33 c 2
 126 -33 l 1
 140 -28 172 -12 172 1 c 0xf960
 172 14 136 28 125 34 c 1
 122 34 119 33 115 33 c 0
 98 33 80 37 73 43 c 0
 70 46 68 64 68 82 c 0xd8a0
 68 96 70 109 71 115 c 1xfd20
 40 92 24 54 24 0 c 0
82 -121 m 1
 109 -137 146 -145 192 -145 c 0
 233 -145 268 -138 294 -123 c 1
 287 -125 279 -126 270 -126 c 0
 253 -126 237 -122 230 -116 c 0
 226 -113 225 -96 225 -78 c 1
 221 -64 204 -32 191 -32 c 0
 178 -32 166 -60 160 -74 c 0xbc60
 159 -75 158 -77 158 -78 c 0x9860
 158 -94 156 -111 150 -116 c 1xd8a0
 144 -123 128 -126 113 -126 c 0
 101 -126 90 -124 82 -121 c 1
311 -113 m 1x9820
 343 -88 359 -51 359 0 c 0x9aa0
 359 55 343 93 310 117 c 1
 313 110 315 94 315 79 c 0
 315 63 313 48 308 43 c 0
 301 37 286 33 270 33 c 0
 266 33 262 34 258 34 c 1
 244 29 211 14 211 0 c 0
 211 -13 247 -27 258 -33 c 1
 268 -33 l 2
 285 -33 303 -35 308 -40 c 0xdaa0
 312 -45 315 -63 315 -80 c 2x9a20
 315 -90 l 2x9860
 315 -98 315 -107 311 -113 c 1x9820
EndSplineSet
EndChar

StartChar: uniE0AC
Encoding: 57516 57516 160
Width: 589
Flags: MW
HStem: -155 23<250.5 311 276 311 276 333> 132 23<276 311 276 276>
VStem: 0 35<-140 145> 64 34<-140 145> 116 77<-16 18 -16 30 -16 34> 230 41 316 41 395 76<-16 18 18 18> 489 35<-140 145> 552 36<-140 145>
LayerCount: 2
Fore
SplineSet
276 -132 m 1
 311 -132 l 1
 321 -37 l 1
 395 -16 l 1
 395 18 l 1
 321 38 l 1
 311 132 l 1
 276 132 l 1
 266 38 l 1
 193 18 l 1
 193 -16 l 1
 266 -37 l 1
 276 -132 l 1
333 -155 m 2
 255 -155 l 2
 246 -155 239 -149 239 -141 c 0
 230 -63 230 -63 230 -63 c 1
 130 -45 l 2
 122 -44 116 -36 116 -29 c 2
 116 30 l 2
 116 38 123 45 130 46 c 0
 230 64 230 64 230 64 c 1
 239 140 l 2
 240 149 247 155 255 155 c 2
 333 155 l 2
 341 155 348 148 349 140 c 0
 357 64 357 64 357 64 c 1
 458 46 l 2
 466 45 471 37 471 30 c 2
 471 -29 l 2
 471 -37 464 -44 458 -45 c 0xcf
 357 -63 357 -63 357 -63 c 1
 349 -141 l 2
 348 -149 340 -155 333 -155 c 2
588 145 m 2x5080
 588 -140 l 2
 588 -144 583 -147 577 -147 c 2
 563 -147 l 2
 558 -147 552 -144 552 -140 c 2
 552 145 l 2
 552 149 558 153 563 153 c 2
 577 153 l 2
 583 153 588 149 588 145 c 2x5080
524 145 m 2
 524 -140 l 2
 524 -144 519 -147 514 -147 c 2
 499 -147 l 2
 494 -147 489 -144 489 -140 c 2
 489 145 l 2
 489 149 494 153 499 153 c 2
 514 153 l 2
 519 153 524 149 524 145 c 2
98 145 m 2x6040
 98 -140 l 2
 98 -144 93 -147 88 -147 c 2
 74 -147 l 2
 68 -147 64 -144 64 -140 c 2
 64 145 l 2
 64 149 68 153 74 153 c 2
 88 153 l 2
 93 153 98 149 98 145 c 2x6040
35 145 m 2
 35 -140 l 2
 35 -144 31 -147 25 -147 c 2
 10 -147 l 2
 4 -147 0 -144 0 -140 c 2
 0 145 l 2
 0 149 4 153 10 153 c 2
 25 153 l 2
 31 153 35 149 35 145 c 2
EndSplineSet
EndChar

StartChar: uniE0AD
Encoding: 57517 57517 161
Width: 353
Flags: MW
HStem: -155 23<134.5 195 160 195 160 216> 132 23<160 195 160 160>
VStem: 0 77<-16 18 -16 31 -16 35> 114 41 200 36 279 75<-16 18 18 18>
LayerCount: 2
Fore
SplineSet
160 -132 m 1
 195 -132 l 1
 205 -37 l 1
 279 -16 l 1
 279 18 l 1
 205 38 l 1
 195 132 l 1
 160 132 l 1
 150 38 l 1
 77 18 l 1
 77 -16 l 1
 150 -37 l 1
 160 -132 l 1
216 -155 m 2
 138 -155 l 2
 131 -155 122 -141 122 -141 c 1
 114 -63 114 -63 113 -63 c 2
 13 -45 l 2
 5 -44 0 -36 0 -29 c 2
 0 31 l 2
 0 39 6 45 13 46 c 0
 114 64 114 64 114 64 c 1
 122 140 l 2
 123 149 131 155 138 155 c 2
 216 155 l 2
 224 155 231 148 232 140 c 0
 241 64 241 64 241 64 c 1
 341 46 l 2
 349 45 354 37 354 30 c 2
 354 -29 l 2
 354 -37 348 -44 341 -45 c 0
 241 -63 240 -63 240 -63 c 1
 232 -141 l 2
 231 -149 223 -155 216 -155 c 2
EndSplineSet
EndChar

StartChar: uniE0AE
Encoding: 57518 57518 162
Width: 297
Flags: MW
HStem: -140 30<112 155 139 155 155 157.5 139 177> -44 17 26 17<261 285> 114 30<136.5 139 139 155>
VStem: 0 27<-13.5 -11 -11 15 -13.5 32> 101 27<-128 -101 -103.5 -101 -103.5 -93.5> 271 26<-11 15 15 18>
LayerCount: 2
Fore
SplineSet
120 144 m 2
 173 144 l 2
 181 144 187 138 188 132 c 1
 188 68 217 43 276 43 c 2
 285 43 l 1
 292 42 297 34 297 28 c 2
 297 -24 l 2
 297 -32 291 -39 285 -40 c 1
 229 -60 213 -73 192 -128 c 1
 191 -135 183 -140 177 -140 c 2
 116 -140 l 2
 108 -140 101 -134 101 -128 c 2
 101 -120 l 2
 101 -67 73 -44 20 -44 c 2
 13 -44 l 1
 6 -43 0 -35 0 -28 c 2
 0 32 l 2
 0 40 7 46 13 47 c 1
 66 68 85 78 105 132 c 1
 106 139 114 144 120 144 c 2
271 -11 m 2
 271 15 l 2
 271 21 265 26 261 26 c 2
 189 35 l 2
 183 36 178 38 177 44 c 2
 166 104 l 2
 165 110 160 114 155 114 c 2
 139 114 l 2
 134 114 128 110 128 104 c 2
 118 44 l 2
 117 38 111 34 104 33 c 2
 37 26 l 2
 31 25 27 20 27 15 c 2
 27 -11 l 2
 27 -16 31 -21 36 -22 c 2
 104 -31 l 2
 110 -32 115 -35 116 -41 c 2
 128 -101 l 2
 128 -106 134 -110 139 -110 c 2
 155 -110 l 2
 160 -110 165 -106 166 -101 c 2
 175 -41 l 2
 176 -35 182 -30 189 -29 c 2
 261 -22 l 2
 267 -21 271 -16 271 -11 c 2
EndSplineSet
EndChar

StartChar: uniE0AF
Encoding: 57519 57519 163
Width: 281
Flags: MW
HStem: -16 32<10.5 124 15 124 156 265>
VStem: 124 32<-125 -16 16 125>
LayerCount: 2
Fore
SplineSet
265 16 m 2
 273 16 281 9 281 0 c 0
 281 -9 273 -16 265 -16 c 2
 156 -16 l 1
 156 -125 l 2
 156 -134 148 -141 140 -141 c 0
 131 -141 124 -134 124 -125 c 2
 124 -16 l 1
 15 -16 l 2
 6 -16 -1 -9 -1 0 c 0
 -1 9 6 16 15 16 c 2
 124 16 l 1
 124 125 l 2
 124 134 131 141 140 141 c 0
 148 141 156 134 156 125 c 2
 156 16 l 1
 265 16 l 2
EndSplineSet
EndChar

StartChar: uniE0B0
Encoding: 57520 57520 164
Width: 481
Flags: MW
HStem: -143 33<228 252.5 228 279.5> 0 21G<219 219 264 264> 0 172 109 32<228.5 252.5>
VStem: 0 35<-162 164> 64 34<-162 164> 100 71<-13 12 -13 38.5> 307 74<-88 38.5 -13 11.5> 382 35<-162 164> 444 36<-162 164>
LayerCount: 2
Fore
SplineSet
10 172 m 2xd480
 24 172 l 2
 30 172 35 168 35 164 c 2
 35 -162 l 2
 35 -166 30 -169 24 -169 c 2x93
 10 -169 l 2
 4 -169 0 -166 0 -162 c 2
 0 164 l 2
 0 168 4 172 10 172 c 2xd480
74 172 m 2
 88 172 l 2
 93 172 98 168 98 164 c 2
 98 -162 l 2
 98 -166 93 -169 88 -169 c 2
 74 -169 l 2
 68 -169 64 -166 64 -162 c 2
 64 164 l 2x24
 64 168 68 172 74 172 c 2
264 0 m 1
 330 -65 l 1
 323 -49 307 -25 307 -1 c 0
 307 24 317 39 329 65 c 1
 264 0 l 1
241 -23 m 1
 175 -88 l 1
 194 -102 216 -110 240 -110 c 0
 265 -110 288 -102 307 -88 c 1xa8
 241 -23 l 1
219 0 m 1
 153 66 l 1
 160 39 171 25 171 -1 c 0
 171 -25 157 -48 152 -66 c 1
 219 0 l 1
241 24 m 1
 306 88 l 1
 287 101 265 109 240 109 c 0
 217 109 195 101 177 88 c 1
 241 24 l 1
240 141 m 0
 319 141 381 78 381 -1 c 0
 381 -79 319 -143 240 -143 c 0
 162 -143 100 -79 100 -1 c 0x1080
 100 78 162 141 240 141 c 0
392 172 m 2x2080
 407 172 l 2
 412 172 417 168 417 164 c 2
 417 -162 l 2
 417 -166 412 -169 407 -169 c 2
 392 -169 l 2
 387 -169 382 -166 382 -162 c 2
 382 164 l 2
 382 168 387 172 392 172 c 2x2080
455 172 m 2x2040
 469 172 l 2
 475 172 480 168 480 164 c 2
 480 -162 l 2
 480 -166 475 -169 469 -169 c 2
 455 -169 l 2
 450 -169 444 -166 444 -162 c 2
 444 164 l 2
 444 168 450 172 455 172 c 2x2040
EndSplineSet
EndChar

StartChar: uniE0B1
Encoding: 57521 57521 165
Width: 285
Flags: MW
HStem: -142 33<130 154.5 130 181.5> 1 21G<121 121 166 166> 110 32<130.5 154.5>
VStem: 1 68<-12 13 -12 39.5> 214 70<-11.5 12.5>
LayerCount: 2
Fore
SplineSet
143 -22 m 1
 77 -87 l 1
 96 -101 118 -109 142 -109 c 0
 167 -109 190 -101 209 -87 c 1
 143 -22 l 1
69 0 m 0
 69 -24 59 -47 54 -65 c 1
 121 1 l 1
 55 67 l 1
 62 40 69 26 69 0 c 0
143 25 m 1
 208 89 l 1
 189 102 167 110 142 110 c 0
 119 110 97 102 79 89 c 1
 143 25 l 1
214 0 m 0
 214 25 219 40 231 66 c 1
 166 1 l 1
 223 -55 l 2
 226 -58 231 -62 231 -62 c 1
 224 -46 214 -23 214 0 c 0
142 142 m 0
 221 142 284 79 284 0 c 0
 284 -78 221 -142 142 -142 c 0
 65 -142 1 -78 1 0 c 0
 1 79 65 142 142 142 c 0
EndSplineSet
EndChar

StartChar: uniE0B2
Encoding: 57522 57522 166
Width: 286
Flags: MW
HStem: -142 44<104.5 123.5 104.5 181.5> 98 44<162.5 181>
VStem: 1 44<-39 -20 -39 39.5> 241 44<20.5 39>
LayerCount: 2
Fore
SplineSet
171 6 m 1
 215 -39 l 1
 228 -20 241 8 241 33 c 0
 241 45 238 56 231 66 c 1
 171 6 l 1
148 29 m 1
 208 89 l 1
 198 96 187 98 175 98 c 0
 150 98 122 86 104 73 c 1
 148 29 l 1
116 -4 m 1
 72 41 l 1
 58 22 45 -7 45 -33 c 0
 45 -45 48 -56 55 -65 c 1
 116 -4 l 1
139 -26 m 1
 77 -87 l 1
 87 -95 98 -98 111 -98 c 0
 136 -98 164 -85 183 -71 c 1
 139 -26 l 1
142 142 m 0
 221 142 285 79 285 0 c 0
 285 -78 221 -142 142 -142 c 0
 65 -142 1 -78 1 0 c 0
 1 79 65 142 142 142 c 0
EndSplineSet
EndChar

StartChar: uniE0B3
Encoding: 57523 57523 167
Width: 282
Flags: MW
HStem: -141 32<129 153.5 129 180> 1 21G<120 120 165 165> 109 32<129.5 153.5>
VStem: 1 32<-12 12.5 -12 39> 250 32<-12 12>
LayerCount: 2
Fore
SplineSet
141 141 m 0
 219 141 282 78 282 0 c 0
 282 -78 219 -141 141 -141 c 0
 64 -141 1 -78 1 0 c 0
 1 78 64 141 141 141 c 0
250 0 m 0
 250 24 242 47 229 65 c 1
 165 1 l 1
 230 -64 l 1
 243 -46 250 -24 250 0 c 0
206 88 m 1
 188 101 166 109 141 109 c 0
 118 109 96 101 78 88 c 1
 142 24 l 1
 206 88 l 1
33 0 m 0
 33 -24 40 -47 54 -65 c 1
 120 1 l 1
 55 66 l 1
 41 48 33 25 33 0 c 0
76 -87 m 1
 95 -101 117 -109 141 -109 c 0
 166 -109 189 -101 207 -87 c 1
 142 -22 l 1
 76 -87 l 1
EndSplineSet
EndChar

StartChar: uniE0B4
Encoding: 57524 57524 168
Width: 660
Flags: MW
HStem: -138 25<354 364.5 354 413> 0 21G<362 362> 112 25<300 323.5>
VStem: 0 34<-163 162> 63 34<-163 162> 98 118<25.5 37.5> 441 119<-38 -23.5> 561 35<-163 162> 623 37<-163 162>
LayerCount: 2
Fore
SplineSet
660 162 m 2
 660 -163 l 2
 660 -167 655 -170 649 -170 c 2
 635 -170 l 2xea80
 630 -170 623 -167 623 -163 c 2
 623 162 l 2
 623 166 630 170 635 170 c 2
 649 170 l 2
 655 170 660 166 660 162 c 2
596 162 m 2
 596 -163 l 2
 596 -167 591 -170 586 -170 c 2
 571 -170 l 2
 566 -170 561 -167 561 -163 c 2
 561 162 l 2
 561 166 566 170 571 170 c 2
 586 170 l 2
 591 170 596 166 596 162 c 2
334 137 m 0
 437 137 560 78 560 0 c 0
 560 -76 503 -138 323 -138 c 0
 161 -138 98 -72 98 0 c 0
 98 75 189 137 334 137 c 0
97 162 m 2
 97 -163 l 2
 97 -167 92 -170 87 -170 c 2
 73 -170 l 2
 67 -170 63 -167 63 -163 c 2
 63 162 l 2
 63 166 67 170 73 170 c 2
 87 170 l 2
 92 170 97 166 97 162 c 2
34 162 m 2
 34 -163 l 2
 34 -167 30 -170 24 -170 c 2
 10 -170 l 2
 4 -170 0 -167 0 -163 c 2
 0 162 l 2
 0 166 4 170 10 170 c 2
 24 170 l 2
 30 170 34 166 34 162 c 2
340 24 m 1
 398 68 l 1
 374 94 341 112 306 112 c 0
 294 112 280 111 268 108 c 1
 340 24 l 1
417 42 m 1
 362 0 l 1
 430 -80 l 1
 434 -73 437 -65 439 -55 c 0x31
 440 -49 441 -43 441 -36 c 0
 441 -11 432 17 417 42 c 1
269 -72 m 1
 278 -80 l 2
 293 -93 311 -103 329 -109 c 0
 339 -112 349 -113 359 -113 c 0
 370 -113 381 -112 392 -109 c 1
 408 -103 l 1
 337 -20 l 1
 269 -72 l 1
220 68 m 0
 217 59 216 50 216 41 c 0
 216 10 230 -22 248 -47 c 1
 316 4 l 1
 238 94 l 1
 230 88 224 80 220 68 c 0
EndSplineSet
EndChar

StartChar: uniE0B5
Encoding: 57525 57525 169
Width: 463
Flags: MW
HStem: -139 26<255 265.5 255 315> -1 21G<264 264> 111 25<202 226>
VStem: 0 117<24.5 37.5> 343 119<-38 -23>
LayerCount: 2
Fore
SplineSet
243 24 m 1
 300 67 l 1
 276 93 244 111 208 111 c 0
 196 111 183 110 170 108 c 1
 243 24 l 1
319 41 m 1
 264 -1 l 1
 332 -80 l 1
 337 -73 340 -65 341 -56 c 0
 342 -50 343 -43 343 -36 c 0
 343 -10 334 17 319 41 c 1
170 -72 m 1
 179 -80 l 2
 194 -93 212 -103 230 -109 c 0
 240 -112 250 -113 260 -113 c 0
 271 -113 282 -112 293 -109 c 0
 299 -108 304 -106 309 -103 c 1
 238 -20 l 1
 170 -72 l 1
236 136 m 0
 338 136 462 78 462 0 c 0
 462 -76 405 -139 225 -139 c 0
 62 -139 0 -73 0 0 c 0
 0 75 90 136 236 136 c 0
122 68 m 0
 119 59 117 50 117 40 c 0
 117 9 132 -24 149 -48 c 1
 217 4 l 1
 139 94 l 1
 131 88 125 79 122 68 c 0
EndSplineSet
EndChar

StartChar: uniE0B6
Encoding: 57526 57526 170
Width: 344
Flags: MW
HStem: -147 40<89 109 89 209.5> 101 44<241 257>
VStem: 0 34<-53.5 -37 -53.5 -20> 303 41<29.5 47>
LayerCount: 2
Fore
SplineSet
189 -4 m 1
 216 -57 l 1
 291 -13 303 18 303 41 c 0
 303 53 300 63 300 72 c 1
 189 -4 l 1
174 25 m 1
 277 96 l 1
 270 99 262 101 252 101 c 0
 230 101 199 92 153 67 c 1
 174 25 l 1
162 -22 m 1
 62 -91 l 2
 60 -92 58 -93 56 -93 c 1
 66 -101 80 -107 98 -107 c 0
 120 -107 149 -98 188 -75 c 1
 162 -22 l 1
147 7 m 1
 125 51 l 1
 56 10 34 -24 34 -50 c 0
 34 -57 36 -64 39 -70 c 1
 40 -68 42 -66 44 -64 c 2
 147 7 l 1
113 -147 m 0
 49 -147 0 -112 0 -50 c 0
 0 10 55 145 229 145 c 0
 296 145 344 107 344 47 c 0
 344 9 306 -147 113 -147 c 0
EndSplineSet
EndChar

StartChar: uniE0B7
Encoding: 57527 57527 171
Width: 371
Flags: MW
HStem: -161 32<116.5 147 116.5 149.5> 129 32<223 247.5>
VStem: -1 32<-58 -34 -58 -32.5> 339 32<44.5 60>
LayerCount: 2
Fore
SplineSet
334 131 m 0
 358 111 371 81 371 48 c 0
 371 27 362 -25 325 -72 c 0
 305 -99 280 -120 250 -135 c 0
 215 -152 173 -161 126 -161 c 0
 91 -161 60 -151 37 -132 c 0
 12 -111 -1 -83 -1 -48 c 0
 -1 -17 12 36 51 81 c 0
 82 118 141 161 242 161 c 0
 279 161 311 151 334 131 c 0
242 129 m 0
 204 129 169 122 140 109 c 0
 131 104 122 100 114 95 c 1
 178 30 l 1
 273 126 l 1
 264 128 253 129 242 129 c 0
31 -48 m 0
 31 -68 37 -86 49 -99 c 1
 156 8 l 1
 89 75 l 1
 75 60 l 1
 44 24 31 -20 31 -48 c 0
236 -106 m 0
 243 -102 250 -98 257 -93 c 1
 178 -15 l 1
 75 -118 l 1
 90 -125 107 -129 126 -129 c 0
 168 -129 205 -121 236 -106 c 0
331 7 m 0
 337 25 339 41 339 48 c 0
 339 72 330 92 313 106 c 1
 311 109 308 110 305 112 c 1
 201 8 l 1
 282 -73 l 1
 300 -53 l 1
 317 -31 326 -8 331 7 c 0
EndSplineSet
EndChar

StartChar: uniE0B8
Encoding: 57528 57528 172
Width: 354
Flags: MW
HStem: -142 32<32 322 32 354> 108 32<32 322 32 32>
VStem: 0 32<-110 -110 -110 108> 322 32<-110 108 108 108>
LayerCount: 2
Fore
SplineSet
354 -142 m 1
 0 -142 l 1
 0 140 l 1
 354 140 l 1
 354 -142 l 1
32 -110 m 1
 322 -110 l 1
 322 108 l 1
 32 108 l 1
 32 -110 l 1
EndSplineSet
EndChar

StartChar: uniE0B9
Encoding: 57529 57529 173
Width: 354
Flags: MW
HStem: -141 282<0 354 0 354>
VStem: 0 354<-141 141 -141 141>
LayerCount: 2
Fore
SplineSet
354 -141 m 1
 0 -141 l 1
 0 141 l 1
 354 141 l 1
 354 -141 l 1
EndSplineSet
EndChar

StartChar: uniE0BA
Encoding: 57530 57530 174
Width: 538
Flags: MW
HStem: -135 33<224 314 314 319 224 435>
VStem: 1 36<-138 144> 60 36<-138 -131 -140 -116 -116 144> 443 36<-138 -131 -131 -131 -116 144> 501 37<-138 144>
LayerCount: 2
Fore
SplineSet
538 144 m 2
 538 -138 l 2
 538 -142 533 -145 527 -145 c 2
 512 -145 l 2
 507 -145 501 -142 501 -138 c 2
 501 144 l 2
 501 148 507 152 512 152 c 2
 527 152 l 2
 533 152 538 148 538 144 c 2
479 144 m 2xf0
 479 -138 l 2
 479 -142 474 -145 468 -145 c 2xd8
 454 -145 l 2
 449 -145 443 -142 443 -138 c 2
 443 -131 l 1
 441 -133 438 -135 435 -135 c 2
 104 -135 l 2
 101 -135 98 -133 96 -131 c 1
 96 -138 l 2
 96 -142 91 -145 85 -145 c 2
 71 -145 l 2
 66 -145 60 -142 60 -138 c 2
 60 144 l 2
 60 148 66 152 71 152 c 2
 85 152 l 2
 91 152 96 148 96 144 c 2
 96 -116 l 1
 259 136 l 2
 261 139 265 141 268 141 c 0
 272 141 275 139 277 136 c 2
 443 -116 l 1
 443 144 l 2
 443 148 449 152 454 152 c 2
 468 152 l 2
 474 152 479 148 479 144 c 2xf0
331 -72 m 0
 331 -10 292 45 268 86 c 1
 245 46 206 -10 206 -71 c 0
 206 -81 213 -102 224 -102 c 2
 314 -102 l 2
 324 -102 331 -82 331 -72 c 0
26 152 m 2
 32 152 37 148 37 144 c 2
 37 -138 l 2
 37 -142 32 -145 26 -145 c 2
 12 -145 l 2
 7 -145 1 -142 1 -138 c 2
 1 144 l 2
 1 148 7 152 12 152 c 2
 26 152 l 2
EndSplineSet
EndChar

StartChar: uniE0BB
Encoding: 57531 57531 175
Width: 355
Flags: MW
HStem: -137 33<132 222 222 227 132 343>
VStem: 1 353<-129 -125>
LayerCount: 2
Fore
SplineSet
343 -137 m 2
 12 -137 l 2
 6 -137 1 -132 1 -126 c 0
 1 -124 2 -121 2 -120 c 2
 167 134 l 2
 169 137 173 139 176 139 c 0
 180 139 183 137 185 134 c 2
 352 -120 l 2
 353 -122 354 -124 354 -126 c 0
 354 -132 349 -137 343 -137 c 2
132 -104 m 2
 222 -104 l 2
 232 -104 239 -84 239 -74 c 0
 239 -12 200 43 176 84 c 1
 153 44 113 -12 113 -73 c 0
 113 -83 121 -104 132 -104 c 2
EndSplineSet
EndChar

StartChar: uniE0BC
Encoding: 57532 57532 176
Width: 315
Flags: MW
HStem: -139 32<87 188 87 303>
VStem: -1 315<-131 -127>
LayerCount: 2
Fore
SplineSet
188 -107 m 1
 226 -30 l 1
 177 57 l 1
 87 -107 l 1
 188 -107 l 1
164 137 m 0
 168 137 172 133 173 131 c 2
 313 -123 l 2
 314 -125 314 -126 314 -128 c 0
 314 -134 310 -139 303 -139 c 2
 10 -139 l 2
 4 -139 -1 -134 -1 -128 c 0
 -1 -126 0 -124 1 -122 c 2
 154 132 l 2
 156 135 160 137 164 137 c 0
EndSplineSet
EndChar

StartChar: uniE0BD
Encoding: 57533 57533 177
Width: 329
Flags: MW
HStem: -141 32<55 273 55 329>
VStem: 0 329<-141 -141>
LayerCount: 2
Fore
SplineSet
329 -141 m 1
 0 -141 l 1
 163 142 l 1
 329 -141 l 1
55 -109 m 1
 273 -109 l 1
 163 78 l 1
 55 -109 l 1
EndSplineSet
EndChar

StartChar: uniE0BE
Encoding: 57534 57534 178
Width: 329
Flags: MW
HStem: -140 283<162 162 162 328 0 162>
VStem: 0 328<-140 -140>
LayerCount: 2
Fore
SplineSet
328 -140 m 1
 0 -140 l 1
 162 143 l 1
 328 -140 l 1
EndSplineSet
EndChar

StartChar: uniE0BF
Encoding: 57535 57535 179
Width: 381
Flags: MW
HStem: -140 32<32 284 32 381>
VStem: 0 32<-108 -108 -108 80>
LayerCount: 2
Fore
SplineSet
381 -140 m 1
 0 -140 l 1
 0 143 l 1
 381 -140 l 1
32 -108 m 1
 284 -108 l 1
 32 80 l 1
 32 -108 l 1
EndSplineSet
EndChar

StartChar: uniE0C0
Encoding: 57536 57536 180
Width: 381
Flags: MW
HStem: -140 283<0 381 0 0>
VStem: 0 381<-140 143 -140 143>
LayerCount: 2
Fore
SplineSet
381 -140 m 1
 0 -140 l 1
 0 143 l 1
 381 -140 l 1
EndSplineSet
EndChar

StartChar: uniE0C1
Encoding: 57537 57537 181
Width: 382
Flags: MW
HStem: -140 32<98 350 98 382>
VStem: 350 32<-108 80 80 80>
LayerCount: 2
Fore
SplineSet
382 143 m 1
 382 -140 l 1
 1 -140 l 1
 382 143 l 1
350 80 m 1
 98 -108 l 1
 350 -108 l 1
 350 80 l 1
EndSplineSet
EndChar

StartChar: uniE0C2
Encoding: 57538 57538 182
Width: 381
Flags: MW
HStem: -140 283<0 381>
VStem: 0 381<-140 143>
LayerCount: 2
Fore
SplineSet
381 143 m 1
 381 -140 l 1
 0 -140 l 1
 381 143 l 1
EndSplineSet
EndChar

StartChar: uniE0C3
Encoding: 57539 57539 183
Width: 538
Flags: MW
HStem: 109 33<218.5 224 224 314>
VStem: 1 36<-137 145> 60 36<-137 123 138 145> 443 36<-137 123 123 123 138 145> 501 37<-137 145>
LayerCount: 2
Fore
SplineSet
538 145 m 2
 538 -137 l 2
 538 -141 533 -145 527 -145 c 2xf0
 512 -145 l 2
 507 -145 501 -141 501 -137 c 2
 501 145 l 2
 501 149 507 152 512 152 c 2
 527 152 l 2
 533 152 538 149 538 145 c 2
479 145 m 2
 479 -137 l 2
 479 -141 474 -145 468 -145 c 2xd8
 454 -145 l 2
 449 -145 443 -141 443 -137 c 2
 443 123 l 1
 277 -129 l 2
 275 -132 272 -134 268 -134 c 0
 265 -134 261 -132 259 -129 c 2
 96 123 l 1
 96 -137 l 2
 96 -141 91 -145 85 -145 c 2
 71 -145 l 2
 66 -145 60 -141 60 -137 c 2
 60 145 l 2
 60 149 66 152 71 152 c 2
 85 152 l 2
 91 152 96 149 96 145 c 2
 96 138 l 1
 98 140 101 142 104 142 c 2
 435 142 l 2
 438 142 441 140 443 138 c 1
 443 145 l 2
 443 149 449 152 454 152 c 2
 468 152 l 2
 474 152 479 149 479 145 c 2
331 79 m 0
 331 89 324 109 314 109 c 2
 224 109 l 2
 213 109 206 88 206 78 c 0
 206 17 245 -39 268 -79 c 1
 292 -38 331 17 331 79 c 0
26 -145 m 2
 12 -145 l 2
 7 -145 1 -141 1 -137 c 2
 1 145 l 2
 1 149 7 152 12 152 c 2
 26 152 l 2
 32 152 37 149 37 145 c 2
 37 -137 l 2
 37 -141 32 -145 26 -145 c 2
EndSplineSet
EndChar

StartChar: uniE0C4
Encoding: 57540 57540 184
Width: 355
Flags: MW
HStem: 106 33<126.5 132 132 222>
VStem: 1 353<127 131>
LayerCount: 2
Fore
SplineSet
12 139 m 2
 343 139 l 2
 349 139 354 134 354 128 c 0
 354 126 353 124 352 122 c 2
 185 -132 l 2
 183 -135 180 -137 176 -137 c 0
 173 -137 169 -135 167 -132 c 2
 2 122 l 2
 2 123 1 126 1 128 c 0
 1 134 6 139 12 139 c 2
222 106 m 2
 132 106 l 2
 121 106 113 85 113 75 c 0
 113 14 153 -42 176 -82 c 1
 200 -41 239 14 239 76 c 0
 239 86 232 106 222 106 c 2
EndSplineSet
EndChar

StartChar: uniE0C5
Encoding: 57541 57541 185
Width: 315
Flags: MW
HStem: 105 32<125 125 125 226>
VStem: -1 315<125 129>
LayerCount: 2
Fore
SplineSet
125 105 m 1
 87 28 l 1
 136 -59 l 1
 226 105 l 1
 125 105 l 1
149 -139 m 0
 145 -139 141 -135 140 -133 c 2
 0 121 l 2
 -1 123 -1 124 -1 126 c 0
 -1 132 3 137 10 137 c 2
 303 137 l 2
 309 137 314 132 314 126 c 0
 314 124 313 122 312 120 c 2
 159 -134 l 2
 157 -137 153 -139 149 -139 c 0
EndSplineSet
EndChar

StartChar: uniE0C6
Encoding: 57542 57542 186
Width: 329
Flags: MW
HStem: 109 32<55 273 55 55>
VStem: 0 329<141 141>
LayerCount: 2
Fore
SplineSet
163 -142 m 1
 0 141 l 1
 329 141 l 1
 163 -142 l 1
163 -78 m 1
 273 109 l 1
 55 109 l 1
 163 -78 l 1
EndSplineSet
EndChar

StartChar: uniE0C7
Encoding: 57543 57543 187
Width: 328
Flags: MW
HStem: -141 283<162 162>
VStem: 0 328<142 142>
LayerCount: 2
Fore
SplineSet
162 -141 m 1
 0 142 l 1
 328 142 l 1
 162 -141 l 1
EndSplineSet
EndChar

StartChar: uniE0C8
Encoding: 57544 57544 188
Width: 381
Flags: MW
HStem: 110 32<97 349 97 97>
VStem: 349 32<-77 110 110 110>
LayerCount: 2
Fore
SplineSet
0 142 m 1
 381 142 l 1
 381 -141 l 1
 0 142 l 1
349 110 m 1
 97 110 l 1
 349 -77 l 1
 349 110 l 1
EndSplineSet
EndChar

StartChar: uniE0C9
Encoding: 57545 57545 189
Width: 381
Flags: MW
HStem: -141 283<0 381>
VStem: 0 381<-141 142>
LayerCount: 2
Fore
SplineSet
0 142 m 1
 381 142 l 1
 381 -141 l 1
 0 142 l 1
EndSplineSet
EndChar

StartChar: uniE0CA
Encoding: 57546 57546 190
Width: 354
Flags: MW
HStem: -141 32<147 203 111.5 207> 109 32<32 32 32 322>
VStem: 0 32<0 109> 322 32<0 109 109 109>
LayerCount: 2
Fore
SplineSet
177 -141 m 0
 117 -141 70 -126 39 -96 c 0
 14 -72 0 -38 0 0 c 2
 0 141 l 1
 354 141 l 1
 354 0 l 2
 354 -27 347 -65 315 -96 c 0
 284 -126 237 -141 177 -141 c 0
32 109 m 1
 32 0 l 2
 32 -33 46 -109 177 -109 c 0
 229 -109 268 -97 292 -74 c 0
 317 -50 322 -20 322 0 c 2
 322 109 l 1
 32 109 l 1
EndSplineSet
EndChar

StartChar: uniE0CB
Encoding: 57547 57547 191
Width: 354
Flags: MW
HStem: -141 282<147 207>
VStem: 0 354<0 141 -13.5 141>
LayerCount: 2
Fore
SplineSet
177 -141 m 0
 117 -141 70 -126 39 -96 c 0
 14 -72 0 -38 0 0 c 2
 0 141 l 1
 354 141 l 1
 354 0 l 2
 354 -27 347 -65 315 -96 c 0
 284 -126 237 -141 177 -141 c 0
EndSplineSet
EndChar

StartChar: uniE0CC
Encoding: 57548 57548 192
Width: 318
Flags: MW
HStem: 111 32<138.5 177.5>
VStem: 0 318<89 89>
LayerCount: 2
Fore
SplineSet
159 -144 m 1
 0 89 l 1
 13 98 l 2
 58 128 108 143 158 143 c 0
 209 143 259 128 304 98 c 2
 318 89 l 1
 159 -144 l 1
45 80 m 1
 159 -87 l 1
 273 80 l 1
 237 101 197 111 158 111 c 0
 119 111 80 101 45 80 c 1
EndSplineSet
EndChar

StartChar: uniE0CD
Encoding: 57549 57549 193
Width: 318
Flags: MW
HStem: -143 287<159 159>
VStem: 0 318<90 90>
LayerCount: 2
Fore
SplineSet
159 -143 m 1
 0 90 l 1
 13 99 l 2
 58 129 108 144 158 144 c 0
 209 144 259 129 304 99 c 2
 318 90 l 1
 159 -143 l 1
EndSplineSet
EndChar

StartChar: uniE0CE
Encoding: 57550 57550 194
Width: 319
Flags: MW
HStem: -180 362<31 32 32 295>
VStem: -73 37<-18 25.5 -18 27> 362 36<-18 25.5>
LayerCount: 2
Fore
SplineSet
36 -173 m 1
 31 -180 l 1
 9 -166 -2 -157 -20 -137 c 0
 -57 -94 -73 -52 -73 2 c 0
 -73 52 -58 94 -28 131 c 0
 -12 150 1 161 32 182 c 1
 36 175 l 1
 6 150 -7 135 -19 109 c 0
 -31 83 -36 48 -36 3 c 0
 -36 -39 -31 -71 -21 -100 c 0
 -10 -132 2 -147 36 -173 c 1
295 -180 m 1
 289 -173 l 1
 323 -147 335 -132 347 -100 c 0
 357 -71 362 -39 362 3 c 0
 362 48 356 83 345 109 c 0
 333 135 320 150 289 175 c 1
 293 182 l 1
 325 161 337 150 353 131 c 0
 383 94 398 52 398 2 c 0
 398 -52 382 -94 345 -137 c 0
 328 -157 317 -166 295 -180 c 1
EndSplineSet
EndChar

StartChar: uniE0CF
Encoding: 57551 57551 195
Width: 332
Flags: MW
HStem: -188 373
VStem: -90 511<-173.5 170.5>
LayerCount: 2
Fore
SplineSet
418 178 m 0
 420 175 421 172 421 169 c 0
 421 164 418 159 414 156 c 2
 320 89 l 1
 328 76 332 61 332 44 c 0
 332 -51 209 -144 109 -144 c 0
 77 -144 49 -135 30 -118 c 1
 -65 -185 l 2
 -67 -187 -71 -188 -74 -188 c 0
 -79 -188 -84 -185 -87 -181 c 0
 -89 -178 -90 -175 -90 -172 c 0
 -90 -167 -87 -162 -83 -159 c 2
 10 -92 l 1
 3 -80 0 -66 0 -50 c 0
 0 47 99 138 221 138 c 0
 253 138 280 129 300 114 c 1
 395 182 l 2
 398 184 401 185 404 185 c 0
 409 185 414 182 418 178 c 0
EndSplineSet
EndChar

StartChar: uniE0D0
Encoding: 57552 57552 196
Width: 333
Flags: MW
HStem: -187 373
VStem: -89 511<-172.5 171.5>
LayerCount: 2
Fore
SplineSet
415 -158 m 2
 419 -161 422 -166 422 -171 c 0
 422 -174 421 -177 419 -180 c 0
 416 -184 411 -187 406 -187 c 0
 403 -187 399 -186 396 -184 c 2
 258 -86 l 1
 215 -121 159 -144 109 -144 c 0
 48 -144 0 -109 0 -50 c 0
 0 -9 18 32 48 64 c 1
 -82 157 l 2
 -86 160 -89 165 -89 170 c 0
 -89 173 -88 176 -86 179 c 0
 -83 183 -78 186 -73 186 c 0
 -70 186 -66 185 -63 183 c 2
 72 86 l 1
 112 118 164 138 222 138 c 0
 287 138 332 101 332 44 c 0
 332 6 313 -32 283 -63 c 1
 415 -158 l 2
EndSplineSet
EndChar

